<svg xmlns="http://www.w3.org/2000/svg" viewBox="0 0 17.53 22.01"><defs><style>.cls-1{fill:#4836ee;}</style></defs><title>Recurso 3</title><g id="Capa_2" data-name="Capa 2"><g id="Capa_1-2" data-name="Capa 1"><path class="cls-1" d="M2.28,22a3.12,3.12,0,0,1-1.17-.46A2.54,2.54,0,0,1,0,19.41V10.68A2.44,2.44,0,0,1,.4,9.3,2.51,2.51,0,0,1,2.48,8.09c.54,0,1.08,0,1.64,0V7.85c0-1,0-2.1,0-3.16A4.65,4.65,0,0,1,13.3,3.63a4.53,4.53,0,0,1,.1,1c0,1.06,0,2.11,0,3.16v.26h1.51a2.53,2.53,0,0,1,1.53.48,2.56,2.56,0,0,1,1.08,2.18v8.59a2.63,2.63,0,0,1,0,.49A2.56,2.56,0,0,1,15.4,22l-.15,0Zm6.5-12.2H2.72a.88.88,0,0,0-1,1v8.46a.89.89,0,0,0,1,1H14.8a.89.89,0,0,0,1-1V10.83a.89.89,0,0,0-1-1h-6m2.9-1.73V4.38a2.13,2.13,0,0,0-.07-.44A2.89,2.89,0,0,0,8.47,1.75,2.84,2.84,0,0,0,5.84,4.61V7.89a1.37,1.37,0,0,0,0,.19Z"/><path class="cls-1" d="M10.36,14a1.56,1.56,0,0,1-.59,1.16.33.33,0,0,0-.15.3c0,.54,0,1.07,0,1.61a.88.88,0,0,1-.87.94A.87.87,0,0,1,7.91,17c0-.54,0-1.09,0-1.63a.36.36,0,0,0-.12-.26,1.59,1.59,0,0,1,1.35-2.8A1.63,1.63,0,0,1,10.36,14"/></g></g></svg>