<svg xmlns="http://www.w3.org/2000/svg" xmlns:xlink="http://www.w3.org/1999/xlink" viewBox="0 0 1174.227 354.73201"><defs><style>.cls-1,.cls-10,.cls-11,.cls-4,.cls-7{fill:none;}.cls-2{fill:#d1d8e0;}.cls-3{fill:#4836ee;}.cls-4{stroke:#222;stroke-miterlimit:1;stroke-width:0.4px;}.cls-5{fill:#edeeef;}.cls-6{fill:#d6d6d6;}.cls-11,.cls-7{stroke:#000;stroke-width:2px;}.cls-10,.cls-11,.cls-7{stroke-miterlimit:10;}.cls-8{fill:#f4f4f4;}.cls-9{fill:#fff;}.cls-10{stroke:#ff6498;stroke-width:1.5px;}.cls-11{stroke-linecap:round;}.cls-12{opacity:0.25;fill:url(#pattern);}</style><pattern id="pattern" data-name="pattern" width="100" height="20" patternTransform="matrix(1, 0, 0, -1, 642.13236, 1106.73039)" patternUnits="userSpaceOnUse" viewBox="0 0 100 20"><rect class="cls-1" width="100" height="20"/><path class="cls-2" d="M21.184,0q.5355.195,1.088.402l1.768.661C33.64,4.653,39.647,6,50,6,60.271,6,65.362,4.778,74.629,1.072,75.584.689,76.498.332,77.379,0h6.225c-2.51.73-5.139,1.691-8.233,2.928C65.888,6.722,60.562,8,50,8,39.374,8,33.145,6.603,23.34,2.937l-1.767-.662C19.098,1.352,16.913.601,14.849,0Zm0,20C13.258,17.108,8.077,16,0,16v2a49.27821,49.27821,0,0,1,14.85,2ZM77.38,20c7.859-2.966,13.122-4,22.62-4v2c-6.842,0-11.386.542-16.396,2H77.38ZM0,6c8.44,0,13.718,1.21,22.272,4.402l1.768.661C33.64,14.653,39.647,16,50,16c10.271,0,15.362-1.222,24.629-4.928C84.112,7.278,89.438,6,100,6V8C89.729,8,84.638,9.222,75.371,12.928,65.888,16.722,60.562,18,50,18c-10.626,0-16.855-1.397-26.66-5.063l-1.767-.662C13.223,9.16,8.163,8,0,8Z"/></pattern></defs><g id="Capa_2" data-name="Capa 2"><g id="DESKTOP"><g id="BODY"><g id="principal"><g id="IMAGEN"><path id="blob" class="cls-3" d="M503.57943,263.03119q-150.01925,82.555-157.56458-95.42643t150.01923-82.555Q653.59867,180.47625,503.57943,263.03119Z"/><path class="cls-4" d="M.04667,135.08191s73.38336-17.612,146.76671-17.612,146.76671,17.612,146.76671,17.612,73.38335,17.612,146.7667,17.612,146.76671-17.612,146.76671-17.612,73.38335-17.612,146.76671-17.612,146.7667,17.612,146.7667,17.612,73.38335,17.612,146.76671,17.612,146.7667-17.612,146.7667-17.612"/><path class="cls-4" d="M.04667,117.4699S73.43,99.8579,146.81338,99.8579s146.76671,17.612,146.76671,17.612,73.38335,17.612,146.7667,17.612,146.76671-17.612,146.76671-17.612,73.38335-17.612,146.76671-17.612,146.7667,17.612,146.7667,17.612,73.38335,17.612,146.76671,17.612,146.7667-17.612,146.7667-17.612"/><path class="cls-4" d="M.04667,152.69391s73.38336-17.612,146.76671-17.612,146.76671,17.612,146.76671,17.612,73.38335,17.612,146.7667,17.612,146.76671-17.612,146.76671-17.612,73.38335-17.612,146.76671-17.612,146.7667,17.612,146.7667,17.612,73.38335,17.612,146.76671,17.612,146.7667-17.612,146.7667-17.612"/><path class="cls-4" d="M.04667,99.8579s73.38336-17.612,146.76671-17.612,146.76671,17.612,146.76671,17.612,73.38335,17.612,146.7667,17.612S587.1135,99.8579,587.1135,99.8579s73.38335-17.612,146.76671-17.612,146.7667,17.612,146.7667,17.612,73.38335,17.612,146.76671,17.612,146.7667-17.612,146.7667-17.612"/><path class="cls-4" d="M.04667,82.24589s73.38336-17.612,146.76671-17.612,146.76671,17.612,146.76671,17.612,73.38335,17.612,146.7667,17.612,146.76671-17.612,146.76671-17.612,73.38335-17.612,146.76671-17.612,146.7667,17.612,146.7667,17.612,73.38335,17.612,146.76671,17.612,146.7667-17.612,146.7667-17.612"/><path class="cls-4" d="M.04667,170.30592s73.38336-17.612,146.76671-17.612,146.76671,17.612,146.76671,17.612,73.38335,17.612,146.7667,17.612,146.76671-17.612,146.76671-17.612,73.38335-17.612,146.76671-17.612,146.7667,17.612,146.7667,17.612,73.38335,17.612,146.76671,17.612,146.7667-17.612,146.7667-17.612"/><path class="cls-5" d="M792.90723,34.428c-32.83053,0-60.92462-14.04179-72.47765-33.92559-11.52684,19.91-39.64184,33.92559-72.4724,33.92559a112.40178,112.40178,0,0,1-14.14658-.89071V142.08869a71.87509,71.87509,0,0,0,35.93753,62.245l50.67617,29.25723,50.67618-29.25723a71.86987,71.86987,0,0,0,35.94277-62.24494V33.5373a112.46746,112.46746,0,0,1-14.13609.89071Z"/><path class="cls-6" d="M771.10578,204.33365a71.86986,71.86986,0,0,0,35.94278-62.24494V33.5373A112.468,112.468,0,0,1,792.902,34.428c-32.83053,0-60.92461-14.04179-72.47765-33.9256V233.59088Z"/><path class="cls-7" d="M720.42958,233.59085l50.6762-29.25723a71.86986,71.86986,0,0,0,35.94278-62.24494V33.53727a112.4661,112.4661,0,0,1-14.14658.8907c-32.83053,0-60.92461-14.04179-72.47765-33.92559"/><path class="cls-8" d="M649.35614,334.53457H623.13258v-11.092H596.34315V310.32819l-19.95193-17.64654h-30.2108V241.74872H506.84768V178.70737l-49.59685,43.87534v83.71108H431.03249v37.085H420.19727v-10.3532H400.81645V353.732H662.46528v-7.59724Z"/><path class="cls-7" d="M388.27839,353.732H675.00858"/><path class="cls-9" d="M509.8761,254.50685h3.5838v3.16988h-3.5838Z"/><path class="cls-9" d="M518.59458,254.50685h3.58379v3.16988h-3.58379Z"/><path class="cls-9" d="M527.31307,254.50685h3.5838v3.16988h-3.5838Z"/><path class="cls-9" d="M509.8761,263.05243h3.5838v3.16988h-3.5838Z"/><path class="cls-9" d="M518.59458,263.05243h3.58379v3.16988h-3.58379Z"/><path class="cls-9" d="M527.31307,263.05243h3.5838v3.16988h-3.5838Z"/><path class="cls-9" d="M509.8761,271.598h3.5838v3.16988h-3.5838Z"/><path class="cls-9" d="M518.59458,271.598h3.58379v3.16988h-3.58379Z"/><path class="cls-9" d="M527.31307,271.598h3.5838v3.16988h-3.5838Z"/><path class="cls-9" d="M509.8761,280.14359h3.5838v3.16988h-3.5838Z"/><path class="cls-9" d="M518.59458,280.14359h3.58379v3.16988h-3.58379Z"/><path class="cls-9" d="M527.31307,280.14359h3.5838v3.16988h-3.5838Z"/><path class="cls-9" d="M509.8761,288.68393h3.5838v3.16987h-3.5838Z"/><path class="cls-9" d="M518.59458,288.68393h3.58379v3.16987h-3.58379Z"/><path class="cls-9" d="M527.31307,288.68393h3.5838v3.16987h-3.5838Z"/><path class="cls-9" d="M509.8761,297.22951h3.5838v3.16987h-3.5838Z"/><path class="cls-9" d="M518.59458,297.22951h3.58379v3.16987h-3.58379Z"/><path class="cls-9" d="M527.31307,297.22951h3.5838v3.16987h-3.5838Z"/><path class="cls-9" d="M509.8761,305.77509h3.5838V308.945h-3.5838Z"/><path class="cls-9" d="M518.59458,305.77509h3.58379V308.945h-3.58379Z"/><path class="cls-9" d="M527.31307,305.77509h3.5838V308.945h-3.5838Z"/><path class="cls-9" d="M509.8761,314.32067h3.5838v3.16988h-3.5838Z"/><path class="cls-9" d="M518.59458,314.32067h3.58379v3.16988h-3.58379Z"/><path class="cls-9" d="M527.31307,314.32067h3.5838v3.16988h-3.5838Z"/><path class="cls-9" d="M509.8761,322.86625h3.5838v3.16988h-3.5838Z"/><path class="cls-9" d="M518.59458,322.86625h3.58379v3.16988h-3.58379Z"/><path class="cls-9" d="M527.31307,322.86625h3.5838v3.16988h-3.5838Z"/><path class="cls-5" d="M586.88064,145.34242l-33.38592-5.18708s-24.62553,117.36421-11.4011,204.942l-3.89293,8.63465h44.23163l12.57474-133.56466Z"/><path class="cls-5" d="M564.67575,142.90082s-8.46174,138.1073,15.44073,203.49592l-4.99322,7.33527h42.51833s4.64217-175.66383,4.64217-213.57667Z"/><path class="cls-7" d="M564.67575,142.90082s-8.46174,138.1073,15.44073,203.49592l-4.99322,7.33527"/><path class="cls-5" d="M594.99658,36.047V53.99744L572.76026,59.4622V29.17281L594.99658,23.708Z"/><circle cx="582.43232" cy="41.66371" r="0.59206"/><circle cx="591.56473" cy="41.66371" r="0.59206"/><path class="cls-7" d="M588.88736,45.21083V36.047h4.58978"/><path class="cls-7" d="M581.31633,36.047h4.58978"/><path class="cls-5" d="M574.22732,40.74156v3.18036a3.107,3.107,0,0,1-3.11225-3.09653,2.56271,2.56271,0,0,1,0-.28293,1.563,1.563,0,0,1,3.11225.19911Z"/><path class="cls-7" d="M574.22732,43.92192a3.107,3.107,0,0,1-3.11225-3.09653"/><path class="cls-10" d="M586.88064,47.469a3.14368,3.14368,0,0,1-3.14368-3.14368h0"/><path class="cls-7" d="M594.99658,53.99744,572.76026,59.4622"/><path class="cls-11" d="M588.88736,45.21607l-2.00672.49251"/><path class="cls-3" d="M553.49472,91.60113v48.55421l68.77858,16.90255V102.98651A41.64859,41.64859,0,0,0,590.564,62.53777a29.92262,29.92262,0,0,0-37.06928,29.06336Z"/><path class="cls-7" d="M594.99658,34.538c0-.75972,8.205-14.17277-11.96695-14.45047S572.67119,39.175,572.67119,39.175"/><path class="cls-7" d="M574.22732,36.901s2.94982-4.40115,3.14368-6.18258c0,0,14.43475.20958,16.803-3.14368"/><path d="M571.32465,76.17088l-9.86593,51.373,3.631,9.49917,9.13239-7.82253-.60778-52.67767,3.2118-4.61073H569.145Z"/><path class="cls-7" d="M608.38343,71.93214s81.3376,79.08462-6.28737,128.96442L592.72788,186.226l19.00881-49.18294-18.28053-25.42716"/><path class="cls-7" d="M602.117,200.89656,583.9151,172.39382"/><path class="cls-7" d="M558.8285,74.52569s-39.91955,61.90962-12.63761,108.8815"/><path class="cls-3" d="M684.84419,121.89056l5.18682-5.18682,26.46386,26.46387-5.18681,5.18681Z"/><path class="cls-5" d="M464.518,2.48293a22.00578,22.00578,0,0,0-22.03722,21.95863l44.01158.07859A22.00579,22.00579,0,0,0,464.518,2.48293Z"/><path class="cls-5" d="M510.35289,12.00829A12.54331,12.54331,0,0,0,497.77817,24.5201l0,.01053,25.0866.04715a12.57474,12.57474,0,0,0-12.51187-12.5695Z"/><path class="cls-5" d="M486.52376,1.52934a23.00654,23.00654,0,0,0-23.05367,22.9593l0,.01055,46.01306.07859A23.01178,23.01178,0,0,0,486.52376,1.52933Z"/><path class="cls-7" d="M438.43587,24.43632l90.43857.16242"/><path class="cls-5" d="M509.18449,50.69656a18.23334,18.23334,0,0,1,18.27,18.19663l0,.00529-36.472.06812a18.23335,18.23335,0,0,1,18.19663-18.27Z"/><path class="cls-5" d="M471.17735,58.60292a10.40036,10.40036,0,0,1,10.41607,10.3794l-20.79548.03668a10.40035,10.40035,0,0,1,10.3794-10.41608Z"/><path class="cls-5" d="M490.93016,49.89492a19.07168,19.07168,0,0,1,19.10312,19.035l-38.14337.06811a19.07169,19.07169,0,0,1,19.0402-19.10312h0Z"/><path class="cls-7" d="M530.78684,68.89326l-74.96639.131"/><path class="cls-3" d="M745.5843,262.33463a24.53644,24.53644,0,0,1-6.51266-9.8345,23.23183,23.23183,0,0,0-43.68674,0,24.59417,24.59417,0,0,1-6.48647,9.8345,23.22134,23.22134,0,0,0,19.779,40.0191,48.35563,48.35563,0,0,1,17.14879,0,23.20808,23.20808,0,0,0,19.758-40.0191Z"/><path class="cls-7" d="M708.65125,302.35373a48.35563,48.35563,0,0,1,17.14879,0,23.22663,23.22663,0,0,0,27.371-22.84934"/><path class="cls-7" d="M670.71745,353.732h93.0216"/><path class="cls-7" d="M717.22827,286.24235V353.732"/><path class="cls-7" d="M727.07847,276.39211l-9.8502,9.85021-9.85021-9.85021"/><path class="cls-3" d="M678.31993,302.63141a13.80066,13.80066,0,0,1-3.64144-5.49621,12.98342,12.98342,0,0,0-24.42118,0,13.8006,13.8006,0,0,1-3.66763,5.49621,12.98866,12.98866,0,0,0,11.05528,22.3778,26.83128,26.83128,0,0,1,9.59347,0,12.98341,12.98341,0,0,0,11.05528-22.3778Z"/><path class="cls-7" d="M657.67118,325.00921a26.83133,26.83133,0,0,1,9.59348,0,13.00443,13.00443,0,0,0,15.29926-12.77908"/><path class="cls-7" d="M662.46528,315.99731V353.732"/><path class="cls-7" d="M667.97722,310.49062l-5.51194,5.50669-5.50669-5.50669"/><path id="blob-2" data-name="blob" class="cls-12" d="M477.17546,291.68383q-169,93-177.5-107.5t169-93Q646.17547,198.68384,477.17546,291.68383Z"/></g></g></g></g></g></svg>