<svg xmlns="http://www.w3.org/2000/svg" viewBox="0 0 352.52449 381.61783"><defs><style>.cls-1{fill:#f4f4f4;}.cls-2{fill:#d6d6d6;}.cls-3,.cls-4,.cls-7,.cls-9{fill:none;}.cls-3{stroke:#fff;stroke-width:1.5px;}.cls-3,.cls-4,.cls-7,.cls-8,.cls-9{stroke-miterlimit:10;}.cls-4,.cls-7,.cls-8,.cls-9{stroke:#050247;}.cls-4{stroke-width:2px;}.cls-5{fill:#4836ee;}.cls-6,.cls-8{fill:#edeeef;}.cls-9{stroke-width:3px;}</style></defs><g id="Capa_2" data-name="Capa 2"><g id="DESKTOP"><g id="HEADER"><g id="imagen"><path class="cls-1" d="M0,5.98383H167.018v167.018H0Z"/><path class="cls-2" d="M167.018,109.89363,140.29511,83.17076,102.99691,120.469,37.36342,54.84142,0,92.20484v80.797H167.018Z"/><path class="cls-3" d="M167.018,109.89363,140.29511,83.17076"/><path class="cls-3" d="M102.99691,120.469,37.36342,54.84142"/><path class="cls-4" d="M0,173.00183H167.018"/><circle class="cls-5" cx="104.29511" cy="47.99471" r="20.78314"/><path class="cls-6" d="M287.79855,138.54306H259.0839S228.21742,296.56845,237.702,362.9607l-10.48048,6.72813,47.25114,10.49235,28.193-132.29841Z"/><path class="cls-7" d="M271.27755,268.22729c0,23.85379,5.0802,45.79881,13.58669,63.18525l17.78364-83.52384-8.00264-58.88163c-14.25061,18.738-23.36769,47.2689-23.36769,79.22019Z"/><path class="cls-6" d="M271.27755,137.38712l65.62757-3.80571v246.6057H290.0808l5.45366-9.76913Z"/><path class="cls-7" d="M295.53442,370.418,271.27755,137.38119"/><path class="cls-8" d="M276.45851,20.762v8.76733a14.72485,14.72485,0,0,0,11.2096,14.29805l13.94832,3.42631V12.98465l-11.60086-2.85131A10.94879,10.94879,0,0,0,276.45851,20.762Z"/><path class="cls-9" d="M276.45851,29.52936a14.72485,14.72485,0,0,0,11.2096,14.29805l13.94832,3.42631"/><circle cx="290.66766" cy="27.11671" r="0.66985"/><circle cx="280.33533" cy="27.11671" r="0.66985"/><path class="cls-7" d="M283.37044,31.12989V20.762h-5.19283"/><path class="cls-7" d="M291.9362,20.762h-5.19283"/><path class="cls-6" d="M299.95663,26.07341v3.60415a3.51523,3.51523,0,0,0,3.51523-3.51523v-.326C303.2644,23.65484,299.95663,23.886,299.95663,26.07341Z"/><path class="cls-9" d="M299.95663,29.67756a3.51523,3.51523,0,0,0,3.51523-3.51523V26.1564"/><path class="cls-7" d="M286.20988,32.33917a2.31778,2.31778,0,0,0,3.27784.01212l.01213-.01212"/><path class="cls-7" d="M283.37044,31.13581l2.27039.56315"/><path class="cls-7" d="M276.45851,25.32057s9.30678-4.031,11.7965-9.30677v3.55673s4.56447-1.067,6.04644-3.20106c0,0,.78248,7.88409,5.81525,8.95111"/><path class="cls-9" d="M301.61643,36.77323s11.77276-8.73176,6.20058-21.89165-19.79913-9.366-32.60334-8.18048c-6.74593.59279-15.23466-1.81393-21.75532-4.25621a14.64187,14.64187,0,0,0-17.013,5.08612s-11.1444-5.098-13.75268,7.232,24.02567,35.27088,59.55149,26.468"/><path class="cls-5" d="M259.0839,83.61533v54.92773l77.82118,19.12335V96.49662a47.12664,47.12664,0,0,0-35.87554-45.76324,33.866,33.866,0,0,0-41.94568,32.882Z"/><path class="cls-6" d="M280.00337,90.68137l-85.36146,35.30052a57.19815,57.19815,0,0,0-22.8994,17.26791l-12.579,15.863h24.97414a57.02076,57.02076,0,0,0,21.59526-4.25029l86.16171-35.28867a15.622,15.622,0,1,0-11.89133-28.89248Z"/><path class="cls-7" d="M159.16356,159.11281h24.97416a57.02072,57.02072,0,0,0,21.59526-4.25029l86.16175-35.28867"/><path class="cls-4" d="M322.04392,62.15048s28.52495,20.78315,29.4734,65.835-92.43342-17.78364-92.43342-17.78364a8.668,8.668,0,0,1-8.34053-6.52066s-4.03095-.2312-3.55673-1.96213,11.38153-8.3761,29.6394-7.42763,49.32,12.56711,49.32,12.56711"/><path class="cls-5" d="M159.16356,159.11281h15.70888a27.91437,27.91437,0,0,0-5.70855-12.59674Z"/><path class="cls-4" d="M266.74864,62.15048a225.85237,225.85237,0,0,0-27.7247,45.4787"/><path class="cls-4" d="M222.51481,147.98026s17.59394,11.69571,35.18195,4.83121"/><path class="cls-4" d="M205.99381,122.53779s1.482-12.63231,9.95883-10.75318,7.70624,5.02685,6.52067,5.28174a50.64964,50.64964,0,0,1-6.28354,0l-3.0825,1.28042"/><path class="cls-7" d="M86.80787,381.11783h209.592"/></g></g></g></g></svg>