<svg xmlns="http://www.w3.org/2000/svg" viewBox="0 0 279.77 318.77257"><defs><style>.cls-1{fill:#fff;}.cls-2,.cls-5,.cls-6,.cls-7{fill:none;stroke-miterlimit:10;}.cls-2,.cls-6{stroke:#000;stroke-width:2px;}.cls-3{fill:#4836ee;}.cls-4{fill:#edeeef;}.cls-5{stroke:#ff6498;stroke-width:1.5px;}.cls-6{stroke-linecap:round;}.cls-7{stroke:#4836ee;}</style></defs><g id="Capa_2" data-name="Capa 2"><g id="DESKTOP"><g id="BODY"><g id="caja_-linea" data-name="caja -linea"><g id="imagen_caja" data-name="imagen caja"><path class="cls-1" d="M31.67516,271.86378l9.98111,8.66325,26.61067-34.02786,11.9748,10.02334L143.44419,173.417l55.8824,98.44681,15.30324-16.90835L242.571,300.83137H8.39294Z"/><path class="cls-2" d="M250.964,317.77257H0"/><path class="cls-3" d="M63.91208,145.59308s-100.24619,127.27505,78.65776,122.7132l7.09617,6.08245v-42.708L88.36009,218.13039l7.20177-78.56483"/><path d="M90.50586,194.72569c-18.5092.97149-33.33515,25.65606-33.33515,55.97111,0,.66738,0,1.32631.02535,1.98524,13.64747,8.77731,34.99936,14.695,67.16026,15.62849a88.32757,88.32757,0,0,0,1.74025-17.60105,85.50911,85.50911,0,0,0-3.61145-25.03938l-34.11656-7.53968Z"/><path class="cls-3" d="M72.93014,147.80643s-6.82162,111.3382,12.44365,164.05266l-4.02116,5.91348H115.617s3.74661-141.61521,3.74661-172.17947Z"/><path class="cls-1" d="M98.96636,61.66389V76.135L81.04007,80.54057V56.12211l17.92629-4.40554Z"/><circle cx="88.84164" cy="66.19193" r="0.4773"/><circle cx="96.19969" cy="66.19193" r="0.4773"/><path class="cls-2" d="M94.04128,69.05151V61.66388h3.70015"/><path class="cls-2" d="M87.93771,61.66389h3.70016"/><path class="cls-4" d="M82.22276,65.44851v2.56392A2.50054,2.50054,0,0,1,79.718,65.5161v-.23653a1.25832,1.25832,0,0,1,2.50478.16895Z"/><path class="cls-2" d="M82.22276,68.01243A2.50054,2.50054,0,0,1,79.718,65.5161v-.00845"/><path class="cls-5" d="M92.42351,70.872a2.53435,2.53435,0,0,1-2.53435-2.53435h0"/><path class="cls-2" d="M98.96636,76.135,81.04007,80.54057"/><path class="cls-6" d="M94.04128,69.05574l-1.61776.397"/><path class="cls-1" d="M63.91208,106.45007v39.143l55.45156,13.62635V115.62864A33.58012,33.58012,0,0,0,93.80051,83.02a24.127,24.127,0,0,0-29.88843,23.43006Z"/><path class="cls-2" d="M72.93014,147.80643s-6.82162,111.3382,12.44365,164.05266"/><path class="cls-2" d="M80.44449,64.28271s-2.41185-7.979,1.38967-11.27363,20.61271-2.44987,20.61271-2.44987,1.18269,11.658-16.13537,8.87022c0,0-.24921,3.22707-3.12569,3.80153"/><path class="cls-2" d="M104.32229,87.641s25.28435,16.22406,20.55357,60.16546S55.4896,136.10617,53.686,132.05123s4.95888-7.4341,13.29267-2.70331c0,0-3.37914-2.83847-1.80361-3.22285s4.79415.74342,6.564,4.35063l39.16837,7.206"/><path class="cls-2" d="M65.03987,126.92761H25.994L8.87446,87.3453"/><path class="cls-7" d="M11.26942,91.61568,71.75589,58.83809"/><path class="cls-2" d="M71.37574,89.00951S57.51708,102.10365,53.41566,126.9276"/><path class="cls-2" d="M34.10391,126.92761s9.922,28.10171,21.43638,30.85993"/><path class="cls-2" d="M49.64792,126.92761s-4.88284-6.8174-8.13526-8.39291-13.03923,2.02747-11.80163,3.717,3.49318.78987,3.49318.78987-.56178,1.68956.452,2.1373"/><path class="cls-1" d="M249.739,33.83673v-.3886A17.96431,17.96431,0,0,0,223.8211,17.36346,37.68155,37.68155,0,0,0,155.2247,35.218a34.19126,34.19126,0,0,0,10.847,66.62382h78.48458a34.19889,34.19889,0,0,0,5.18275-68.005Z"/><path class="cls-2" d="M223.82107,17.36346A37.64351,37.64351,0,0,0,192.74572,1"/><path class="cls-2" d="M249.74327,33.44391a17.96009,17.96009,0,0,0-17.9601-17.96009h0"/><path class="cls-2" d="M166.059,101.84177h78.49726A34.21372,34.21372,0,0,0,278.77,67.62806"/><path d="M223.48742,141.13262H187.13217V104.77737h36.35525Z"/><path d="M233.45582,107.51872l-28.14818-28.144-28.14395,28.144Z"/><path class="cls-1" d="M223.48742,212.61816H187.13217V176.26292h36.35525Z"/><path class="cls-1" d="M233.45582,179.00426l-28.14818-28.14395-28.14395,28.14395Z"/><path class="cls-1" d="M223.73587,283.95232l-36.35422.27284-.27284-36.35422,36.35422-.27284Z"/><path class="cls-1" d="M233.43048,250.27861l-28.35515-27.93276L177.14258,250.701Z"/></g></g></g></g></g></svg>