<svg xmlns="http://www.w3.org/2000/svg" viewBox="0 0 330.97855 71.24515"><defs><style>.cls-1{fill:#fff;}</style></defs><g id="Capa_2" data-name="Capa 2"><g id="DESKTOP"><g id="FOOTER"><path class="cls-1" d="M27.67983,35.87338H22.51632V33.71892h5.16351Zm-4.88259-.28092H27.3989V33.99984H22.79724Z"/><path class="cls-1" d="M27.39877,33.81252H22.90265V25.47586h4.49612Zm-4.2152-.28093h3.93428V25.75678H23.18357Z"/><rect class="cls-1" x="25.02949" y="25.58059" width="0.28092" height="8.10246"/><path class="cls-1" d="M27.61729,25.74043H22.49048V24.723h5.12681ZM22.7714,25.4595h4.565v-.4556h-4.565Z"/><path class="cls-1" d="M28.48081,24.98617l-6.79393-.02762,3.46575-2.03545Zm-5.76755-.30442,4.77443.01938L25.14878,23.2513Z"/><path class="cls-1" d="M35.26718,35.87338h-5.1987V33.71892h5.1987Zm-4.91778-.28092h4.63685V33.99984H30.3494Z"/><path class="cls-1" d="M34.98625,33.81252H30.49V25.47586h4.49625Zm-4.21533-.28093h3.93441V25.75678H30.77092Z"/><rect class="cls-1" x="32.61684" y="25.58059" width="0.28092" height="8.10246"/><path class="cls-1" d="M35.20464,25.74043H30.07783V24.723h5.12681Zm-4.84589-.28093h4.565v-.4556h-4.565Z"/><path class="cls-1" d="M36.06816,24.98617l-6.79393-.02762L32.74,22.9231Zm-5.76755-.30442,4.77443.01938L32.73613,23.2513Z"/><path class="cls-1" d="M38.54477,36.15554l.01306-2.42521,5.30177.01237.01457,1.2974-1.85911,1.09057Zm.29261-2.14347-.01,1.86035,3.11047-.02212,1.65351-.97017-.00962-.85706Z"/><path class="cls-1" d="M43.40482,33.81252H38.99076V25.47586h4.41406Zm-4.13314-.28093H43.1239V25.75678H39.27168Z"/><rect class="cls-1" x="41.18783" y="25.58059" width="0.28092" height="8.10246"/><path class="cls-1" d="M43.67021,25.74043H38.78928V24.723h4.88093Zm-4.6-.28093h4.31909v-.4556H39.0702Z"/><path class="cls-1" d="M44.76366,24.98617l-6.7252-.02735L41.31922,22.767Zm-5.80438-.3047,4.84315.01966-2.48046-1.598Z"/><path class="cls-1" d="M66.57685,35.87338H61.23742V33.71892h5.33943Zm-5.05851-.28092h4.77759V33.99984H61.51834Z"/><path class="cls-1" d="M66.17869,33.81252H61.68258V25.47586h4.49611Zm-4.21519-.28093h3.93427V25.75678H61.9635Z"/><rect class="cls-1" x="63.80942" y="25.58059" width="0.28092" height="8.10246"/><path class="cls-1" d="M66.39708,25.74043H61.2704V24.723h5.12668Zm-4.84575-.28093h4.56483v-.4556H61.55133Z"/><path class="cls-1" d="M67.2606,24.98617l-6.79379-.02762,3.46575-2.03545Zm-5.76741-.30442,4.77429.01938L63.92871,23.2513Z"/><path class="cls-1" d="M74.18756,35.87338H68.825V33.71892h5.36252ZM69.106,35.59246h4.80067V33.99984H69.106Z"/><path class="cls-1" d="M73.766,33.81252H69.26993V25.47586H73.766Zm-4.21519-.28093h3.93427V25.75678H69.55085Z"/><rect class="cls-1" x="71.39677" y="25.58059" width="0.28092" height="8.10246"/><path class="cls-1" d="M73.98443,25.74043H68.85775V24.723h5.12668Zm-4.84575-.28093h4.56483v-.4556H69.13868Z"/><path class="cls-1" d="M74.848,24.98617l-6.79379-.02762,3.46575-2.03545Zm-5.76741-.30442,4.77429.01938L71.51606,23.2513Z"/><path class="cls-1" d="M57.7483,36.08421h-3.752l-1.58712-.98748V33.71892H57.7483Zm-3.67176-.28092h3.39084V33.99984H52.69007v.94076Z"/><path class="cls-1" d="M57.46725,33.81252H52.79549V25.47586h4.67176Zm-4.39084-.28093h4.10991V25.75678H53.07641Z"/><rect class="cls-1" x="55.09797" y="25.58059" width="0.28092" height="8.10246"/><path class="cls-1" d="M57.68563,25.74043H52.559V24.723h5.12667Zm-4.84575-.28093h4.56483v-.4556H52.83988Z"/><path class="cls-1" d="M58.46435,24.96061H51.76993l3.3679-2.062Zm-5.69718-.28092h4.71038L55.137,23.22876Z"/><path class="cls-1" d="M50.44188,33.82612l-2.3385-1.39691-2.33326,1.29411V25.47586h4.67176Zm-2.33327-1.72126L50.161,33.3308v-7.574H46.051v7.48936Z"/><rect class="cls-1" x="48.00237" y="25.65082" width="0.28092" height="6.66309"/><path class="cls-1" d="M50.6604,25.74043H45.53359V24.723H50.6604Zm-4.84589-.28093h4.565v-.4556h-4.565Z"/><path class="cls-1" d="M51.54041,24.98631,44.752,24.95868l3.31169-2.04753Zm-5.806-.3047,4.77993.01938L48.06614,23.2399Z"/><path class="cls-1" d="M77.60631,36.15444H18.78078v-13.957H77.60631ZM19.0617,35.87352H77.32539V22.47836H19.0617Z"/><path class="cls-1" d="M77.60631,51.035H18.78078V37.18467H77.60631ZM19.0617,50.75411H77.32539V37.46559H19.0617Z"/><path class="cls-1" d="M37.14044,37.46573h-19.015V35.87352h19.015Zm-18.734-.28092H36.85952V36.15444H18.4064Z"/><path class="cls-1" d="M78.16843,37.46573h-19.015v-1.569h19.015Zm-18.73405-.28092H77.88751V36.17767H59.43438Z"/><rect class="cls-1" x="18.45313" y="47.69929" width="20.23293" height="0.28092"/><rect class="cls-1" x="57.65444" y="47.69929" width="20.23293" height="0.28092"/><path class="cls-1" d="M59.5512,19.73841H36.78929V15.73405H59.5512Zm-22.481-.28092H59.27028V16.015H37.07021Z"/><path class="cls-1" d="M44.17736,19.75023H38.48691V15.74587h5.69045Zm-5.40952-.28092h5.1286V16.02679h-5.1286Z"/><path class="cls-1" d="M57.86513,19.73841H52.17468V15.73405h5.69045Zm-5.40953-.28092h5.1286V16.015H52.4556Z"/><path class="cls-1" d="M50.8983,19.72673H45.20786V15.72236H50.8983Zm-5.40952-.28092h5.1286V16.00328h-5.1286Z"/><path class="cls-1" d="M43.65345,19.118H39.11912V16.29616h4.53433Zm-4.2534-.28092h3.97248v-2.26H39.40005Z"/><path class="cls-1" d="M50.35076,19.07115H45.81684V16.2493h4.53392Zm-4.253-.28092h3.97206v-2.26H46.09777Z"/><path class="cls-1" d="M57.28253,19.118H52.74834V16.29616h4.53419Zm-4.25326-.28092h3.97234v-2.26H53.02927Z"/><path class="cls-1" d="M45.40123,15.71632a3.15937,3.15937,0,0,1-.57325-1.22883l-.14829-.48185.37658.336c.00261.0022.27515.24175.5191.13606.1931-.08383.5224-.45546.55758-2.00177l.26965-.05195c.01608.03752.26072.61325.44969,1.1586a4.63629,4.63629,0,0,1,.50234-.97608,4.39313,4.39313,0,0,0,.724-1.48542l.07724-.463.1898.42936a28.23614,28.23614,0,0,1,1.10059,2.869,5.8426,5.8426,0,0,0,.36847-.765l.07353-.26938.17248.21949a3.90351,3.90351,0,0,1,.5892.949c.03518.10982.16231.37424.30744.40063.08975.01649.20767-.064.3337-.22539l.15929-.20369.08425.2445a1.30382,1.30382,0,0,1-.31666,1.3183l-.19406-.20313a.95842.95842,0,0,0,.28931-.77707.49909.49909,0,0,1-.40682.12287c-.35087-.0646-.51126-.5525-.52844-.60789a2.74775,2.74775,0,0,0-.38964-.64815c-.15791.34387-.43828.84015-.478.91025l-.21028.37053-.0514-.423A17.16,17.16,0,0,0,48.247,11.56737a5.36916,5.36916,0,0,1-.66685,1.20669,5.13906,5.13906,0,0,0-.555,1.15035l.04316.453.00082.00853.003.03216.0099.105-.00385.00041c-.00027.0903-.025.144-.12259.15338-.07944.00756-.11366.01058-.142-.12823l-.01127.001-.01306-.137a6.92877,6.92877,0,0,0-.40984-1.29782c-.08466.92536-.31363,1.45793-.69433,1.62162a.65858.65858,0,0,1-.47388.01058,2.48642,2.48642,0,0,0,.38991.77185Z"/><rect class="cls-1" x="36.15694" y="15.46096" width="23.88615" height="0.54617"/><rect class="cls-1" x="18.3829" y="21.71338" width="59.43424" height="0.54631"/><rect class="cls-1" x="18.3829" y="19.4256" width="59.5747" height="0.48529"/><path class="cls-1" d="M77.60631,22.12707H18.87465V19.879H77.60631Zm-58.45074-.28092H77.32539V20.15993H19.15557Z"/><path class="cls-1" d="M59.481,21.98661H36.78929V19.879H59.481Zm-22.41076-.28092H59.20005V20.15993H37.07021Z"/><path class="cls-1" d="M27.3049,47.13718H23.2303V40.95484h4.0746Zm-3.79368-.28093H27.024V41.23577H23.51122Z"/><path class="cls-1" d="M34.822,47.06681h-4.0746v-6.1822H34.822Zm-3.79368-.28092H34.5411V41.16554H31.02834Z"/><path class="cls-1" d="M73.25065,47.34787H69.17606v-6.1822h4.07459ZM69.457,47.067h3.51275V41.44659H69.457Z"/><path class="cls-1" d="M65.80377,47.27764h-4.0746v-6.1822h4.0746Zm-3.79368-.28092h3.51275V41.37636H62.01009Z"/><path class="cls-1" d="M27.31823,41.23577H23.22357l.00687-.14692a2.15,2.15,0,0,1,2.10485-2.06568h0a2.064,2.064,0,0,1,1.96906,2.05935Zm-3.79134-.28093H27.0068a1.74468,1.74468,0,0,0-1.66931-1.65075A1.79912,1.79912,0,0,0,23.52689,40.95484Z"/><path class="cls-1" d="M34.83549,41.20072h-4.0948l.00687-.14692a2.14988,2.14988,0,0,1,2.10485-2.06568h0a2.06411,2.06411,0,0,1,1.96906,2.05936ZM31.044,40.9198h3.47991A1.73654,1.73654,0,0,0,32.855,39.269,1.79918,1.79918,0,0,0,31.044,40.9198Z"/><path class="cls-1" d="M73.264,41.44659H69.16932l.00688-.14692a2.15006,2.15006,0,0,1,2.10484-2.066h0a2.06421,2.06421,0,0,1,1.96907,2.05963Zm-3.79134-.28092h3.4799a1.73676,1.73676,0,0,0-1.66889-1.651A1.79936,1.79936,0,0,0,69.47265,41.16567Z"/><path class="cls-1" d="M65.8171,41.34118H61.72243l.00688-.14692a2.15014,2.15014,0,0,1,2.10484-2.066h0a2.0642,2.0642,0,0,1,1.96907,2.05963Zm-3.79175-.28092h3.48031a1.73676,1.73676,0,0,0-1.66889-1.651A1.79513,1.79513,0,0,0,62.02535,41.06026Z"/><rect class="cls-1" x="61.51848" y="47.03176" width="4.49612" height="0.52693"/><rect class="cls-1" x="68.93018" y="46.99672" width="4.49612" height="0.5268"/><path class="cls-1" d="M66.08482,50.57956H61.58871v-1.932h4.49611Zm-4.21519-.28092H65.8039V48.92853H61.86963Z"/><path class="cls-1" d="M73.39112,50.61461H68.895V48.68279h4.49612Zm-4.2152-.28092h3.93427v-1.37H69.17592Z"/><path class="cls-1" d="M27.586,50.50933H23.08984v-1.932H27.586Zm-4.2152-.28092H27.305V48.8583H23.37076Z"/><path class="cls-1" d="M35.03285,50.54438H30.53673V48.61256h4.49612Zm-4.2152-.28092h3.93427v-1.37H30.81765Z"/><rect class="cls-1" x="23.01961" y="46.96153" width="4.49612" height="0.5268"/><rect class="cls-1" x="30.52519" y="46.92648" width="4.49612" height="0.5268"/><path class="cls-1" d="M38.97853,37.88725H36.62519V37.2784h2.35334Zm-2.07242-.28092H38.6976v-.047H36.90611Z"/><path class="cls-1" d="M45.76984,37.84052H43.41637v-.60884h2.35347Zm-2.07255-.28092h1.79163v-.047H43.69729Z"/><path class="cls-1" d="M52.70162,37.84052H50.34814v-.60884h2.35348Zm-2.07255-.28092h1.79162v-.047H50.62907Z"/><path class="cls-1" d="M59.762,37.88725H57.42615V37.2784H59.762Zm-2.055-.28092h1.774v-.047h-1.774Z"/><path class="cls-1" d="M38.82652,51.04822H36.81293v-13.395h2.01359Zm-1.73267-.28092H38.5456V37.93412H37.09385Z"/><path class="cls-1" d="M45.57083,51.00108H43.55724V37.60633h2.01359Zm-1.73267-.28092h1.45175V37.88725H43.83816Z"/><path class="cls-1" d="M52.50261,51.00108h-2.014V37.60633h2.014Zm-1.73308-.28092h1.45216V37.88725H50.76953Z"/><path class="cls-1" d="M59.62185,51.04822h-2.014v-13.395h2.014Zm-1.73308-.28092h1.45216V37.93412H57.88877Z"/><rect class="cls-1" x="43.63888" y="47.76952" width="1.75631" height="0.28092"/><rect class="cls-1" x="50.59402" y="47.76952" width="1.75631" height="0.28092"/><path class="cls-1" d="M54.48857,36.06071H41.5978l6.5978-3.9586Zm-11.87621-.28092H53.51414L48.192,32.432Z"/><path class="cls-1" d="M38.97853,22.94674H36.62519V22.3379h2.35334Zm-2.07242-.28092H38.6976v-.047H36.90611Z"/><path class="cls-1" d="M45.76984,22.9H43.41637v-.60884h2.35347Zm-2.07255-.28092h1.79163v-.047H43.69729Z"/><path class="cls-1" d="M52.70162,22.9H50.34814v-.60884h2.35348Zm-2.07255-.28092h1.79162v-.047H50.62907Z"/><path class="cls-1" d="M59.762,22.94674H57.42615V22.3379H59.762Zm-2.055-.28092h1.774v-.047h-1.774Z"/><path class="cls-1" d="M38.82652,36.15444H36.76565V22.71269h2.06087Zm-1.77995-.28092h1.499V22.99361h-1.499Z"/><path class="cls-1" d="M43.557,35.183V22.61909h2.06045V33.963ZM43.83789,22.9V34.69019l1.49861-.88743V22.9Z"/><path class="cls-1" d="M52.64279,35.212,50.5822,33.93772V22.61909h2.06059Zm-1.77967-1.431,1.49875.92688V22.9H50.86312Z"/><path class="cls-1" d="M59.62157,36.10758H57.5607V22.66582h2.06087Zm-1.77995-.28092h1.499V22.94674h-1.499Z"/><path class="cls-1" d="M43.88475,37.47741H38.5456V35.87352h5.33915Zm-5.05823-.28092h4.77731v-1.042H38.82652Z"/><path class="cls-1" d="M50.91012,37.44223H45.25473V35.83834h5.65539Zm-5.37447-.28092H50.6292V36.11926H45.53565Z"/><path class="cls-1" d="M57.93549,37.44223H52.20987V35.83834h5.72562Zm-5.4447-.28092h5.16378V36.11926H52.49079Z"/><rect class="cls-1" x="36.89457" y="41.58719" width="1.79149" height="0.28092"/><path class="cls-1" d="M41.32045,51.07269l-2.7754-.0257.03573-9.98728a2.794,2.794,0,0,1,1.50494-2.021,2.72729,2.72729,0,0,1,1.0918-.29645l.14293-.00248Zm-2.49338-.30415,2.21246.02048V39.03581a2.54539,2.54539,0,0,0-.82544.25275,2.50668,2.50668,0,0,0-1.35376,1.79163Z"/><path class="cls-1" d="M43.85864,51.02747l-2.76028-.00289V38.73977l.14293.00248a2.73822,2.73822,0,0,1,1.0918.29521,2.78075,2.78075,0,0,1,1.5037,1.99462Zm-2.47936-.28353,2.19789.00233-.01993-9.694a2.49372,2.49372,0,0,0-1.3521-1.76469,2.552,2.552,0,0,0-.82586-.25179Z"/><path class="cls-1" d="M41.56647,46.945V39.563l.14321.00275a1.31407,1.31407,0,0,1,.5918.185,1.6672,1.6672,0,0,1,.79191,1.221l.019,5.95583Zm.28092-7.07664v6.79242l.98322-.01113-.01718-5.66035a1.38522,1.38522,0,0,0-.656-.99724A1.07856,1.07856,0,0,0,41.84739,39.8684Z"/><path class="cls-1" d="M40.84025,46.945l-1.54589-.01746.01828-5.93906a1.67214,1.67214,0,0,1,.79246-1.23776,1.31567,1.31567,0,0,1,.59194-.185l.14321-.00275Zm-1.26415-.29535.98323.01113V39.8684a1.08855,1.08855,0,0,0-.3102.1237,1.39324,1.39324,0,0,0-.65654,1.014Z"/><path class="cls-1" d="M48.20536,51.0375l-2.77554-.02556.03574-9.98741a2.794,2.794,0,0,1,1.50493-2.021,2.72838,2.72838,0,0,1,1.09194-.29645l.14293-.00247Zm-2.49352-.304,2.2126.02034V39.00063a2.54458,2.54458,0,0,0-.82558.25288A2.50607,2.50607,0,0,0,45.7451,41.045Z"/><path class="cls-1" d="M47.98313,50.99091V38.70459l.14293.00247a2.7372,2.7372,0,0,1,1.0918.29535,2.7795,2.7795,0,0,1,1.5037,1.99449l.03711,9.96831Zm.28092-11.99028V50.70724l2.2126-.02048L50.442,41.01738a2.49177,2.49177,0,0,0-1.3521-1.76483A2.55271,2.55271,0,0,0,48.26405,39.00063Z"/><path class="cls-1" d="M48.45138,46.90986v-7.382l.1432.00274a1.31343,1.31343,0,0,1,.59167.185,1.66778,1.66778,0,0,1,.792,1.221l.019,5.956Zm.28092-7.07664v6.79242l.98322-.011-.01718-5.66048a1.385,1.385,0,0,0-.65612-.99725A1.0842,1.0842,0,0,0,48.7323,39.83322Z"/><path class="cls-1" d="M47.72516,46.90986l-1.546-.01732.01828-5.93921a1.67255,1.67255,0,0,1,.7926-1.23776,1.31582,1.31582,0,0,1,.59194-.185l.14321-.00274Zm-1.26429-.29522.98337.011V39.83322a1.08837,1.08837,0,0,0-.3102.12369,1.39291,1.39291,0,0,0-.65667,1.014Z"/><path class="cls-1" d="M55.19445,51.03736l-2.87972-.02542.03725-9.98741a2.818,2.818,0,0,1,1.56637-2.022,2.9249,2.9249,0,0,1,1.1333-.29549l.1428-.00247Zm-2.5977-.30387,2.31678.02048V38.9998a2.74671,2.74671,0,0,0-.87094.25481,2.53139,2.53139,0,0,0-1.4112,1.79122Z"/><path class="cls-1" d="M54.97441,50.98981V38.70459l.1428.00247a2.93834,2.93834,0,0,1,1.13331.29425,2.84724,2.84724,0,0,1,1.60169,2.01511l.02061,9.96858Zm.28092-11.99V50.70834l2.336-.004-.01855-9.66691a2.56419,2.56419,0,0,0-1.44612-1.78379A2.75794,2.75794,0,0,0,55.25533,38.9998Z"/><path class="cls-1" d="M55.46231,46.90972V39.52784l.14308.00274a1.39843,1.39843,0,0,1,.61145.18376,1.66469,1.66469,0,0,1,.82421,1.2214l.02007,5.9568Zm.28093-7.078v6.79406l1.03586-.01113-.01787-5.66048a1.38939,1.38939,0,0,0-.684-.996A1.1638,1.1638,0,0,0,55.74324,39.83171Z"/><path class="cls-1" d="M54.69418,46.90972l-1.59908-.01718.01924-5.93921a1.66741,1.66741,0,0,1,.82531-1.239,1.39977,1.39977,0,0,1,.61146-.18376l.14307-.00274Zm-1.3172-.29508,1.03628.01113V39.83171a1.16359,1.16359,0,0,0-.334.12644,1.39531,1.39531,0,0,0-.68513,1.01346Z"/><rect class="cls-1" x="43.67406" y="41.58719" width="1.79149" height="0.28092"/><rect class="cls-1" x="50.59402" y="41.58719" width="1.79149" height="0.28092"/><rect class="cls-1" x="57.68962" y="41.58719" width="1.79149" height="0.28092"/><rect class="cls-1" x="18.41794" y="51.03956" width="59.57484" height="0.48557"/><path class="cls-1" d="M38.68606,41.72765a2.8655,2.8655,0,0,1,2.52912-1.14709A3.32532,3.32532,0,0,1,43.674,41.72765Z"/><path class="cls-1" d="M45.48911,41.71613A2.95045,2.95045,0,0,1,48.0775,40.569a3.44125,3.44125,0,0,1,2.5165,1.14712Z"/><path class="cls-1" d="M52.53777,41.71613A2.95071,2.95071,0,0,1,55.12644,40.569a3.44123,3.44123,0,0,1,2.5165,1.14712Z"/><rect class="cls-1" x="18.26566" y="36.5291" width="18.68732" height="0.28092"/><rect class="cls-1" x="59.36388" y="36.54078" width="18.68745" height="0.28092"/><path class="cls-1" d="M61.66219,65.711l.47506-.11471c.11333-.02746.27635-.06863.48845-.12241L61.873,64.46176Z"/><path class="cls-1" d="M74.73756,11.38547l.14545-1.2536-1.01044.76622.42481.24232Q74.4501,11.22644,74.73756,11.38547Z"/><path class="cls-1" d="M62.94268,5.87607A.68178.68178,0,0,0,63.227,5.4326.68253.68253,0,0,0,63.1968,4.926a.55011.55011,0,0,0-.36718-.26728c-.07026-.01813-.16274-.03569-.27717-.05353l-.32081,1.25194c.079.02389.13747.04036.17591.05022A.69684.69684,0,0,0,62.94268,5.87607Z"/><path class="cls-1" d="M46.04894,67.27462l.489.01044q.17533.0033.50385.00549l-.47035-1.17071Z"/><path class="cls-1" d="M14.7258,54.44845a4.29794,4.29794,0,0,0-.46955-.331q-.26589.27994-.93495,1.08126-.38448.461-.88887,1.10373a3.10505,3.10505,0,0,0,.35317.359,1.06819,1.06819,0,0,0,.87269.29144,1.87111,1.87111,0,0,0,1.08127-.7212,1.545,1.545,0,0,0,.43138-1.02581A1.05327,1.05327,0,0,0,14.7258,54.44845Z"/><path class="cls-1" d="M38.32037,6.37716a.82147.82147,0,0,0,.73589.20225.84914.84914,0,0,0,.493-.242.9655.9655,0,0,0,.23422-.55954,2.88137,2.88137,0,0,0-.02607-.83044,3.57029,3.57029,0,0,0-.17249-.66821A1.61693,1.61693,0,0,0,39.33,3.79974a.86955.86955,0,0,0-.34139-.24809.85286.85286,0,0,0-.46338-.04059.88052.88052,0,0,0-.49121.24532.98512.98512,0,0,0-.25825.56477,2.55434,2.55434,0,0,0,.01264.8027A2.16327,2.16327,0,0,0,38.32037,6.37716Z"/><path class="cls-1" d="M82.69484,18.56641a.96665.96665,0,0,0,.58619-.154,2.86522,2.86522,0,0,0,.64353-.52471,3.58467,3.58467,0,0,0,.42566-.54225,1.61763,1.61763,0,0,0,.22583-.49342.867.867,0,0,0-.01041-.42152.85061.85061,0,0,0-.24892-.39245.87731.87731,0,0,0-.49287-.24093.9858.9858,0,0,0-.60511.13775,2.54392,2.54392,0,0,0-.62928.49728,2.16313,2.16313,0,0,0-.67207,1.183.82169.82169,0,0,0,.28624.70666A.84788.84788,0,0,0,82.69484,18.56641Z"/><path class="cls-1" d="M47.96,0C21.51482,0,0,15.98045,0,35.62285,0,55.265,21.51482,71.24515,47.96,71.24515c26.44491,0,47.95918-15.98017,47.95918-35.6223C95.91918,15.98045,74.40491,0,47.96,0ZM84.561,15.89182a1.76024,1.76024,0,0,1,.61962,1.22863,1.67329,1.67329,0,0,1-.51537,1.22777,2.15837,2.15837,0,0,1-.75576.52857,1.73846,1.73846,0,0,1-.64875.13721,1.68887,1.68887,0,0,1-.57082-.08509,2.1336,2.1336,0,0,1-.74149-.48135,1.619,1.619,0,0,1-.07082-2.50632,1.84006,1.84006,0,0,1,1.31562-.63257A1.88848,1.88848,0,0,1,84.561,15.89182Zm-3.49734-2.63668c-.01619-.01922-.03922-.04721-.06888-.08371l.11444-.14243q.47753.41866.72423.61664.26386.2116.72533.54777l-.11418.14243-.079-.04749a.90766.90766,0,0,0-.36883-.1696.30508.30508,0,0,0-.19486.13778l-.056.06941-.52171.64189-.59029.73905-.29993.37677a.98752.98752,0,0,0-.15068.22119.149.149,0,0,0,.00605.10922,1.39942,1.39942,0,0,0,.2275.30024l.062.06859-.11441.14243q-.37793-.33793-.67787-.57932-.28524-.22887-.772-.58506l.11444-.14245q.34533.18527.38337.197a.186.186,0,0,0,.10758.00414.495.495,0,0,0,.17616-.15644q.2606-.31614.87764-1.08454l.55736-.70555.04609-.05789a.38386.38386,0,0,0,.11527-.23383A.93812.93812,0,0,0,81.06364,13.25514Zm-5.20918.11991a1.85186,1.85186,0,0,0,.45665.17154.24278.24278,0,0,0,.14984-.09772q.044-.05063.72889-1.03706l.41659-.607a5.39344,5.39344,0,0,0,.33917-.52555.17609.17609,0,0,0,.00933-.1331,1.22065,1.22065,0,0,0-.23626-.27278l-.07878-.08176.10375-.1504q.67177.49727.79555.58288.13215.09138.38723.25716.25481.16586.37266.24726a1.40975,1.40975,0,0,1,.41822.40285.74466.74466,0,0,1,.10128.43358.86348.86348,0,0,1-.15724.44706,1.00417,1.00417,0,0,1-.30848.28978,1.0227,1.0227,0,0,1-.38692.14243,1.31545,1.31545,0,0,1-.36636-.0129q-.02636.33345-.06065.95226a3.86217,3.86217,0,0,0-.00878.55846.56089.56089,0,0,0,.06147.1869,2.03819,2.03819,0,0,0,.32163.36033l-.104.15036q-.33013-.261-.5475-.41162-.22966-.1585-.58069-.368.147-.74261.26731-1.74673-.11322-.084-.23052-.1833l-.57849.84961a.62245.62245,0,0,0-.10758.21242.15172.15172,0,0,0,.0258.09741,4.32693,4.32693,0,0,0,.309.3307l-.104.15038q-.45813-.34949-.7448-.54777-.28237-.19512-.7673-.49726Zm-.33423-4.10678.174.09824q-.08482.61869-.23519,2.35486-.08439.96486-.07492,1.10922a.38307.38307,0,0,0,.03623.157,1.75213,1.75213,0,0,0,.24588.26345l-.09.15917q-.36719-.23875-.69457-.42288-.32314-.18238-.82081-.43112l.09-.15946a1.31267,1.31267,0,0,0,.345.09248.11139.11139,0,0,0,.087-.05873.24482.24482,0,0,0,.02579-.07629q.0165-.11031.08235-.6685-.30009-.17781-.5022-.292-.16631-.093-.55709-.30518a5.45,5.45,0,0,0-.58729.483.10144.10144,0,0,0-.00847.096,1.57947,1.57947,0,0,0,.26259.24862l-.09.15916q-.25769-.17615-.50522-.31614-.26715-.15066-.55573-.28211l.08976-.15917a.897.897,0,0,0,.31916.05793.37284.37284,0,0,0,.14873-.05242q.16014-.08809,1.09331-.76759Q74.38959,10.12614,75.52023,9.26827ZM70.40492,7.41888q.06669-.12142.24589-.4797.87639.43473,1.72611.82054.72123.32441,1.0412.45555a8.61883,8.61883,0,0,0-.36828.97532l-.20857-.096q.06339-.545.05765-.62349a.21373.21373,0,0,0-.05655-.13364,1.819,1.819,0,0,0-.38749-.21l-.21737-.10014-.966,2.0947a2.48992,2.48992,0,0,0-.19016.483.131.131,0,0,0,.03456.09935,3.01279,3.01279,0,0,0,.36636.27609l-.07682.16573q-.67263-.34-.86774-.42975-.26426-.12223-.82081-.34878l.07656-.166a2.38538,2.38538,0,0,0,.47147.098.1441.1441,0,0,0,.09961-.0535,3.53643,3.53643,0,0,0,.23356-.46215L71.55364,7.712l-.37706-.174a.71522.71522,0,0,0-.26675-.08452.26192.26192,0,0,0-.15477.067,4.33737,4.33737,0,0,0-.40312.42591l-.2039-.09387Q70.33822,7.54048,70.40492,7.41888ZM67.78685,8.976q.15357-.38035.5121-1.29914l.31971-.84084.02717-.06916a.38347.38347,0,0,0,.03922-.25794.93273.93273,0,0,0-.31638-.24259l-.09085-.0593.06639-.17069q.58165.25646.87654.371.3153.12353.85733.30518l-.06645.1707-.08972-.022a.91492.91492,0,0,0-.40315-.05106.30658.30658,0,0,0-.1446.19047l-.0324.08288-.30515.76949-.34193.88284-.1726.44977a.99883.99883,0,0,0-.07741.25633.15091.15091,0,0,0,.03815.10263,1.40311,1.40311,0,0,0,.3079.2179c.017.01043.04336.02607.07959.04718l-.06641.17044q-.46227-.20955-.82138-.34962-.34084-.133-.91245-.32659l.06641-.17042q.38532.07328.42509.073a.18442.18442,0,0,0,.104-.02854A.49406.49406,0,0,0,67.78685,8.976Zm-2.9951-1.432.05216-.157.23.076a1.55217,1.55217,0,0,0,.01373.69677.62846.62846,0,0,0,.41715.37513.57275.57275,0,0,0,.44756-.01564.535.535,0,0,0,.27526-.32793.55048.55048,0,0,0,.023-.27856.67856.67856,0,0,0-.11744-.26537,3.00864,3.00864,0,0,0-.36691-.38967,1.95928,1.95928,0,0,1-.5162-.67317.84427.84427,0,0,1-.00029-.56506.96545.96545,0,0,1,.55574-.6095,1.41208,1.41208,0,0,1,1.01373.02032,2.963,2.963,0,0,1,.815.43908q-.13663.36387-.18387.50687c-.03677.11114-.07135.23215-.10455.3636L67.11121,6.662a1.19749,1.19749,0,0,0-.03456-.6814.61552.61552,0,0,0-.376-.295.55923.55923,0,0,0-.418.00082.43966.43966,0,0,0-.24067.27553.48666.48666,0,0,0,.02.35536,2.01846,2.01846,0,0,0,.47368.54995,1.837,1.837,0,0,1,.50467.66139.97529.97529,0,0,1-.0088.64791,1.07015,1.07015,0,0,1-.56313.63475,1.48257,1.48257,0,0,1-1.13118-.02194,3.03724,3.03724,0,0,1-.466-.19623,2.9323,2.9323,0,0,1-.38912-.24834Q64.65878,7.94552,64.79175,7.544ZM61.0516,7.19113a.24432.24432,0,0,0,.1073-.14355q.02385-.063.32628-1.22477l.18167-.71406a5.28818,5.28818,0,0,0,.13694-.61.176.176,0,0,0-.03676-.12814,1.23,1.23,0,0,0-.31614-.17482l-.10208-.0494.04555-.177q.80186.23508.94786.27278.15563.04035.45227.10785.29635.06754.43522.10348a1.40779,1.40779,0,0,1,.53131.23407.74253.74253,0,0,1,.24479.37185.8618.8618,0,0,1,.00659.47368,1.00113,1.00113,0,0,1-.18936.37871,1.03045,1.03045,0,0,1-.31394.26727,1.31509,1.31509,0,0,1-.34851.11418q.09011.32187.27169.91492a3.92541,3.92541,0,0,0,.18383.52747.57624.57624,0,0,0,.12241.15394,2.05472,2.05472,0,0,0,.42646.2275l-.0461.177q-.40013-.13131-.6559-.19733-.27-.07-.67178-.14543-.11853-.74757-.35184-1.73191-.135-.03993-.27988-.09248l-.24974.99725a.63162.63162,0,0,0-.028.23655.15215.15215,0,0,0,.05789.08235,4.51538,4.51538,0,0,0,.40425.2039l-.04555.177q-.55076-.17043-.88807-.25742-.33258-.08559-.8924-.202l.04609-.17729A1.85236,1.85236,0,0,0,61.0516,7.19113Zm-3.3642-.949.01509-.08231.1825-.96051.14378-.77663.06368-.3595a1.12946,1.12946,0,0,0,.03294-.32767.20051.20051,0,0,0-.08453-.11855,2.06752,2.06752,0,0,0-.39819-.16137l.0332-.17973q.5796.13709,1.26619.26428.79614.14733,1.64605.27386a7.29344,7.29344,0,0,0-.10294.89739l-.2061-.03844c-.00986-.05514-.01643-.09714-.01946-.12623a1.18822,1.18822,0,0,0-.11254-.43742.551.551,0,0,0-.29528-.11252l-.92729-.17126q-.09548.40673-.24422,1.18717l.42124.0829a.77951.77951,0,0,0,.41823.011,1.01348,1.01348,0,0,0,.24179-.40367l.20139.03731q-.093.352-.14294.62377-.04818.25936-.093.65288l-.20143-.03732a1.13366,1.13366,0,0,0-.04775-.47558.723.723,0,0,0-.37049-.12871L58.632,5.28742,58.38113,6.6439l.966.17867a.76223.76223,0,0,0,.21709.02.39863.39863,0,0,0,.1759-.08289,3.01,3.01,0,0,0,.44209-.45061l.2138.03952q-.21489.37215-.48082.90286-.82241-.1803-1.7253-.34686-.41045-.07574-1.15066-.185l.03346-.17948a1.79271,1.79271,0,0,0,.48245-.03128Q57.64566,6.46774,57.6874,6.24214ZM53.64617,2.78163q.68333.10743.8919.132.2799.03294.83234.07025l-.02113.1814a1.43713,1.43713,0,0,0-.36007.06751.10856.10856,0,0,0-.05322.08315.48418.48418,0,0,0,.01919.154l.45175,1.955.60372-1.202.326-.6806a.23518.23518,0,0,0,.01756-.06255.10374.10374,0,0,0-.05326-.09826q-.014-.009-.3189-.1416l.02113-.18166q.394.07368.61721.09988.20376.0239.59686.04282l-.02113.1814a1.008,1.008,0,0,0-.33973.07711.2766.2766,0,0,0-.0955.09166q-.04527.06583-.61034,1.11088-.39762.73932-.994,1.89959l-.22062-.0258-.5258-2.06342q-.30544-1.13-.35237-1.23739a.27323.27323,0,0,0-.07025-.10018,1.49437,1.49437,0,0,0-.36279-.17177Zm-2.47806,3.1762q.3894-.0461.42728-.05816a.18629.18629,0,0,0,.09054-.05845.49469.49469,0,0,0,.05492-.22917q.03205-.40875.09739-1.3927l.05243-.89792.00493-.07382a.3873.3873,0,0,0-.0398-.258.93881.93881,0,0,0-.37483-.13638c-.02417-.0066-.05929-.0162-.10457-.0291l.01233-.1825q.63148.06918.94732.09029.33758.02264.9092.03322l-.01237.18248L53.141,2.954a.91215.91215,0,0,0-.39985.07245.30789.30789,0,0,0-.08067.22475l-.00576.08863-.05983.826-.06037.94429-.02936.48107a.98546.98546,0,0,0,.003.26758.14982.14982,0,0,0,.06752.08615,1.38376,1.38376,0,0,0,.35866.11554l.09031.02087-.0121.1825q-.50384-.06093-.8883-.08645-.36471-.02432-.96818-.03706Zm-4.25417-.09714.11635-.02031A1.01931,1.01931,0,0,0,47.37,5.75916a.15033.15033,0,0,0,.05049-.07738q.01564-.05022.04312-.7341.04155-.99.0524-1.699a1.083,1.083,0,0,0-.02141-.30406.20112.20112,0,0,0-.09111-.10512,1.44493,1.44493,0,0,0-.337-.09139c-.028-.00549-.06916-.01425-.12322-.02662l.00276-.18277q.33793.03214.62924.0365.29393.00453.69211-.017.29514.41,1.77937,2.26731l.01043-1.34386a2.93235,2.93235,0,0,0-.03019-.5475.18676.18676,0,0,0-.084-.08781,2.10676,2.10676,0,0,0-.41629-.08671l.00273-.18276q.39723.03333.69348.03785.2865.00414.73162-.01647l-.00276.18277c-.05132.00908-.08915.0151-.11387.01813a.84555.84555,0,0,0-.34988.09219.33389.33389,0,0,0-.06972.21791q-.03.345-.04612,1.42207-.00986.69157.00386,1.58125a2.30931,2.30931,0,0,0-.23109.07794l-.91821-1.19431L47.825,3.23855,47.8149,4.41173l.003,1.14161a.51169.51169,0,0,0,.02194.1619.13018.13018,0,0,0,.04888.05379,1.58212,1.58212,0,0,0,.34933.09166c.02277.00385.05735.011.10346.02142l-.00275.18277q-.42439-.03378-.68113-.03733-.21981-.00331-.74646.0159ZM43.46286,2.74841q.34763-.01977.91319-.07986l.01043.18251a2.38494,2.38494,0,0,0-.44775.12706.138.138,0,0,0-.07478.07629,1.21125,1.21125,0,0,0-.006.32657l.07273,1.26236a2.63548,2.63548,0,0,0,.09262.66027.68462.68462,0,0,0,.2876.357,1.18634,1.18634,0,0,0,1.15521-.08754.72754.72754,0,0,0,.23543-.44018,4.80878,4.80878,0,0,0,.006-.90837q-.00865-.14775-.06777-.83206a2.29212,2.29212,0,0,0-.06284-.444.11885.11885,0,0,0-.05516-.059,1.28861,1.28861,0,0,0-.3252-.06533c-.022-.00355-.05434-.00849-.0977-.014l-.01042-.18275q.522-.00248.73875-.01511.25688-.01479.66906-.06585l.01043.1825a1.70783,1.70783,0,0,0-.42756.13611.17468.17468,0,0,0-.06422.12734q-.014.13914.04279,1.2566.03214.64131.01649.84248a1.38968,1.38968,0,0,1-.109.45307,1.07075,1.07075,0,0,1-.25273.33234,1.16029,1.16029,0,0,1-.38365.23465,2.10331,2.10331,0,0,1-.60648.12155,2.00184,2.00184,0,0,1-.882-.10865.93864.93864,0,0,1-.47394-.39079,1.75934,1.75934,0,0,1-.17028-.74589l-.08781-1.52391a1.35531,1.35531,0,0,0-.05091-.36773.14539.14539,0,0,0-.08192-.06969,3.39654,3.39654,0,0,0-.42826-.06916l-.01043-.18277Q43.11519,2.7687,43.46286,2.74841ZM37.26233,3.96057a1.88993,1.88993,0,0,1,1.295-.73247,1.76356,1.76356,0,0,1,1.35361.25412,1.67425,1.67425,0,0,1,.66288,1.15617,2.16428,2.16428,0,0,1-.0395.92235,1.7428,1.7428,0,0,1-.28528.59909,1.68529,1.68529,0,0,1-.41468.40176,2.122,2.122,0,0,1-.83328.29693,1.76955,1.76955,0,0,1-1.36857-.253,1.76566,1.76566,0,0,1-.667-1.21405A1.8416,1.8416,0,0,1,37.26233,3.96057Zm-2.37325.0719q.76815-.18689,1.10142-.27992a8.61124,8.61124,0,0,0,.30859.99617l-.22364.05213q-.28444-.46887-.33756-.52743A.21619.21619,0,0,0,35.611,4.2026a1.836,1.836,0,0,0-.43456.07244l-.23325.05436.52444,2.247a2.45662,2.45662,0,0,0,.1468.49834.12863.12863,0,0,0,.088.05653,2.9095,2.9095,0,0,0,.45884-.00657l.0416.17783q-.73994.14487-.94913.19373-.284.06589-.86223.22917l-.04159-.17811a2.38947,2.38947,0,0,0,.43237-.21242.14394.14394,0,0,0,.04556-.10319,3.53857,3.53857,0,0,0-.09964-.50824l-.5188-2.22284-.40406.09439a.72082.72082,0,0,0-.26278.09687.26368.26368,0,0,0-.08082.14821,4.3187,4.3187,0,0,0-.0564.584l-.21885.051q-.04158-.36306-.06355-.5-.02179-.13708-.10071-.52963Q33.98085,4.24992,34.88908,4.03247ZM29.50866,5.52508q.33261-.10332.86694-.2983l.05431.17451a2.37208,2.37208,0,0,0-.40395.23164.13724.13724,0,0,0-.05418.09191,1.21893,1.21893,0,0,0,.07352.31861l.376,1.2075a2.63756,2.63756,0,0,0,.2493.61829.68641.68641,0,0,0,.36552.27688,1.18607,1.18607,0,0,0,1.09978-.36444A.72754.72754,0,0,0,32.258,7.2976a4.82282,4.82282,0,0,0-.2139-.88312q-.04428-.14159-.267-.79116a2.31036,2.31036,0,0,0-.16838-.41575.116.116,0,0,0-.06778-.04338,1.258,1.258,0,0,0-.33161.01482c-.022.00194-.0545.00523-.09786.00989l-.05431-.17453q.50569-.12846.7132-.19349.24536-.07613.63338-.22556l.05435.17453a1.70474,1.70474,0,0,0-.382.23519.176.176,0,0,0-.0317.13941q.01979.13829.34551,1.20911.18606.61458.21956.81367a1.387,1.387,0,0,1,.004.46572,1.064,1.064,0,0,1-.16493.38393,1.16175,1.16175,0,0,1-.31544.32053,2.11368,2.11368,0,0,1-.55915.26482,2.00018,2.00018,0,0,1-.88228.10758.93908.93908,0,0,1-.5545-.26455,1.75934,1.75934,0,0,1-.34574-.6825l-.45378-1.4575a1.35468,1.35468,0,0,0-.13833-.345.14369.14369,0,0,0-.09629-.04746,3.29143,3.29143,0,0,0-.43238.03623l-.05433-.17454Q29.17624,5.62881,29.50866,5.52508Zm-2.53159.91053q.73272-.29758,1.04914-.43879a8.54163,8.54163,0,0,0,.45155.94019l-.21376.08452q-.35034-.42237-.41152-.47258a.21275.21275,0,0,0-.136-.051,1.80964,1.80964,0,0,0-.41948.13528l-.223.08809.84924,2.14686a2.45606,2.45606,0,0,0,.21856.47174.12909.12909,0,0,0,.09552.04336,2.99909,2.99909,0,0,0,.45308-.07411l.06722.16989q-.71088.25189-.911.33123-.27125.107-.81957.35344l-.06722-.17014a2.37452,2.37452,0,0,0,.39655-.27388.14416.14416,0,0,0,.02993-.109,3.5607,3.5607,0,0,0-.1732-.4882l-.84014-2.1238-.38612.15288a.71685.71685,0,0,0-.24575.13447.26325.26325,0,0,0-.0582.1586,4.31115,4.31115,0,0,0,.02993.58619l-.20913.08288q-.09468-.35362-.13637-.48574-.04155-.13257-.17744-.50933Q26.11005,6.784,26.97707,6.43561Zm-3.1566,1.34607q.30729-.14241.81382-.40725l.077.16577-.0778.04993a.9131.9131,0,0,0-.31614.2555.30806.30806,0,0,0,.03732.236l.03746.08069.34386.7533.40067.85786.205.43635a.97849.97849,0,0,0,.13132.23327.14884.14884,0,0,0,.10057.04334,1.3947,1.3947,0,0,0,.37036-.07078l.08915-.02525.077.16628q-.47133.18854-.82095.35074-.332.15393-.86774.43222l-.077-.166q.3198-.22722.34713-.25631a.18472.18472,0,0,0,.05146-.0947.49406.49406,0,0,0-.06188-.22748q-.16817-.3738-.58316-1.269l-.38516-.8134-.03129-.06722q-.08315-.17908-.15877-.20693a.93342.93342,0,0,0-.3942.06011q-.03684.00906-.10594.0247l-.077-.166Q23.53345,7.91494,23.82047,7.78168ZM21.40206,8.97545q.692-.382.98945-.55875a8.65919,8.65919,0,0,0,.5586.87983l-.2021.10921q-.39747-.37787-.46392-.42041a.21427.21427,0,0,0-.1408-.03513,1.81129,1.81129,0,0,0-.40052.18385l-.21076.11362,1.09472,2.03023a2.45464,2.45464,0,0,0,.27208.44265.12979.12979,0,0,0,.09975.03156,2.96073,2.96073,0,0,0,.441-.12679l.08672.1608q-.6761.33384-.86512.43579-.25668.13833-.772.44678l-.08672-.16083a2.37665,2.37665,0,0,0,.36158-.31833.14391.14391,0,0,0,.01686-.1117,3.55952,3.55952,0,0,0-.22913-.464L20.86887,9.605l-.36526.197a.723.723,0,0,0-.22819.1622.26321.26321,0,0,0-.0391.16409,4.31324,4.31324,0,0,0,.09851.57824L20.137,10.813q-.13523-.33919-.19223-.46572-.05684-.12638-.23586-.48464Q20.58278,9.42264,21.40206,8.97545Zm-3.96585,2.581a1.41054,1.41054,0,0,1,.65546-.77253,2.94825,2.94825,0,0,1,.85443-.35509q.19611.33507.277.46184.09429.14778.21572.31067l-.20815.13282a1.19586,1.19586,0,0,0-.55009-.40313.61577.61577,0,0,0-.466.10538.55944.55944,0,0,0-.26306.32437.44048.44048,0,0,0,.06163.3606.48765.48765,0,0,0,.2883.20856,2.01668,2.01668,0,0,0,.72516-.02032,1.83065,1.83065,0,0,1,.83109.02636.971.971,0,0,1,.49657.41549,1.06812,1.06812,0,0,1,.13694.83671,1.48192,1.48192,0,0,1-.7308.86307,3.02764,3.02764,0,0,1-.44594.23765,2.89381,2.89381,0,0,1-.43785.14463q-.19839-.389-.42548-.74506l-.08906-.1394.204-.1301a1.55977,1.55977,0,0,0,.549.429.62892.62892,0,0,0,.55393-.087.57232.57232,0,0,0,.27016-.35675.53383.53383,0,0,0-.08053-.42017.5513.5513,0,0,0-.20143-.19373.68277.68277,0,0,0-.27993-.0763,2.9733,2.9733,0,0,0-.53351.03869,1.96025,1.96025,0,0,1-.84741-.0247.84334.84334,0,0,1-.43828-.3562A.96433.96433,0,0,1,17.43621,11.55644Zm-3.712,2.477q.233-.17948.53129-.44345.48615.13748,2.80327.66958l-.82738-1.05874a2.87774,2.87774,0,0,0-.36406-.41025.18612.18612,0,0,0-.12032-.01647,2.061,2.061,0,0,0-.37969.191l-.11153-.14491q.33177-.22105.56669-.40176.227-.17495.56285-.46761l.11142.14488c-.03446.039-.0604.06725-.078.08507a.83363.83363,0,0,0-.21652.2898.33168.33168,0,0,0,.08058.21378q.19118.28941.8481,1.14246.42172.54828.98572,1.23629a2.366,2.366,0,0,0-.13227.20472l-1.46213-.36473-2.19048-.5052.72147.92509.71173.89244a.51545.51545,0,0,0,.11814.11305.13687.13687,0,0,0,.07162.01209,1.61864,1.61864,0,0,0,.33067-.14546q.03048-.01727.09442-.04774l.11143.14488q-.3532.23754-.55683.39435-.17434.13378-.57465.47641l-.11141-.1449.07848-.08835a1.01723,1.01723,0,0,0,.21543-.275.14888.14888,0,0,0-.00837-.09164q-.01914-.049-.42276-.60182-.58247-.8019-1.015-1.36337a1.06844,1.06844,0,0,0-.20595-.225.19943.19943,0,0,0-.13667-.0258,1.45559,1.45559,0,0,0-.3208.138c-.02511.01317-.06287.03156-.11293.05573l-.11157-.1449Q13.4931,14.21111,13.72416,14.0334Zm-1.54091,1.373q.249-.22887.65067-.63449l.1235.13448-.059.07079a.91038.91038,0,0,0-.2231.33919.30759.30759,0,0,0,.107.21323l.0601.06559.55572.61224.64132.69458.32741.35293a.97612.97612,0,0,0,.19566.1822.15115.15115,0,0,0,.10881.011,1.41355,1.41355,0,0,0,.33081-.18l.0774-.05106.1235.13475q-.39109.32233-.67468.58262-.269.24739-.69444.67453l-.12348-.13447q.23526-.31323.25246-.34907a.18548.18548,0,0,0,.02032-.10592.49428.49428,0,0,0-.1279-.19758q-.27351-.30505-.93964-1.03048l-.61334-.6567-.05-.05463c-.08918-.09687-.16024-.14654-.21379-.149a.93344.93344,0,0,0-.357.177c-.02139.01317-.05256.03156-.09317.05573l-.12365-.13475Q11.95054,15.6203,12.18325,15.40638ZM4.02782,36.66955a.843.843,0,1,1,.843-.843A.843.843,0,0,1,4.02782,36.66955ZM13.51726,57.353a2.19775,2.19775,0,0,1-.92733-.48792q-.04364-.03625-.34219-.30681-.29886-.27-.33645-.30134-.133-.11113-.7072-.5516l.11718-.1405.09221.05159a1.09207,1.09207,0,0,0,.359.16136.21716.21716,0,0,0,.14353-.07025q.10123-.10209.96982-1.14215.63723-.764.70283-.87323a.188.188,0,0,0,.03346-.13611,1.30345,1.30345,0,0,0-.225-.31614l-.06531-.084.11718-.14q.424.38941.71214.63008.21984.1836.618.49617.29022.22639.47969.38419a1.879,1.879,0,0,1,.48905.5626,1.28463,1.28463,0,0,1,.13061.76179,1.61845,1.61845,0,0,1-.39739.80958,2.029,2.029,0,0,1-.89516.6372A1.92061,1.92061,0,0,1,13.51726,57.353ZM17.385,60.37553q-.68457-.49069-1.44788-1.00167-.3466-.23132-.98326-.62515l.10152-.152a1.79,1.79,0,0,0,.45584.16244q.09918-.00165.22694-.19263l.04665-.06972.54747-.80955.43965-.657.20115-.30518a1.13638,1.13638,0,0,0,.16-.28759.20105.20105,0,0,0-.031-.1427,2.01175,2.01175,0,0,0-.30161-.30571l.10155-.152q.47794.35562,1.05847.74423.67306.45036,1.4037.90343a7.23359,7.23359,0,0,0-.45008.78321l-.17425-.11692c.0129-.05432.0236-.096.03237-.12349a1.19362,1.19362,0,0,0,.07-.44622q-.026-.08559-.22693-.22064l-.78378-.52416q-.24866.33593-.69458.99345l.354.24312a.78188.78188,0,0,0,.38008.17564,1.01931,1.01931,0,0,0,.38173-.275l.17014.11414q-.22432.2865-.37816.51594-.147.21983-.34413.56313l-.17015-.11418a1.13687,1.13687,0,0,0,.14461-.45555q-.02057-.08478-.28921-.26508l-.40206-.269-.76759,1.14713.81672.54609a.77548.77548,0,0,0,.19129.10485.39287.39287,0,0,0,.19453-.00661,3.02665,3.02665,0,0,0,.58455-.23875l.18057.12075Q17.83974,59.99351,17.385,60.37553Zm2.96354,1.33864a.94489.94489,0,0,0,.27362.11746.537.537,0,0,0,.24365-.03732,4.57023,4.57023,0,0,0,.53294-.281l.1943.10758q-.36555.31943-.76756.72066-.90519-.531-1.51458-.86774-.49971-.27579-1.05047-.54887l.08834-.16027a2.5279,2.5279,0,0,0,.48078.13065.16809.16809,0,0,0,.10652-.078q.05184-.07162.582-1.03129l.43222-.78759.07659-.13831a2.24777,2.24777,0,0,0,.20553-.42813.134.134,0,0,0-.01975-.10538,3.75984,3.75984,0,0,0-.34689-.30844l.08838-.16026q.54011.32928.84908.5.31574.17451.854.44072l-.08835.16026a4.55212,4.55212,0,0,0-.53184-.18112c-.0568.00057-.11306.05159-.16879.152l-.3131.55217-.99343,1.798Zm7.34559.1943a.154.154,0,0,0-.05873.04226,2.91308,2.91308,0,0,0-.22119.46215q-.26344.629-.34164.82107-.32028.78132-.46051,1.15645a.26213.26213,0,0,0-.0137.19593.99554.99554,0,0,0,.317.24316l.08344.05049-.06917.169q-.47219-.22311-.84908-.37759-.37254-.15234-.87431-.32877l.0694-.169.41577.07956a.18525.18525,0,0,0,.12569-.02963.528.528,0,0,0,.11524-.19977l.41962-1.005-.62487-.26674q-.04362-.01727-.65259-.25687-.38118.93607-.444,1.12352a.21833.21833,0,0,0-.00108.16741.98818.98818,0,0,0,.31008.231c.01976.01207.05051.03073.09168.05653l-.06945.16906q-.49684-.233-.8993-.39792-.41367-.16962-.82381-.3079l.06915-.16907q.34084.06753.41629.07135a.17681.17681,0,0,0,.12434-.03293.54919.54919,0,0,0,.11718-.20416l.374-.88749q.28568-.69732.48107-1.19378a.83293.83293,0,0,0,.08562-.32.15416.15416,0,0,0-.04663-.09111,3.35257,3.35257,0,0,0-.362-.247l.06941-.169q.403.19431.83071.36938.44538.18276.89244.33646l-.06916.169a3.16381,3.16381,0,0,0-.44292-.08121.16768.16768,0,0,0-.118.04665,1.34138,1.34138,0,0,0-.16082.32381l-.062.15863-.24314.58616q.32028.14493.69046.29585.33341.13667.58729.22776l.32765-.81338a.92084.92084,0,0,0,.08617-.28212.178.178,0,0,0-.062-.12184,3.30221,3.30221,0,0,0-.35813-.23985L26.535,61.1q.4306.20583.80078.35731.34742.14243.92206.3485l-.06916.16907-.39516-.07136A.21265.21265,0,0,0,27.69415,61.90847Zm4.08922,2.73935a2.16429,2.16429,0,0,1-.44755.80625,1.75007,1.75007,0,0,1-.5231.40725,1.687,1.687,0,0,1-.54993.17344,2.1255,2.1255,0,0,1-.8765-.10811,1.61742,1.61742,0,0,1-1.16142-2.22012,1.83847,1.83847,0,0,1,.90453-1.14491,1.8889,1.8889,0,0,1,1.48438-.07466,1.75907,1.75907,0,0,1,1.095.83208A1.67287,1.67287,0,0,1,31.78337,64.64782Zm3.22318-.26018q-.04119.17127-.07411.371l-.24012-.05763a1.2004,1.2004,0,0,0-.09085-.67674.6154.6154,0,0,0-.399-.2629.5632.5632,0,0,0-.41656.03568.44108.44108,0,0,0-.21709.29418.48769.48769,0,0,0,.04968.35293,2.02587,2.02587,0,0,0,.51757.50877,1.83321,1.83321,0,0,1,.55737.61692.97391.97391,0,0,1,.04473.64655,1.07032,1.07032,0,0,1-.50824.67893,1.4837,1.4837,0,0,1-1.129.07135,3.085,3.085,0,0,1-.48079-.15642,2.89453,2.89453,0,0,1-.4078-.2157q.14243-.41247.242-.82329l.0387-.16079.23517.05706a1.56191,1.56191,0,0,0,.07164.6932.63.63,0,0,0,.44678.3392.57594.57594,0,0,0,.44483-.05269.53457.53457,0,0,0,.247-.34961.55649.55649,0,0,0,0-.27938.67441.67441,0,0,0-.13941-.25467,2.97676,2.97676,0,0,0-.39737-.35783,1.96163,1.96163,0,0,1-.57026-.62846.84425.84425,0,0,1-.04719-.56256.96543.96543,0,0,1,.50329-.6537,1.41282,1.41282,0,0,1,1.01153-.0631,2.95165,2.95165,0,0,1,.84853.36991Q35.04222,64.24165,35.00655,64.38764Zm3.53871.94678a1.04183,1.04183,0,0,1-.46184.71846,1.24089,1.24089,0,0,1-.933.146,2.85028,2.85028,0,0,1-.42318-.11965q-.11324.65289-.13171.75469l-.0346.17674a.57515.57515,0,0,0-.01209.28705c.03293.05926.1751.12788.42758.2058.02854.00823.07133.022.12788.04061l-.03238.18q-.69073-.15313-.99948-.20913-.35729-.065-.91657-.13885l.03293-.18a1.74357,1.74357,0,0,0,.4992-.03238.24171.24171,0,0,0,.08915-.152q.03134-.11688.25635-1.31449l.13114-.73713a5.18933,5.18933,0,0,0,.078-.5258.17166.17166,0,0,0-.04283-.12348,1.295,1.295,0,0,0-.34686-.16577c-.0236-.00767-.05819-.02086-.10318-.03895l.03238-.18q.66854.149,1.05051.21846l.81914.1361a1.75587,1.75587,0,0,1,.56177.18223.69163.69163,0,0,1,.29145.34688A.93145.93145,0,0,1,38.54526,65.33442Zm2.44216-.39242-.09224.00053a.90465.90465,0,0,0-.40339.04666.30737.30737,0,0,0-.095.219l-.01153.08782-.11279.82-.121.938-.06035.47749a.98406.98406,0,0,0-.014.26731.14968.14968,0,0,0,.06173.09054,1.41942,1.41942,0,0,0,.35018.13832l.0889.02636-.02413.1811q-.49811-.093-.88007-.14325-.36269-.04771-.96355-.09934l.02417-.18112q.391-.02057.42975-.03074a.181.181,0,0,0,.09411-.05212.49578.49578,0,0,0,.06945-.225q.05845-.40588.18714-1.38311l.10977-.89189.00961-.07353a.38311.38311,0,0,0-.023-.25963.94166.94166,0,0,0-.365-.16026c-.02387-.00767-.0579-.01976-.10236-.03566l.02388-.18112q.62567.10947.93909.15093.33549.04443.90451.09164Zm3.54888,1.174-.22887-.01812q-.128-.53347-.16084-.60538a.21268.21268,0,0,0-.09877-.10593,1.83612,1.83612,0,0,0-.43579-.06367l-.23876-.01919-.18553,2.29913a2.46034,2.46034,0,0,0-.01233.51924.1302.1302,0,0,0,.06669.08068,2.98388,2.98388,0,0,0,.43881.13337l-.01453.1822q-.7488-.08809-.96271-.10481-.29064-.02391-.89077-.045l.0148-.18167a2.35172,2.35172,0,0,0,.47641-.07078.142.142,0,0,0,.07462-.08454,3.51091,3.51091,0,0,0,.06039-.51371l.18332-2.27447-.41329-.03347a.72667.72667,0,0,0-.27991.01208.26265.26265,0,0,0-.12214.1169,4.29032,4.29032,0,0,0-.23186.53843l-.22394-.01813q.07117-.35813.0922-.4956.02057-.13668.0653-.5346.97232.10623,1.90344.17564.78789.05682,1.13394.06915A8.55537,8.55537,0,0,0,44.5363,66.116Zm4.20806,2.55273q-.43633-.03378-.812-.04008-.37045-.00576-.92673.01262l.003-.18276a1.2909,1.2909,0,0,0,.34715-.08341.10969.10969,0,0,0,.04828-.09276.25307.25307,0,0,0-.01342-.07958q-.0379-.10458-.247-.62625-.34824-.01318-.5804-.017c-.1268-.00163-.33836-.00272-.63476-.00219a5.29292,5.29292,0,0,0-.28542.70419.10012.10012,0,0,0,.03816.08835,1.57434,1.57434,0,0,0,.34933.09331l-.003.18277q-.31038-.03208-.59469-.03676-.30629-.00494-.62267.01756l.00272-.18276a.88883.88883,0,0,0,.30791-.10154.37214.37214,0,0,0,.10567-.11693q.09879-.15395.59467-1.19593.31408-.65948.89792-1.95229l.2001.00329q.2202.58371.91657,2.18116.38612.88748.46323,1.00988a.38894.38894,0,0,0,.10675.12075,1.75114,1.75114,0,0,0,.34166.11363Zm3.47808-.168q-1.04886.02634-1.74424.06092-.56974.02885-1.18224.08729l-.00931-.18277a2.49322,2.49322,0,0,0,.47721-.1427.16659.16659,0,0,0,.04969-.12242q.00655-.08808-.04888-1.18278l-.04774-.89736-.008-.15754a2.2524,2.2524,0,0,0-.05106-.472.1345.1345,0,0,0-.07216-.07958,3.85588,3.85588,0,0,0-.45718-.079L49.11925,65.15q.63228-.00411.98518-.0225.35974-.01809.95775-.07573l.009.18277a4.8021,4.8021,0,0,0-.54747.12622c-.04775.03075-.06861.1032-.06312.21845l.0247.63392.10372,2.05164.89739-.04556a.9474.9474,0,0,0,.29444-.04445.52953.52953,0,0,0,.1872-.16027,4.46828,4.46828,0,0,0,.30487-.51978l.22174-.011Q52.35306,67.948,52.22244,68.50076Zm3.47536-.3831q-.36226.0453-.95638.14764l-.02279-.18112q.373-.11939.40781-.13831a.18419.18419,0,0,0,.07767-.07465.50036.50036,0,0,0,.01015-.23489q-.04692-.40752-.16987-1.38421l-.11992-.89026-.00932-.07353a.38327.38327,0,0,0-.08781-.24479.92736.92736,0,0,0-.39355-.06259c-.02526-.00162-.06092-.00439-.10812-.00876l-.02306-.18112q.63309-.0519.94625-.09166.335-.04284.89736-.14107l.023.18114-.08891.02413a.9059.9059,0,0,0-.37816.14709.30675.30675,0,0,0-.03623.236l.011.08781.09881.82109.12071.93742.06286.477a.97947.97947,0,0,0,.05406.26178.15157.15157,0,0,0,.08231.07192,1.39833,1.39833,0,0,0,.37407.04446c.02.0011.05075.00219.09248.00329l.02276.18111Q56.07951,68.06963,55.6978,68.11766Zm3.98278-3.10487q-.25894-.48327-.30876-.54447a.2105.2105,0,0,0-.12266-.07738,1.80247,1.80247,0,0,0-.43771.04886l-.23575.04171.40315,2.27061a2.47393,2.47393,0,0,0,.11965.50548.12805.12805,0,0,0,.08478.06147,2.88428,2.88428,0,0,0,.45859.01757l.03185.18q-.74636.10537-.95778.1427-.28731.051-.87294.1822l-.03213-.17945a2.372,2.372,0,0,0,.44295-.18938.14224.14224,0,0,0,.05106-.10044,3.54446,3.54446,0,0,0-.07192-.51261l-.399-2.24648-.40833.07247a.71561.71561,0,0,0-.26731.08287.26213.26213,0,0,0-.08891.14324,4.38122,4.38122,0,0,0-.08756.58014l-.22119.039q-.0222-.36474-.03646-.50276-.01485-.13749-.07221-.53347.96735-.14408,1.8856-.31232.77635-.14572,1.11445-.22062a8.56576,8.56576,0,0,0,.25469,1.011Zm4.14576,1.528q-.35934.08809-.89244.24755l-.04336-.1773a1.28725,1.28725,0,0,0,.31422-.169.10992.10992,0,0,0,.02332-.10208.24881.24881,0,0,0-.03349-.073q-.06334-.09138-.39792-.5428-.34.07575-.565.13118-.18483.04608-.61444.15916a5.33437,5.33437,0,0,0-.0966.75356.09931.09931,0,0,0,.05929.07521,1.573,1.573,0,0,0,.36141.00163l.04363.17728q-.30876.04778-.584.11581-.29759.07328-.59768.1751l-.04393-.17729a.89938.89938,0,0,0,.27225-.17617.37721.37721,0,0,0,.07217-.14q.0564-.17454.2703-1.30736.13627-.71707.37186-2.11473l.194-.04832q.3614.50879,1.4402,1.87544.59934.75992.70473.8584a.38822.38822,0,0,0,.13392.08892,1.7234,1.7234,0,0,0,.35893.0236l.04393.1773Q64.19064,66.451,63.82634,66.5408ZM67.957,65.30974q-1.00728.29553-1.66961.50877-.54339.17535-1.11968.38915l-.056-.174a2.51168,2.51168,0,0,0,.42427-.26126.16585.16585,0,0,0,.01591-.13062q-.01608-.08726-.35181-1.1301l-.27772-.85456-.0483-.15039a2.208,2.208,0,0,0-.17126-.44291.13186.13186,0,0,0-.09-.05763,3.60835,3.60835,0,0,0-.46212.0406l-.056-.17344q.60963-.16794.94567-.27607.3429-.11032.90561-.32l.056.174a4.69282,4.69282,0,0,0-.49615.26345c-.03846.0417-.04009.11746-.00443.22666l.18716.60649.62928,1.955.85541-.27552a.95237.95237,0,0,0,.27278-.11857.53484.53484,0,0,0,.13937-.20306,4.49912,4.49912,0,0,0,.16083-.58069l.21131-.06806Q67.94029,64.742,67.957,65.30974Zm1.75908-.68444q-.34168.13092-.89463.37159l-.06531-.1707q.33421-.205.36332-.23216a.18246.18246,0,0,0,.05792-.09058.4937.4937,0,0,0-.04583-.231q-.14242-.3845-.49453-1.30519l-.32794-.837-.0266-.06915c-.04666-.12294-.095-.19539-.1438-.21733a.927.927,0,0,0-.39739.03293c-.0247.00439-.06036.00986-.107.017L67.569,61.723q.60259-.20091.89791-.314.31614-.121.8392-.35017l.06531.17069-.08121.04393a.9165.9165,0,0,0-.33262.23326.308.308,0,0,0,.02114.23766l.03155.08287.29116.775.34057.88256.17424.449a.96337.96337,0,0,0,.115.24148.15029.15029,0,0,0,.09715.05049,1.41343,1.41343,0,0,0,.374-.04555c.01948-.00383.04967-.01043.09083-.01867l.0653.1707Q70.07574,64.48783,69.71609,64.6253Zm4.18721-1.79366q-.33674.154-.831.40891l-.076-.1663a1.27483,1.27483,0,0,0,.27745-.224.10931.10931,0,0,0,.00386-.10481.239.239,0,0,0-.04612-.06587q-.079-.07822-.49177-.45994-.32024.13832-.53128.23435-.17289.079-.57437.27a5.30842,5.30842,0,0,0,.04474.7585.10143.10143,0,0,0,.07244.06369,1.60016,1.60016,0,0,0,.35509-.06588l.076.16632q-.29429.10452-.55269.22173-.27866.12762-.55515.28321l-.07576-.1663a.89532.89532,0,0,0,.23465-.22395.37192.37192,0,0,0,.04526-.15039q.02308-.18194.02333-1.33534.00043-.73026-.02713-2.14822l.1822-.08289q.44951.43223,1.76374,1.57578.72984.63636.85183.71349a.38405.38405,0,0,0,.14791.06259,1.72641,1.72641,0,0,0,.35756-.04336l.076.1663Q74.24495,62.67578,73.9033,62.83164Zm4.19655-2.1213-1.39849-.5637-2.10156-.80352.58726,1.017.58207.98245a.49417.49417,0,0,0,.10153.12841.1356.1356,0,0,0,.06944.022,1.59745,1.59745,0,0,0,.34769-.09824c.02169-.00877.05517-.01976.10018-.034l.09054.15864q-.38319.18685-.60648.31394-.19141.10868-.63528.393l-.09029-.15916c.0395-.03347.06916-.05926.08972-.07683a1.01077,1.01077,0,0,0,.25165-.24259.15042.15042,0,0,0,.00441-.09221q-.01236-.051-.33588-.65478-.46686-.87517-.81781-1.49179a1.06158,1.06158,0,0,0-.17289-.25139.20008.20008,0,0,0-.13173-.04391,1.45,1.45,0,0,0-.337.09221c-.02689.00933-.067.0225-.11965.03952l-.09057-.15917q.30793-.14325.56093-.28813.25607-.14493.58838-.36611.46266.20335,2.68582,1.05108l-.67373-1.16359a2.91043,2.91043,0,0,0-.30405-.45665.1854.1854,0,0,0-.11691-.03293,2.0758,2.0758,0,0,0-.40286.13668l-.09057-.15916q.359-.17292.61694-.32.24946-.1416.62266-.38531l.09029.15862c-.03954.034-.06916.05873-.0889.07356a.84393.84393,0,0,0-.25468.25742.33128.33128,0,0,0,.05049.22283q.14943.31366.68277,1.24972.34208.60185.806,1.36171A2.28734,2.28734,0,0,0,78.09985,60.71034Zm3.67265-3.10489a1.68648,1.68648,0,0,1-.19292.54393,2.13672,2.13672,0,0,1-.61471.63556,1.61934,1.61934,0,0,1-2.47424-.41053,1.84125,1.84125,0,0,1-.3691-1.4133,1.88919,1.88919,0,0,1,.8348-1.23053,1.76033,1.76033,0,0,1,1.32519-.37324,1.67222,1.67222,0,0,1,1.1065.741,2.161,2.161,0,0,1,.37406.84357A1.74206,1.74206,0,0,1,81.7725,57.60545ZM48.05331,63.08478c-22.10649,0-40.09163-12.3119-40.09163-27.44546S25.94682,8.19357,48.05331,8.19357c22.10621,0,40.09107,12.31218,40.09107,27.44575S70.15952,63.08478,48.05331,63.08478Zm43.7443-26.69624a.843.843,0,1,1,.843-.843A.84319.84319,0,0,1,91.79761,36.38854Z"/><path class="cls-1" d="M78.53919,12.96451a.83532.83532,0,0,0,.56616-.80378.54916.54916,0,0,0-.25246-.37734q-.08976-.06177-.24179-.146l-.73243,1.06422q.09839.07449.14735.10811A.69465.69465,0,0,0,78.53919,12.96451Z"/><path class="cls-1" d="M80.79419,56.73773a3.56962,3.56962,0,0,0-.45118-.522,1.61391,1.61391,0,0,0-.441-.31667.87534.87534,0,0,0-.41572-.07026.85112.85112,0,0,0-.43308.169.8775.8775,0,0,0-.33094.438.98554.98554,0,0,0,.01921.62022,2.56333,2.56333,0,0,0,.36745.7135,2.16471,2.16471,0,0,0,1.03267.8864.82288.82288,0,0,0,.74866-.14545.84878.84878,0,0,0,.33423-.43577.96766.96766,0,0,0-.03842-.60486A2.88187,2.88187,0,0,0,80.79419,56.73773Z"/><path class="cls-1" d="M71.6217,62.41727l.44594-.20035q.15933-.07324.45749-.21131L71.59757,61.15Z"/><path class="cls-1" d="M37.2766,64.50621a1.63494,1.63494,0,0,0-.25959-.02195l-.23989,1.32054q.14573.04115.25275.06093a.57556.57556,0,0,0,.47121-.09278.787.787,0,0,0,.25522-.50657.69516.69516,0,0,0-.06722-.51428A.58943.58943,0,0,0,37.2766,64.50621Z"/><path class="cls-1" d="M30.8539,62.96887a.84453.84453,0,0,0-.39544-.24369.87907.87907,0,0,0-.54831-.00057.981.981,0,0,0-.48327.38861,2.553,2.553,0,0,0-.3474.72229,2.16049,2.16049,0,0,0-.08592,1.3573.8207.8207,0,0,0,.56669.50934.8494.8494,0,0,0,.54831.00494.97062.97062,0,0,0,.45937-.39516,2.88162,2.88162,0,0,0,.34827-.753,3.55759,3.55759,0,0,0,.14461-.674,1.60869,1.60869,0,0,0-.01261-.54225A.86472.86472,0,0,0,30.8539,62.96887Z"/><path class="cls-1" d="M111.43854,20.7378V31.64808H110.0304V20.7378Z"/><path class="cls-1" d="M114.09383,25.934c0-.80924-.016-1.47306-.0647-2.12044h1.26253l.08092,1.295h.03245a2.88092,2.88092,0,0,1,2.59-1.47306c1.08467,0,2.768.64739,2.768,3.3345v4.67815h-1.42438v-4.5163c0-1.26253-.46952-2.31474-1.813-2.31474a2.02357,2.02357,0,0,0-1.91012,1.45682,2.04411,2.04411,0,0,0-.09715.66382v4.7104h-1.42458Z"/><path class="cls-1" d="M122.96584,30.19126a3.73242,3.73242,0,0,0,1.87767.56646c1.03578,0,1.52173-.518,1.52173-1.16538,0-.67984-.40482-1.05221-1.457-1.44081-1.40836-.50176-2.072-1.27875-2.072-2.21758a2.41626,2.41626,0,0,1,2.70313-2.29852,3.90949,3.90949,0,0,1,1.92635.48554l-.35615,1.036a3.04806,3.04806,0,0,0-1.60224-.4533c-.84189,0-1.31141.48575-1.31141,1.06844,0,.64759.46952.93883,1.48949,1.32743,1.35967.518,2.05574,1.19783,2.05574,2.36321,0,1.3759-1.06844,2.34719-2.93009,2.34719a4.4655,4.4655,0,0,1-2.20136-.53422Z"/><path class="cls-1" d="M131.36792,21.56347v2.25h2.03952V24.898h-2.03952v4.22486c0,.97129.27543,1.52173,1.06844,1.52173a3.17145,3.17145,0,0,0,.82546-.09715l.0649,1.06823a3.48681,3.48681,0,0,1-1.26273.1943,1.97368,1.97368,0,0,1-1.53775-.59891,2.90161,2.90161,0,0,1-.55045-2.03952V24.898h-1.214V23.81351h1.214V21.93563Z"/><path class="cls-1" d="M136.67807,21.61194a.88228.88228,0,0,1-1.7645,0,.86794.86794,0,0,1,.89036-.89016A.84542.84542,0,0,1,136.67807,21.61194Zm-1.58643,10.03614V23.81351h1.42458v7.83457Z"/><path class="cls-1" d="M140.6768,21.56347v2.25h2.03952V24.898H140.6768v4.22486c0,.97129.27543,1.52173,1.06844,1.52173a3.17145,3.17145,0,0,0,.82546-.09715l.0649,1.06823a3.48681,3.48681,0,0,1-1.26273.1943,1.97368,1.97368,0,0,1-1.53775-.59891,2.90161,2.90161,0,0,1-.55045-2.03952V24.898h-1.21405V23.81351h1.21405V21.93563Z"/><path class="cls-1" d="M150.95634,29.51142c0,.80923.01623,1.52152.06491,2.13666h-1.26274l-.08071-1.27875h-.03245a2.94767,2.94767,0,0,1-2.59,1.45683c-1.23029,0-2.70355-.67984-2.70355-3.43165v-4.581h1.42458v4.338c0,1.48928.45351,2.493,1.74828,2.493a2.00359,2.00359,0,0,0,2.00706-2.0235V23.81351h1.42458Z"/><path class="cls-1" d="M155.11776,21.56347v2.25h2.03951V24.898h-2.03951v4.22486c0,.97129.27543,1.52173,1.06843,1.52173a3.17145,3.17145,0,0,0,.82546-.09715l.06491,1.06823a3.48688,3.48688,0,0,1-1.26274.1943,1.97368,1.97368,0,0,1-1.53775-.59891,2.90166,2.90166,0,0,1-.55044-2.03952V24.898h-1.21406V23.81351h1.21406V21.93563Z"/><path class="cls-1" d="M165.83457,27.666a3.82887,3.82887,0,0,1-3.901,4.16017,3.725,3.725,0,0,1-3.75576-4.03056,3.82562,3.82562,0,0,1,3.88515-4.16017A3.71,3.71,0,0,1,165.83457,27.666Zm-6.2159.08093c0,1.71582.9873,3.0108,2.37943,3.0108,1.35968,0,2.37986-1.27875,2.37986-3.043,0-1.32743-.664-3.011-2.3474-3.011S159.61867,26.25764,159.61867,27.74692Z"/><path class="cls-1" d="M172.68413,20.7378v6.45888c0,2.44413,1.08425,3.48012,2.54129,3.48012,1.61888,0,2.65486-1.06823,2.65486-3.48012V20.7378h1.42417v6.36173c0,3.35072-1.76409,4.72663-4.12771,4.72663-2.23382,0-3.91719-1.27876-3.91719-4.66193V20.7378Z"/><path class="cls-1" d="M181.78249,25.934c0-.80924-.01623-1.47306-.06449-2.12044h1.26232l.08113,1.295h.03245a2.88016,2.88016,0,0,1,2.59-1.47306c1.08425,0,2.768.64739,2.768,3.3345v4.67815h-1.42459v-4.5163c0-1.26253-.46931-2.31474-1.81318-2.31474a2.02417,2.02417,0,0,0-1.91012,1.45682,2.05582,2.05582,0,0,0-.09694.66382v4.7104h-1.42458Z"/><path class="cls-1" d="M192.43523,21.61194a.88228.88228,0,0,1-1.7645,0,.86794.86794,0,0,1,.89037-.89016A.84542.84542,0,0,1,192.43523,21.61194ZM190.8488,31.64808V23.81351h1.42459v7.83457Z"/><path class="cls-1" d="M195.26817,23.81351l1.53775,4.40293a20.09441,20.09441,0,0,1,.63116,2.00706h.04868c.17807-.64738.40482-1.29477.66361-2.00706l1.52153-4.40293h1.48948l-3.0755,7.83457h-1.35967l-2.97856-7.83457Z"/><path class="cls-1" d="M203.21737,27.98969a2.50962,2.50962,0,0,0,2.6869,2.71956,5.15027,5.15027,0,0,0,2.16891-.40462l.243,1.01976a6.34706,6.34706,0,0,1-2.60618.48554,3.63835,3.63835,0,0,1-3.8527-3.94964c0-2.36341,1.39213-4.22486,3.67462-4.22486,2.55751,0,3.23735,2.25,3.23735,3.69064a5.37527,5.37527,0,0,1-.04826.66362Zm4.176-1.01976a2.02789,2.02789,0,0,0-1.97462-2.31474,2.36121,2.36121,0,0,0-2.18555,2.31474Z"/><path class="cls-1" d="M210.61571,26.25764c0-.92261-.01622-1.71582-.06449-2.44413h1.2461l.04868,1.53775h.0649a2.35056,2.35056,0,0,1,2.16891-1.71583,1.5496,1.5496,0,0,1,.40483.04847v1.34366a2.13618,2.13618,0,0,0-.48554-.04868,1.99771,1.99771,0,0,0-1.91013,1.8292,4.00062,4.00062,0,0,0-.0649.66361v4.17639h-1.40836Z"/><path class="cls-1" d="M215.79647,30.19126a3.73436,3.73436,0,0,0,1.87767.56646c1.036,0,1.52193-.518,1.52193-1.16538,0-.67984-.40482-1.05221-1.457-1.44081-1.40836-.50176-2.072-1.27875-2.072-2.21758a2.41626,2.41626,0,0,1,2.70313-2.29852,3.90949,3.90949,0,0,1,1.92635.48554l-.35615,1.036a3.04806,3.04806,0,0,0-1.60224-.4533c-.8421,0-1.31141.48575-1.31141,1.06844,0,.64759.46931.93883,1.48949,1.32743,1.35967.518,2.05574,1.19783,2.05574,2.36321,0,1.3759-1.06844,2.34719-2.92988,2.34719a4.46782,4.46782,0,0,1-2.20178-.53422Z"/><path class="cls-1" d="M224.06936,21.61194a.88228.88228,0,0,1-1.7645,0,.86794.86794,0,0,1,.89036-.89016A.84542.84542,0,0,1,224.06936,21.61194Zm-1.58643,10.03614V23.81351h1.42458v7.83457Z"/><path class="cls-1" d="M228.06768,21.56347v2.25h2.03951V24.898h-2.03951v4.22486c0,.97129.27543,1.52173,1.06843,1.52173a3.17139,3.17139,0,0,0,.82546-.09715l.06491,1.06823a3.48684,3.48684,0,0,1-1.26274.1943A1.97368,1.97368,0,0,1,227.226,31.211a2.90166,2.90166,0,0,1-.55044-2.03952V24.898h-1.21406V23.81351h1.21406V21.93563Z"/><path class="cls-1" d="M236.13005,31.64808l-.11317-.98751h-.04868a2.918,2.918,0,0,1-2.39566,1.16559,2.232,2.232,0,0,1-2.39566-2.25c0-1.8939,1.68337-2.92988,4.71019-2.91366v-.16184a1.615,1.615,0,0,0-1.78031-1.813,3.90188,3.90188,0,0,0-2.03952.58269l-.32411-.93883a4.864,4.864,0,0,1,2.57415-.69607c2.39566,0,2.97814,1.6349,2.97814,3.20511v2.92987a11.00573,11.00573,0,0,0,.12981,1.87767Zm-.21053-3.99831c-1.554-.03225-3.31848.243-3.31848,1.7645a1.26075,1.26075,0,0,0,1.34387,1.35968,1.94927,1.94927,0,0,0,1.8939-1.31121,1.4946,1.4946,0,0,0,.08071-.45309Z"/><path class="cls-1" d="M239.67569,26.25764c0-.92261-.01623-1.71582-.06449-2.44413h1.2461l.04867,1.53775h.06491a2.35055,2.35055,0,0,1,2.16891-1.71583,1.54953,1.54953,0,0,1,.40482.04847v1.34366a2.13611,2.13611,0,0,0-.48554-.04868,1.99771,1.99771,0,0,0-1.91012,1.8292,4.00062,4.00062,0,0,0-.0649.66361v4.17639h-1.40836Z"/><path class="cls-1" d="M246.70166,21.61194a.88228.88228,0,0,1-1.7645,0,.86794.86794,0,0,1,.89036-.89016A.84542.84542,0,0,1,246.70166,21.61194Zm-1.58643,10.03614V23.81351h1.42458v7.83457Z"/><path class="cls-1" d="M256.0742,27.666a3.82888,3.82888,0,0,1-3.901,4.16017,3.725,3.725,0,0,1-3.75576-4.03056,3.82562,3.82562,0,0,1,3.88515-4.16017A3.71,3.71,0,0,1,256.0742,27.666Zm-6.21591.08093c0,1.71582.98731,3.0108,2.37944,3.0108,1.35967,0,2.37985-1.27875,2.37985-3.043,0-1.32743-.664-3.011-2.3474-3.011S249.85829,26.25764,249.85829,27.74692Z"/><path class="cls-1" d="M110.89954,37.46478v4.565h5.27707v-4.565h1.42458V48.37507h-1.42458V43.25963h-5.27707v5.11544h-1.40815V37.46478Z"/><path class="cls-1" d="M127.16928,44.393a3.829,3.829,0,0,1-3.90117,4.16016,3.72481,3.72481,0,0,1-3.75534-4.03077,3.82557,3.82557,0,0,1,3.88494-4.16016A3.71018,3.71018,0,0,1,127.16928,44.393Zm-6.21591.08071c0,1.71582.98752,3.011,2.37964,3.011,1.35947,0,2.37965-1.279,2.37965-3.043,0-1.32765-.664-3.011-2.3474-3.011S120.95337,42.98462,120.95337,44.47369Z"/><path class="cls-1" d="M128.85389,46.918a3.73238,3.73238,0,0,0,1.87767.56667c1.036,0,1.52194-.518,1.52194-1.16538,0-.67983-.40482-1.05221-1.457-1.4408-1.40836-.50177-2.072-1.279-2.072-2.21759a2.41628,2.41628,0,0,1,2.70313-2.29872,3.91164,3.91164,0,0,1,1.92635.48554l-.35615,1.036a3.04828,3.04828,0,0,0-1.60224-.45309c-.8421,0-1.31141.48554-1.31141,1.06844,0,.64739.46931.93863,1.48948,1.32723,1.35968.518,2.05575,1.19783,2.05575,2.3632,0,1.37591-1.06844,2.3474-2.92988,2.3474a4.47,4.47,0,0,1-2.20178-.53422Z"/><path class="cls-1" d="M135.54036,43.09779c0-1.00353-.03245-1.81277-.06449-2.55751h1.27855l.0649,1.34345h.03245a3.07981,3.07981,0,0,1,2.78385-1.52152c1.89389,0,3.31848,1.60265,3.31848,3.98209,0,2.81671-1.71583,4.20884-3.561,4.20884a2.74776,2.74776,0,0,1-2.41189-1.23028h-.03245V51.58h-1.40836Zm1.40836,2.08819a3.20147,3.20147,0,0,0,.0649.5829,2.19755,2.19755,0,0,0,2.13646,1.66714c1.50571,0,2.37943-1.23028,2.37943-3.02682,0-1.5702-.82546-2.91365-2.33075-2.91365a2.27364,2.27364,0,0,0-2.1531,1.76408,2.32461,2.32461,0,0,0-.09694.5829Z"/><path class="cls-1" d="M146.419,38.33892a.88229.88229,0,0,1-1.76451,0,.86812.86812,0,0,1,.89037-.89037A.84559.84559,0,0,1,146.419,38.33892ZM144.8326,48.37507V40.54028h1.42458v7.83479Z"/><path class="cls-1" d="M150.41776,38.29024v2.25h2.03951v1.08466h-2.03951v4.22465c0,.9715.27543,1.52194,1.06843,1.52194a3.16041,3.16041,0,0,0,.82546-.09735l.06491,1.06843a3.49144,3.49144,0,0,1-1.26274.1943,1.97376,1.97376,0,0,1-1.53775-.59912,2.901,2.901,0,0,1-.55044-2.03952V41.62494h-1.21406V40.54028h1.21406V38.66261Z"/><path class="cls-1" d="M158.47971,48.37507l-.11317-.98773h-.04868a2.91761,2.91761,0,0,1-2.39566,1.1658,2.23212,2.23212,0,0,1-2.39566-2.25c0-1.8939,1.68337-2.92988,4.71019-2.91366V43.2276a1.615,1.615,0,0,0-1.78031-1.81318,3.90187,3.90187,0,0,0-2.03951.5829l-.32411-.93905a4.86594,4.86594,0,0,1,2.57415-.69606c2.39566,0,2.97814,1.63511,2.97814,3.20531V46.4974a11.00479,11.00479,0,0,0,.12981,1.87767Zm-.21052-3.99832c-1.554-.03245-3.31848.243-3.31848,1.7645a1.26086,1.26086,0,0,0,1.34386,1.35968,1.94916,1.94916,0,0,0,1.8939-1.31142,1.49455,1.49455,0,0,0,.08072-.45308Z"/><path class="cls-1" d="M162.02577,36.88188h1.42458V48.37507h-1.42458Z"/><path class="cls-1" d="M170.89737,37.46478V48.37507H169.489V37.46478Z"/><path class="cls-1" d="M175.36542,38.29024v2.25h2.03951v1.08466h-2.03951v4.22465c0,.9715.27543,1.52194,1.06844,1.52194a3.16038,3.16038,0,0,0,.82545-.09735l.06491,1.06843a3.49144,3.49144,0,0,1-1.26274.1943,1.97376,1.97376,0,0,1-1.53775-.59912,2.901,2.901,0,0,1-.55044-2.03952V41.62494h-1.21406V40.54028h1.21406V38.66261Z"/><path class="cls-1" d="M183.42737,48.37507l-.11317-.98773h-.04867a2.91763,2.91763,0,0,1-2.39567,1.1658,2.23213,2.23213,0,0,1-2.39566-2.25c0-1.8939,1.68337-2.92988,4.71019-2.91366V43.2276a1.615,1.615,0,0,0-1.78031-1.81318,3.90193,3.90193,0,0,0-2.03951.5829l-.32411-.93905a4.86594,4.86594,0,0,1,2.57415-.69606c2.39566,0,2.97814,1.63511,2.97814,3.20531V46.4974a11.00479,11.00479,0,0,0,.12981,1.87767Zm-.21052-3.99832c-1.554-.03245-3.31848.243-3.31848,1.7645a1.26086,1.26086,0,0,0,1.34387,1.35968,1.94915,1.94915,0,0,0,1.89389-1.31142,1.49455,1.49455,0,0,0,.08072-.45308Z"/><path class="cls-1" d="M186.97343,36.88188H188.398V48.37507h-1.42459Z"/><path class="cls-1" d="M192.46124,38.33892a.88228.88228,0,0,1-1.7645,0,.86811.86811,0,0,1,.89036-.89037A.84559.84559,0,0,1,192.46124,38.33892Zm-1.58643,10.03615V40.54028h1.42458v7.83479Z"/><path class="cls-1" d="M199.08238,48.37507l-.11317-.98773h-.04867a2.91824,2.91824,0,0,1-2.39567,1.1658,2.23213,2.23213,0,0,1-2.39566-2.25c0-1.8939,1.68337-2.92988,4.71019-2.91366V43.2276a1.615,1.615,0,0,0-1.78031-1.81318,3.9019,3.9019,0,0,0-2.03951.5829l-.32411-.93905a4.86594,4.86594,0,0,1,2.57415-.69606c2.39566,0,2.97814,1.63511,2.97814,3.20531V46.4974a11.00479,11.00479,0,0,0,.12981,1.87767Zm-.21052-3.99832c-1.554-.03245-3.31848.243-3.31848,1.7645a1.26086,1.26086,0,0,0,1.34387,1.35968,1.94915,1.94915,0,0,0,1.89389-1.31142,1.49455,1.49455,0,0,0,.08072-.45308Z"/><path class="cls-1" d="M202.628,42.66093c0-.80924-.01623-1.47326-.06449-2.12065h1.26232l.08113,1.29519h.03245a2.88031,2.88031,0,0,1,2.59-1.47326c1.08425,0,2.768.64738,2.768,3.3347v4.67816h-1.42458V43.85876c0-1.26274-.46931-2.31495-1.81318-2.31495a2.0241,2.0241,0,0,0-1.91012,1.457,2.0544,2.0544,0,0,0-.09694.66361v4.71061H202.628Z"/><path class="cls-1" d="M218.78439,44.393a3.829,3.829,0,0,1-3.901,4.16016,3.725,3.725,0,0,1-3.75576-4.03077,3.82584,3.82584,0,0,1,3.88515-4.16016A3.71018,3.71018,0,0,1,218.78439,44.393Zm-6.21591.08071c0,1.71582.98731,3.011,2.37944,3.011,1.35967,0,2.37985-1.279,2.37985-3.043,0-1.32765-.664-3.011-2.3474-3.011S212.56848,42.98462,212.56848,44.47369Z"/><path class="cls-1" d="M230.94284,36.88188v9.46948c0,.69607.01623,1.48949.06491,2.02371h-1.279l-.06491-1.35968h-.032a2.89831,2.89831,0,0,1-2.6711,1.53775c-1.89389,0-3.35093-1.60266-3.35093-3.98209-.01581-2.60619,1.60266-4.20884,3.51278-4.20884A2.61965,2.61965,0,0,1,229.48581,41.56h.03245V36.88188Zm-1.42458,6.84748a2.53083,2.53083,0,0,0-.06449-.59912,2.09514,2.09514,0,0,0-2.05615-1.65092c-1.47285,0-2.347,1.29478-2.347,3.02682,0,1.58643.7772,2.89743,2.31495,2.89743a2.14161,2.14161,0,0,0,2.08819-1.6996,2.48869,2.48869,0,0,0,.06449-.61493Z"/><path class="cls-1" d="M234.18186,44.71667a2.50943,2.50943,0,0,0,2.6869,2.71935,5.1543,5.1543,0,0,0,2.16891-.4044l.243,1.01975a6.35039,6.35039,0,0,1-2.60618.48554,3.63834,3.63834,0,0,1-3.8527-3.94963c0-2.36363,1.39213-4.22507,3.67463-4.22507,2.5575,0,3.23734,2.25,3.23734,3.69085a5.37855,5.37855,0,0,1-.04826.66361Zm4.176-1.01976a2.028,2.028,0,0,0-1.97461-2.31494,2.36139,2.36139,0,0,0-2.18555,2.31494Z"/><path class="cls-1" d="M245.14207,37.6104a13.653,13.653,0,0,1,2.57373-.22675,4.50888,4.50888,0,0,1,2.99479.79342,2.28794,2.28794,0,0,1,.90617,1.92635,2.59083,2.59083,0,0,1-1.84522,2.39566v.03245a2.81162,2.81162,0,0,1,2.25,2.73558,2.94086,2.94086,0,0,1-.92281,2.18514A5.47864,5.47864,0,0,1,247.3272,48.472a16.43713,16.43713,0,0,1-2.18513-.1294Zm1.40835,4.46763H247.829c1.48949,0,2.36362-.77678,2.36362-1.829,0-1.279-.97149-1.78073-2.39566-1.78073a6.02312,6.02312,0,0,0-1.24651.09736Zm0,5.2286a7.50539,7.50539,0,0,0,1.18161.0649c1.45662,0,2.80048-.53421,2.80048-2.12064,0-1.48949-1.279-2.10442-2.81671-2.10442h-1.16538Z"/><path class="cls-1" d="M260.50459,46.23819c0,.80924.01622,1.52153.0649,2.13688h-1.26273l-.08072-1.279h-.03245a2.94736,2.94736,0,0,1-2.59,1.457c-1.23028,0-2.70354-.67984-2.70354-3.43165V40.54028h1.42458v4.33824c0,1.48907.4535,2.493,1.74827,2.493a2.00386,2.00386,0,0,0,2.00707-2.0237V40.54028h1.42458Z"/><path class="cls-1" d="M263.7436,44.71667a2.50944,2.50944,0,0,0,2.6869,2.71935,5.15423,5.15423,0,0,0,2.16891-.4044l.243,1.01975a6.35048,6.35048,0,0,1-2.60619.48554,3.63834,3.63834,0,0,1-3.85269-3.94963c0-2.36363,1.39212-4.22507,3.67462-4.22507,2.55751,0,3.23734,2.25,3.23734,3.69085a5.37655,5.37655,0,0,1-.04826.66361Zm4.176-1.01976A2.028,2.028,0,0,0,265.945,41.382a2.36139,2.36139,0,0,0-2.18555,2.31494Z"/><path class="cls-1" d="M271.14194,42.66093c0-.80924-.01623-1.47326-.06449-2.12065h1.26232l.08113,1.29519h.03245a2.88033,2.88033,0,0,1,2.59-1.47326c1.08425,0,2.768.64738,2.768,3.3347v4.67816h-1.42459V43.85876c0-1.26274-.46931-2.31495-1.81318-2.31495a2.0241,2.0241,0,0,0-1.91012,1.457,2.0544,2.0544,0,0,0-.09694.66361v4.71061h-1.42458Z"/><path class="cls-1" d="M287.2983,44.393a3.829,3.829,0,0,1-3.901,4.16016,3.725,3.725,0,0,1-3.75575-4.03077,3.82583,3.82583,0,0,1,3.88514-4.16016A3.71018,3.71018,0,0,1,287.2983,44.393Zm-6.21591.08071c0,1.71582.98731,3.011,2.37944,3.011,1.35968,0,2.37985-1.279,2.37985-3.043,0-1.32765-.664-3.011-2.3474-3.011S281.08239,42.98462,281.08239,44.47369Z"/><path class="cls-1" d="M288.98333,46.918a3.73235,3.73235,0,0,0,1.87767.56667c1.036,0,1.52194-.518,1.52194-1.16538,0-.67983-.40482-1.05221-1.457-1.4408-1.40836-.50177-2.072-1.279-2.072-2.21759a2.41628,2.41628,0,0,1,2.70313-2.29872,3.9116,3.9116,0,0,1,1.92634.48554l-.35614,1.036a3.04828,3.04828,0,0,0-1.60224-.45309c-.8421,0-1.31141.48554-1.31141,1.06844,0,.64739.46931.93863,1.48948,1.32723,1.35968.518,2.05574,1.19783,2.05574,2.3632,0,1.37591-1.06843,2.3474-2.92987,2.3474a4.46992,4.46992,0,0,1-2.20178-.53422Z"/><path class="cls-1" d="M300.99576,44.94342l-1.13335,3.43165H298.4058l3.70665-10.91029h1.6996l3.7233,10.91029h-1.50529l-1.1658-3.43165Zm3.57726-1.10089-1.06844-3.1404c-.24256-.71229-.40482-1.35968-.56667-1.99084h-.032c-.16185.64739-.33992,1.311-.55045,1.97461L301.287,43.84253Z"/><path class="cls-1" d="M310.70946,38.33892a.88228.88228,0,0,1-1.7645,0,.86811.86811,0,0,1,.89036-.89037A.84559.84559,0,0,1,310.70946,38.33892ZM309.123,48.37507V40.54028h1.42458v7.83479Z"/><path class="cls-1" d="M312.99237,42.98462c0-.92282-.01623-1.71582-.06449-2.44434H314.174l.04868,1.53775h.06491a2.35053,2.35053,0,0,1,2.16891-1.71582,1.53762,1.53762,0,0,1,.40482.04868v1.34345a2.13561,2.13561,0,0,0-.48554-.04868,1.99821,1.99821,0,0,0-1.91012,1.8294,3.99829,3.99829,0,0,0-.06491.66362v4.17639h-1.40835Z"/><path class="cls-1" d="M318.99858,44.71667a2.50944,2.50944,0,0,0,2.6869,2.71935,5.15423,5.15423,0,0,0,2.16891-.4044l.243,1.01975a6.35048,6.35048,0,0,1-2.60619.48554,3.63834,3.63834,0,0,1-3.85269-3.94963c0-2.36363,1.39213-4.22507,3.67462-4.22507,2.55751,0,3.23735,2.25,3.23735,3.69085a5.37613,5.37613,0,0,1-.04827.66361Zm4.176-1.01976a2.028,2.028,0,0,0-1.97461-2.31494,2.36139,2.36139,0,0,0-2.18555,2.31494Z"/><path class="cls-1" d="M326.203,46.918a3.73232,3.73232,0,0,0,1.87767.56667c1.036,0,1.52194-.518,1.52194-1.16538,0-.67983-.40483-1.05221-1.457-1.4408-1.40835-.50177-2.072-1.279-2.072-2.21759a2.41628,2.41628,0,0,1,2.70313-2.29872,3.91164,3.91164,0,0,1,1.92635.48554l-.35615,1.036a3.04822,3.04822,0,0,0-1.60224-.45309c-.8421,0-1.31141.48554-1.31141,1.06844,0,.64739.46931.93863,1.48949,1.32723,1.35967.518,2.05574,1.19783,2.05574,2.3632,0,1.37591-1.06844,2.3474-2.92988,2.3474a4.47,4.47,0,0,1-2.20178-.53422Z"/></g></g></g></svg>