<svg xmlns="http://www.w3.org/2000/svg" viewBox="0 0 164.67276 114.07316"><defs><style>.cls-1{fill:#393939;}</style></defs><g id="Capa_2" data-name="Capa 2"><g id="LOGIN-desktop_y_mobile" data-name="LOGIN-desktop y mobile"><path class="cls-1" d="M29.10442,90.50876v8.11165h-1.0471V90.50876Z"/><path class="cls-1" d="M31.07858,94.372c0-.60165-.01206-1.09519-.04794-1.57652h.93851l.06032.9628h.02413a2.14138,2.14138,0,0,1,1.9256-1.09519c.80613,0,2.058.48132,2.058,2.47915v3.47815H34.978V95.26259c0-.93867-.34893-1.721-1.34807-1.721a1.50493,1.50493,0,0,0-1.42015,1.08313,1.52832,1.52832,0,0,0-.07208.49354v3.50212H31.07858Z"/><path class="cls-1" d="M37.6745,97.53728a2.77649,2.77649,0,0,0,1.396.42115c.77024,0,1.13155-.38512,1.13155-.86644,0-.50545-.301-.7823-1.08329-1.07122C38.07169,95.64771,37.5783,95.07,37.5783,94.372A1.79645,1.79645,0,0,1,39.588,92.66311a2.90658,2.90658,0,0,1,1.43221.361l-.26479.77024a2.26617,2.26617,0,0,0-1.19124-.337c-.62609,0-.975.36115-.975.79437,0,.48148.34893.698,1.10741.98693,1.01091.38512,1.52842.89057,1.52842,1.757,0,1.023-.79437,1.74511-2.17833,1.74511a3.3217,3.3217,0,0,1-1.637-.39719Z"/><path class="cls-1" d="M43.92149,91.12263V92.7955h1.51635v.80628H43.92149v3.14113c0,.72214.20478,1.13139.79437,1.13139a2.3583,2.3583,0,0,0,.61372-.07223l.04825.79421a2.59255,2.59255,0,0,1-.93882.14446,1.46739,1.46739,0,0,1-1.1433-.44529,2.15731,2.15731,0,0,1-.40925-1.51635V93.60178h-.90263V92.7955h.90263V91.39933Z"/><path class="cls-1" d="M47.86951,91.15867a.656.656,0,0,1-1.31188,0,.6453.6453,0,0,1,.662-.66182A.62855.62855,0,0,1,47.86951,91.15867ZM46.69,98.62041V92.7955h1.05915v5.82491Z"/><path class="cls-1" d="M50.84252,91.12263V92.7955h1.51635v.80628H50.84252v3.14113c0,.72214.20478,1.13139.79437,1.13139a2.3583,2.3583,0,0,0,.61372-.07223l.04825.79421a2.59257,2.59257,0,0,1-.93883.14446,1.46736,1.46736,0,0,1-1.14329-.44529,2.15731,2.15731,0,0,1-.40925-1.51635V93.60178h-.90264V92.7955h.90264V91.39933Z"/><path class="cls-1" d="M58.48522,97.03183c0,.60165.01207,1.13123.04826,1.58858h-.93883l-.06-.95074h-.02413a2.19153,2.19153,0,0,1-1.9256,1.08313c-.9147,0-2.01-.50545-2.01-2.55138V92.7955H54.634v3.22527c0,1.10726.33717,1.85353,1.29982,1.85353a1.53083,1.53083,0,0,0,1.396-.9628,1.54624,1.54624,0,0,0,.0962-.54165V92.7955h1.05916Z"/><path class="cls-1" d="M61.57918,91.12263V92.7955h1.51635v.80628H61.57918v3.14113c0,.72214.20477,1.13139.79436,1.13139a2.35817,2.35817,0,0,0,.61372-.07223l.04826.79421a2.59257,2.59257,0,0,1-.93883.14446,1.46739,1.46739,0,0,1-1.1433-.44529,2.15731,2.15731,0,0,1-.40924-1.51635V93.60178h-.90264V92.7955h.90264V91.39933Z"/><path class="cls-1" d="M69.547,95.65978a2.84671,2.84671,0,0,1-2.90031,3.093,2.76945,2.76945,0,0,1-2.79236-2.99667,2.8443,2.8443,0,0,1,2.88856-3.093A2.75834,2.75834,0,0,1,69.547,95.65978Zm-4.62144.06016c0,1.27569.734,2.23849,1.76907,2.23849,1.01091,0,1.76939-.95073,1.76939-2.26246,0-.98693-.49369-2.23865-1.74526-2.23865S64.92555,94.61268,64.92555,95.71994Z"/><path class="cls-1" d="M74.63955,90.50876v4.80209c0,1.81718.80612,2.58742,1.8894,2.58742,1.20362,0,1.97386-.79421,1.97386-2.58742V90.50876h1.05885v4.72986c0,2.49122-1.31157,3.51418-3.0689,3.51418-1.66081,0-2.91237-.95073-2.91237-3.46608v-4.778Z"/><path class="cls-1" d="M81.40405,94.372c0-.60165-.01206-1.09519-.048-1.57652h.93852l.06032.9628h.02413a2.14138,2.14138,0,0,1,1.9256-1.09519c.80612,0,2.058.48132,2.058,2.47915v3.47815H85.30351V95.26259c0-.93867-.34893-1.721-1.34808-1.721a1.50493,1.50493,0,0,0-1.42015,1.08313,1.52861,1.52861,0,0,0-.07207.49354v3.50212H81.40405Z"/><path class="cls-1" d="M89.32423,91.15867a.656.656,0,0,1-1.31189,0,.6453.6453,0,0,1,.662-.66182A.62856.62856,0,0,1,89.32423,91.15867Zm-1.17949,7.46174V92.7955H89.2039v5.82491Z"/><path class="cls-1" d="M91.43048,92.7955,92.57377,96.069a14.938,14.938,0,0,1,.46926,1.49222h.0362c.13239-.48132.301-.96265.49338-1.49222l1.13124-3.27353h1.10741l-2.28659,5.82491H92.51376L90.29925,92.7955Z"/><path class="cls-1" d="M97.3406,95.90044a1.86587,1.86587,0,0,0,1.99768,2.022,3.82931,3.82931,0,0,0,1.61256-.30083l.18065.75818a4.719,4.719,0,0,1-1.93767.361,2.70506,2.70506,0,0,1-2.86443-2.9365c0-1.75717,1.035-3.14113,2.732-3.14113a2.4678,2.4678,0,0,1,2.40692,2.74394,3.99633,3.99633,0,0,1-.03588.49339Zm3.10478-.75818a1.50769,1.50769,0,0,0-1.46809-1.721,1.75552,1.75552,0,0,0-1.62493,1.721Z"/><path class="cls-1" d="M102.84117,94.61268c0-.68594-.01206-1.27569-.04794-1.81718h.92645l.03619,1.1433h.04826a1.7476,1.7476,0,0,1,1.61255-1.27569,1.15164,1.15164,0,0,1,.301.036v.999a1.58793,1.58793,0,0,0-.361-.03619,1.48526,1.48526,0,0,0-1.42015,1.36,2.974,2.974,0,0,0-.04825.49339v3.10509h-1.0471Z"/><path class="cls-1" d="M106.693,97.53728a2.77653,2.77653,0,0,0,1.396.42115c.77024,0,1.13154-.38512,1.13154-.86644,0-.50545-.301-.7823-1.08329-1.07122-1.04709-.37306-1.54048-.95074-1.54048-1.64875a1.79646,1.79646,0,0,1,2.00974-1.70891,2.90658,2.90658,0,0,1,1.43221.361l-.26479.77024a2.26614,2.26614,0,0,0-1.19124-.337c-.62609,0-.975.36115-.975.79437,0,.48148.34893.698,1.10742.98693,1.0109.38512,1.52841.89057,1.52841,1.757,0,1.023-.79437,1.74511-2.17832,1.74511a3.32171,3.32171,0,0,1-1.637-.39719Z"/><path class="cls-1" d="M112.84378,91.15867a.656.656,0,0,1-1.31188,0,.6453.6453,0,0,1,.662-.66182A.62856.62856,0,0,1,112.84378,91.15867Zm-1.17949,7.46174V92.7955h1.05916v5.82491Z"/><path class="cls-1" d="M115.81648,91.12263V92.7955h1.51635v.80628h-1.51635v3.14113c0,.72214.20477,1.13139.79436,1.13139a2.35817,2.35817,0,0,0,.61372-.07223l.04826.79421a2.59257,2.59257,0,0,1-.93883.14446,1.46739,1.46739,0,0,1-1.1433-.44529,2.15731,2.15731,0,0,1-.40924-1.51635V93.60178h-.90264V92.7955h.90264V91.39933Z"/><path class="cls-1" d="M121.81074,98.62041l-.08414-.7342h-.03619a2.16955,2.16955,0,0,1-1.78114.86659,1.65947,1.65947,0,0,1-1.78115-1.67287c0-1.40809,1.25157-2.17833,3.502-2.16627v-.12033a1.20071,1.20071,0,0,0-1.32364-1.34792,2.901,2.901,0,0,0-1.51635.43322l-.241-.698a3.61633,3.61633,0,0,1,1.91384-.51751c1.78115,0,2.21421,1.21552,2.21421,2.38295v2.17833a8.18145,8.18145,0,0,0,.09652,1.396Zm-.15652-2.9727c-1.15536-.024-2.46725.18065-2.46725,1.31189a.93736.93736,0,0,0,.99915,1.0109,1.44924,1.44924,0,0,0,1.40809-.97487,1.11115,1.11115,0,0,0,.06-.33686Z"/><path class="cls-1" d="M124.44688,94.61268c0-.68594-.01206-1.27569-.048-1.81718h.92646l.03619,1.1433h.04826a1.7476,1.7476,0,0,1,1.61255-1.27569,1.15164,1.15164,0,0,1,.301.036v.999a1.58793,1.58793,0,0,0-.361-.03619,1.48526,1.48526,0,0,0-1.42015,1.36,2.9739,2.9739,0,0,0-.04826.49339v3.10509h-1.04709Z"/><path class="cls-1" d="M129.6706,91.15867a.656.656,0,0,1-1.31189,0,.6453.6453,0,0,1,.662-.66182A.62856.62856,0,0,1,129.6706,91.15867Zm-1.17949,7.46174V92.7955h1.05915v5.82491Z"/><path class="cls-1" d="M136.639,95.65978a2.84671,2.84671,0,0,1-2.90031,3.093,2.76944,2.76944,0,0,1-2.79235-2.99667,2.84429,2.84429,0,0,1,2.88855-3.093A2.75834,2.75834,0,0,1,136.639,95.65978Zm-4.62144.06016c0,1.27569.73405,2.23849,1.76908,2.23849,1.0109,0,1.76938-.95073,1.76938-2.26246,0-.98693-.49369-2.23865-1.74526-2.23865S132.01751,94.61268,132.01751,95.71994Z"/><path class="cls-1" d="M1.04678,103.57856v3.394H4.97037v-3.394H6.02922v8.11165H4.97037v-3.8031H1.04678v3.8031H0v-8.11165Z"/><path class="cls-1" d="M13.14327,108.72958a2.84671,2.84671,0,0,1-2.90031,3.093,2.76944,2.76944,0,0,1-2.79235-2.99667,2.84446,2.84446,0,0,1,2.88855-3.093A2.75834,2.75834,0,0,1,13.14327,108.72958Zm-4.62144.06017c0,1.27569.734,2.23849,1.76908,2.23849,1.0109,0,1.76938-.95074,1.76938-2.26247,0-.98692-.49369-2.23864-1.74525-2.23864S8.52183,107.68249,8.52183,108.78975Z"/><path class="cls-1" d="M14.39576,110.60708a2.77642,2.77642,0,0,0,1.396.42116c.77025,0,1.13155-.38512,1.13155-.86644,0-.50545-.301-.78231-1.08329-1.07123-1.04709-.37305-1.54048-.95073-1.54048-1.64874a1.79646,1.79646,0,0,1,2.00974-1.70892,2.90657,2.90657,0,0,1,1.43221.361l-.26479.77024a2.26617,2.26617,0,0,0-1.19124-.337c-.62609,0-.975.36114-.975.79437,0,.48147.34893.698,1.10742.98692,1.0109.38512,1.52841.89058,1.52841,1.757,0,1.023-.79437,1.7451-2.17832,1.7451a3.32171,3.32171,0,0,1-1.637-.39718Z"/><path class="cls-1" d="M19.36706,107.76678c0-.74611-.02413-1.34792-.048-1.90147h.95059l.04825.99884h.02413a2.28948,2.28948,0,0,1,2.06975-1.13124c1.40809,0,2.46725,1.1914,2.46725,2.96063,0,2.094-1.2757,3.12907-2.64759,3.12907a2.04259,2.04259,0,0,1-1.79321-.9147h-.02412v3.16525h-1.0471Zm1.0471,1.55255a2.37988,2.37988,0,0,0,.04825.43322,1.63382,1.63382,0,0,0,1.58843,1.23965c1.11948,0,1.76908-.9147,1.76908-2.25055,0-1.16743-.61372-2.16627-1.73289-2.16627a1.69041,1.69041,0,0,0-1.6008,1.31173,1.72832,1.72832,0,0,0-.07207.43322Z"/><path class="cls-1" d="M27.4552,104.22847a.656.656,0,0,1-1.31188,0,.6453.6453,0,0,1,.662-.66182A.62855.62855,0,0,1,27.4552,104.22847Zm-1.17948,7.46174v-5.8249h1.05915v5.8249Z"/><path class="cls-1" d="M30.42821,104.19243v1.67288h1.51635v.80628H30.42821v3.14112c0,.72214.20478,1.13139.79437,1.13139a2.35786,2.35786,0,0,0,.61372-.07223l.04825.79421a2.59235,2.59235,0,0,1-.93883.14446,1.46736,1.46736,0,0,1-1.14329-.44528,2.15733,2.15733,0,0,1-.40925-1.51635v-3.17732h-.90264v-.80628h.90264v-1.39618Z"/><path class="cls-1" d="M36.42216,111.69021l-.08413-.7342h-.0362a2.16953,2.16953,0,0,1-1.78114.8666,1.65947,1.65947,0,0,1-1.78114-1.67288c0-1.40808,1.25156-2.17832,3.502-2.16626v-.12033a1.2007,1.2007,0,0,0-1.32363-1.34792,2.901,2.901,0,0,0-1.51636.43322l-.241-.698a3.61634,3.61634,0,0,1,1.91385-.51752c1.78114,0,2.21421,1.21553,2.21421,2.38295v2.17833a8.18247,8.18247,0,0,0,.09651,1.396Zm-.15652-2.97269c-1.15536-.024-2.46724.18065-2.46724,1.31188a.93734.93734,0,0,0,.99914,1.0109,1.44925,1.44925,0,0,0,1.40809-.97486,1.11126,1.11126,0,0,0,.06-.33687Z"/><path class="cls-1" d="M39.05861,103.14534h1.05916v8.54487H39.05861Z"/><path class="cls-1" d="M45.65453,103.57856v8.11165H44.60744v-8.11165Z"/><path class="cls-1" d="M48.97646,104.19243v1.67288h1.51636v.80628H48.97646v3.14112c0,.72214.20478,1.13139.79437,1.13139a2.35773,2.35773,0,0,0,.61372-.07223l.04826.79421a2.59235,2.59235,0,0,1-.93883.14446,1.46738,1.46738,0,0,1-1.1433-.44528,2.15733,2.15733,0,0,1-.40925-1.51635v-3.17732H47.0388v-.80628h.90263v-1.39618Z"/><path class="cls-1" d="M54.97042,111.69021l-.08414-.7342h-.03619a2.16953,2.16953,0,0,1-1.78114.8666,1.65948,1.65948,0,0,1-1.78115-1.67288c0-1.40808,1.25157-2.17832,3.502-2.16626v-.12033a1.2007,1.2007,0,0,0-1.32364-1.34792,2.901,2.901,0,0,0-1.51635.43322l-.241-.698a3.61633,3.61633,0,0,1,1.91384-.51752c1.78115,0,2.21421,1.21553,2.21421,2.38295v2.17833a8.18138,8.18138,0,0,0,.09652,1.396Zm-.15652-2.97269c-1.15536-.024-2.46725.18065-2.46725,1.31188a.93735.93735,0,0,0,.99915,1.0109,1.44925,1.44925,0,0,0,1.40809-.97486,1.11126,1.11126,0,0,0,.06-.33687Z"/><path class="cls-1" d="M57.60687,103.14534H58.666v8.54487H57.60687Z"/><path class="cls-1" d="M61.687,104.22847a.656.656,0,0,1-1.31188,0,.6453.6453,0,0,1,.662-.66182A.62856.62856,0,0,1,61.687,104.22847Zm-1.17949,7.46174v-5.8249h1.05916v5.8249Z"/><path class="cls-1" d="M66.60971,111.69021l-.08414-.7342h-.03619a2.17,2.17,0,0,1-1.78114.8666,1.65947,1.65947,0,0,1-1.78114-1.67288c0-1.40808,1.25156-2.17832,3.502-2.16626v-.12033a1.2007,1.2007,0,0,0-1.32364-1.34792,2.901,2.901,0,0,0-1.51635.43322l-.241-.698a3.61634,3.61634,0,0,1,1.91385-.51752c1.78114,0,2.21421,1.21553,2.21421,2.38295v2.17833a8.18145,8.18145,0,0,0,.09651,1.396Zm-.15652-2.97269c-1.15536-.024-2.46724.18065-2.46724,1.31188a.93734.93734,0,0,0,.99914,1.0109,1.44925,1.44925,0,0,0,1.40809-.97486,1.11126,1.11126,0,0,0,.06-.33687Z"/><path class="cls-1" d="M69.24585,107.44183c0-.60166-.01206-1.0952-.04794-1.57652h.93851l.06032.9628h.02413a2.14137,2.14137,0,0,1,1.9256-1.0952c.80613,0,2.058.48133,2.058,2.47916v3.47814H73.14531V108.3324c0-.93867-.34893-1.721-1.34808-1.721a1.505,1.505,0,0,0-1.42015,1.08313,1.52865,1.52865,0,0,0-.07207.49354v3.50212H69.24585Z"/><path class="cls-1" d="M81.25789,108.72958a2.84671,2.84671,0,0,1-2.90031,3.093,2.76944,2.76944,0,0,1-2.79235-2.99667,2.84446,2.84446,0,0,1,2.88855-3.093A2.75834,2.75834,0,0,1,81.25789,108.72958Zm-4.62144.06017c0,1.27569.73405,2.23849,1.76908,2.23849,1.0109,0,1.76938-.95074,1.76938-2.26247,0-.98692-.49369-2.23864-1.74526-2.23864S76.63645,107.68249,76.63645,108.78975Z"/><path class="cls-1" d="M90.29754,103.14534v7.04043c0,.51751.01207,1.10726.04826,1.50444h-.95089l-.04826-1.0109h-.02382a2.15485,2.15485,0,0,1-1.98592,1.1433c-1.40808,0-2.49137-1.19156-2.49137-2.96063-.01175-1.93767,1.19155-3.12907,2.6117-3.12907a1.94737,1.94737,0,0,1,1.757.89057h.02413v-3.47814Zm-1.05915,5.09085a1.88076,1.88076,0,0,0-.048-.44528,1.55785,1.55785,0,0,0-1.52873-1.22759c-1.095,0-1.745.9628-1.745,2.25056,0,1.17933.57784,2.15419,1.72113,2.15419a1.59227,1.59227,0,0,0,1.55255-1.26362,1.85125,1.85125,0,0,0,.048-.45735Z"/><path class="cls-1" d="M92.70571,108.97024a1.86585,1.86585,0,0,0,1.99767,2.022,3.82933,3.82933,0,0,0,1.61256-.30082l.18065.75817a4.719,4.719,0,0,1-1.93767.361,2.70506,2.70506,0,0,1-2.86443-2.9365c0-1.75717,1.035-3.14113,2.732-3.14113a2.46781,2.46781,0,0,1,2.40692,2.74395,3.99614,3.99614,0,0,1-.03588.49338Zm3.10478-.75817a1.50771,1.50771,0,0,0-1.4681-1.721,1.75553,1.75553,0,0,0-1.62493,1.721Z"/><path class="cls-1" d="M100.85448,103.687a10.13736,10.13736,0,0,1,1.91353-.16859,3.3523,3.3523,0,0,1,2.22659.58975,1.70125,1.70125,0,0,1,.67373,1.43221,1.92612,1.92612,0,0,1-1.3719,1.78115v.02412a2.09069,2.09069,0,0,1,1.67288,2.03387,2.18663,2.18663,0,0,1-.6861,1.62478,4.07332,4.07332,0,0,1-2.80411.75817,12.215,12.215,0,0,1-1.62462-.09636Zm1.04709,3.32162h.95058c1.10742,0,1.75733-.57768,1.75733-1.36,0-.95074-.7223-1.32379-1.78115-1.32379a4.48121,4.48121,0,0,0-.92676.07223Zm0,3.88724a5.57907,5.57907,0,0,0,.87851.04826c1.083,0,2.08212-.39718,2.08212-1.57667,0-1.10726-.95089-1.56446-2.09419-1.56446h-.86644Z"/><path class="cls-1" d="M112.27631,110.10163c0,.60165.01206,1.13123.04825,1.58858h-.93882l-.06-.95073h-.02413a2.19156,2.19156,0,0,1-1.9256,1.08313c-.9147,0-2.01005-.50545-2.01005-2.55139v-3.40591h1.05916v3.22526c0,1.10726.33717,1.85353,1.29982,1.85353a1.48964,1.48964,0,0,0,1.49222-1.50444v-3.57435h1.05916Z"/><path class="cls-1" d="M114.68447,108.97024a1.86587,1.86587,0,0,0,1.99768,2.022,3.82928,3.82928,0,0,0,1.61255-.30082l.18065.75817a4.71893,4.71893,0,0,1-1.93766.361,2.70506,2.70506,0,0,1-2.86443-2.9365c0-1.75717,1.035-3.14113,2.732-3.14113a2.46781,2.46781,0,0,1,2.40693,2.74395,3.99372,3.99372,0,0,1-.03589.49338Zm3.10478-.75817a1.5077,1.5077,0,0,0-1.4681-1.721,1.75553,1.75553,0,0,0-1.62493,1.721Z"/><path class="cls-1" d="M120.185,107.44183c0-.60166-.01207-1.0952-.048-1.57652h.93852l.06032.9628h.02413a2.14136,2.14136,0,0,1,1.9256-1.0952c.80612,0,2.058.48133,2.058,2.47916v3.47814H124.0845V108.3324c0-.93867-.34893-1.721-1.34808-1.721a1.50494,1.50494,0,0,0-1.42015,1.08313,1.52838,1.52838,0,0,0-.07207.49354v3.50212H120.185Z"/><path class="cls-1" d="M132.19708,108.72958a2.84672,2.84672,0,0,1-2.90031,3.093,2.76945,2.76945,0,0,1-2.79236-2.99667,2.84446,2.84446,0,0,1,2.88856-3.093A2.75835,2.75835,0,0,1,132.19708,108.72958Zm-4.62145.06017c0,1.27569.734,2.23849,1.76908,2.23849,1.0109,0,1.76939-.95074,1.76939-2.26247,0-.98692-.4937-2.23864-1.74526-2.23864S127.57563,107.68249,127.57563,108.78975Z"/><path class="cls-1" d="M133.44988,110.60708a2.77636,2.77636,0,0,0,1.396.42116c.77024,0,1.13154-.38512,1.13154-.86644,0-.50545-.301-.78231-1.08328-1.07123-1.0471-.37305-1.54049-.95073-1.54049-1.64874a1.79646,1.79646,0,0,1,2.00974-1.70892,2.90661,2.90661,0,0,1,1.43222.361l-.26479.77024a2.2662,2.2662,0,0,0-1.19124-.337c-.6261,0-.975.36114-.975.79437,0,.48147.34892.698,1.10741.98692,1.0109.38512,1.52842.89058,1.52842,1.757,0,1.023-.79437,1.7451-2.17833,1.7451a3.3217,3.3217,0,0,1-1.637-.39718Z"/><path class="cls-1" d="M142.381,109.13883l-.84262,2.55138h-1.083l2.75586-8.11165h1.26362l2.76823,8.11165h-1.11917l-.86675-2.55138Zm2.65965-.8185-.79436-2.33469c-.18035-.52958-.301-1.0109-.42132-1.48032h-.02382c-.12033.48133-.25272.97487-.40924,1.46826l-.79437,2.34675Z"/><path class="cls-1" d="M149.603,104.22847a.656.656,0,0,1-1.31188,0,.6453.6453,0,0,1,.662-.66182A.62856.62856,0,0,1,149.603,104.22847Zm-1.17948,7.46174v-5.8249h1.05915v5.8249Z"/><path class="cls-1" d="M151.30028,107.68249c0-.686-.01207-1.27569-.04795-1.81718h.92645l.0362,1.14329h.04825a1.74761,1.74761,0,0,1,1.61256-1.27569,1.1504,1.1504,0,0,1,.301.036v.999a1.58856,1.58856,0,0,0-.361-.03619,1.4855,1.4855,0,0,0-1.42015,1.36,2.97377,2.97377,0,0,0-.04826.49338v3.10509h-1.04709Z"/><path class="cls-1" d="M155.76582,108.97024a1.86585,1.86585,0,0,0,1.99767,2.022,3.82933,3.82933,0,0,0,1.61256-.30082l.18065.75817a4.719,4.719,0,0,1-1.93767.361,2.70506,2.70506,0,0,1-2.86443-2.9365c0-1.75717,1.035-3.14113,2.732-3.14113a2.46781,2.46781,0,0,1,2.40692,2.74395,3.99614,3.99614,0,0,1-.03588.49338Zm3.10478-.75817a1.50771,1.50771,0,0,0-1.4681-1.721,1.75553,1.75553,0,0,0-1.62493,1.721Z"/><path class="cls-1" d="M161.12223,110.60708a2.77643,2.77643,0,0,0,1.396.42116c.77024,0,1.13154-.38512,1.13154-.86644,0-.50545-.301-.78231-1.08329-1.07123-1.04709-.37305-1.54048-.95073-1.54048-1.64874a1.79646,1.79646,0,0,1,2.00974-1.70892,2.90661,2.90661,0,0,1,1.43222.361l-.26479.77024a2.26621,2.26621,0,0,0-1.19125-.337c-.62609,0-.975.36114-.975.79437,0,.48147.34893.698,1.10742.98692,1.0109.38512,1.52841.89058,1.52841,1.757,0,1.023-.79436,1.7451-2.17832,1.7451a3.32171,3.32171,0,0,1-1.637-.39718Z"/><path class="cls-1" d="M59.01975,40.01687H53.16824V37.575h5.85151Zm-5.53305-.31846h5.21475v-1.805H53.4867Z"/><path class="cls-1" d="M58.70129,37.68124H53.606V28.23358h5.09534Zm-4.77673-.3183h4.45827V28.55188H53.92456Z"/><rect class="cls-1" x="56.01612" y="28.35236" width="0.31861" height="9.1821"/><path class="cls-1" d="M58.94876,28.53363h-5.8099V27.38028h5.8099ZM53.45747,28.215H58.6303v-.51628H53.45747Z"/><path class="cls-1" d="M59.92733,27.67864l-7.699-.03125,3.92746-2.3067Zm-6.5359-.34491,5.41055.022-2.65052-1.64318Z"/><path class="cls-1" d="M67.61829,40.01687H61.72673V37.575h5.89156ZM62.045,39.69841h5.25481v-1.805H62.045Z"/><path class="cls-1" d="M67.29984,37.68124H62.20449V28.23358h5.09535Zm-4.77689-.3183h4.45827V28.55188H62.523Z"/><rect class="cls-1" x="64.61451" y="28.35236" width="0.31861" height="9.1821"/><path class="cls-1" d="M67.5473,28.53363H61.7374V27.38028h5.8099ZM62.05586,28.215h5.173v-.51628h-5.173Z"/><path class="cls-1" d="M68.52572,27.67864l-7.699-.03125,3.92745-2.3067Zm-6.5359-.34491,5.41055.022-2.65053-1.64318Z"/><path class="cls-1" d="M71.33246,40.33641l.01485-2.74828,6.00818.01392.01655,1.47027-2.10687,1.23609Zm.33161-2.429-.01145,2.10826,3.525-.02521,1.87394-1.09937-.011-.97131Z"/><path class="cls-1" d="M76.84014,37.68124H71.83791V28.23358h5.00223Zm-4.68392-.3183h4.36562V28.55188H72.15622Z"/><rect class="cls-1" x="74.32758" y="28.35236" width="0.31861" height="9.1821"/><path class="cls-1" d="M77.14082,28.53363h-5.5312V27.38028h5.5312ZM71.92808,28.215h4.89428v-.51628H71.92808Z"/><path class="cls-1" d="M78.37985,27.67864l-7.6212-.03094,3.71788-2.48395Zm-6.57751-.34522,5.48835.02227-2.81107-1.81115Z"/><path class="cls-1" d="M103.09993,40.01687H97.04906V37.575h6.05087Zm-5.73226-.31846h5.41365v-1.805H97.36767Z"/><path class="cls-1" d="M102.64892,37.68124H97.55358V28.23358h5.09534Zm-4.77688-.3183h4.45827V28.55188H97.872Z"/><rect class="cls-1" x="99.96375" y="28.35236" width="0.31861" height="9.1821"/><path class="cls-1" d="M102.89639,28.53363h-5.8099V27.38028h5.8099ZM97.405,28.215h5.173v-.51628H97.405Z"/><path class="cls-1" d="M103.87466,27.67864l-7.69885-.03125,3.92761-2.3067Zm-6.53576-.34491,5.4104.022-2.65021-1.64318Z"/><path class="cls-1" d="M111.72508,40.01687h-6.07763V37.575h6.07763Zm-5.75918-.31846h5.44056v-1.805H105.9659Z"/><path class="cls-1" d="M111.24731,37.68124H106.152V28.23358h5.09534Zm-4.77688-.3183h4.45842V28.55188h-4.45842Z"/><rect class="cls-1" x="108.56214" y="28.35236" width="0.31861" height="9.1821"/><path class="cls-1" d="M111.49478,28.53363h-5.8099V27.38028h5.8099Zm-5.49145-.31861h5.173v-.51628h-5.173Z"/><path class="cls-1" d="M112.473,27.67864l-7.69884-.03125,3.9276-2.3067Zm-6.53575-.34491,5.4104.022-2.65022-1.64318Z"/><path class="cls-1" d="M93.09516,40.25552h-4.2521l-1.79878-1.119V37.57514h6.05088ZM88.934,39.93706h3.84254V37.8936H87.3629v1.066Z"/><path class="cls-1" d="M92.7767,37.68124H87.48215V28.23358H92.7767Zm-4.9761-.3183h4.65764V28.55188H87.8006Z"/><rect class="cls-1" x="90.09153" y="28.35236" width="0.31861" height="9.1821"/><path class="cls-1" d="M93.02416,28.53363h-5.8099V27.38028h5.8099ZM87.53272,28.215h5.173v-.51628h-5.173Z"/><path class="cls-1" d="M93.90592,27.64987H86.32013L90.13685,25.313Zm-6.45579-.31862H92.788L90.13592,25.687Z"/><path class="cls-1" d="M84.81523,37.6964l-2.65037-1.58286-2.64434,1.46655V28.23342h5.29471ZM82.17073,35.746l2.326,1.38922V28.55188H79.83913v8.4875Z"/><rect class="cls-1" x="82.05025" y="28.43202" width="0.31861" height="7.55083"/><path class="cls-1" d="M85.06269,28.53363H79.25264V27.38028h5.81005ZM79.57094,28.215h5.17329v-.51628H79.57094Z"/><path class="cls-1" d="M86.05952,27.67879l-7.69266-.03124,3.75283-2.32047Zm-6.57937-.34522,5.41659.022-2.77426-1.65571Z"/><path class="cls-1" d="M115.59948,40.33532H48.9347V24.51817h66.66478Zm-66.34632-.31861H115.281V24.83679H49.25316Z"/><path class="cls-1" d="M115.59948,57.19849H48.9347V41.50259h66.66478ZM49.25316,56.88H115.281v-15.059H49.25316Z"/><path class="cls-1" d="M69.7411,41.82136H48.1923V40.01671H69.7411ZM48.51076,41.5029H69.42248V40.33517H48.51076Z"/><path class="cls-1" d="M116.23624,41.82136H94.68745v-1.7782h21.54879Zm-21.23033-.31861h20.91187v-1.141H95.00591Z"/><rect class="cls-1" x="48.5635" y="53.41828" width="22.92904" height="0.31861"/><rect class="cls-1" x="92.98875" y="53.41828" width="22.92904" height="0.31861"/><path class="cls-1" d="M95.13846,21.73185H69.34283V17.19362H95.13846Zm-25.477-.31861H94.81985v-3.901H69.66144Z"/><path class="cls-1" d="M77.71556,21.745H71.26688V17.20708h6.44868Zm-6.13022-.3183H77.3971V17.52538H71.58534Z"/><path class="cls-1" d="M93.22755,21.7317H86.77888V17.19378h6.44867Zm-6.13022-.31831h5.81176V17.51208H87.09733Z"/><path class="cls-1" d="M85.332,21.7184H78.88329V17.18063H85.332Zm-6.13006-.31846h5.8116v-3.901h-5.8116Z"/><path class="cls-1" d="M77.122,21.02874h-5.1385v-3.1982H77.122Zm-4.82-.31862h4.50142v-2.561H72.30191Z"/><path class="cls-1" d="M84.71206,20.97569H79.57357v-3.1982h5.13849Zm-4.82-.31862h4.50142v-2.561H79.892Z"/><path class="cls-1" d="M92.56712,21.02874H87.42863v-3.1982h5.13849Zm-4.81988-.31862h4.50127v-2.561H87.74724Z"/><path class="cls-1" d="M79.10261,17.17367a3.58032,3.58032,0,0,1-.64976-1.39262l-.168-.54613.42657.38095c.00325.00263.31242.27422.58835.154.219-.095.59222-.51612.632-2.26849l.30562-.05893c.0181.04253.29541.69492.50963,1.313a5.2604,5.2604,0,0,1,.56917-1.10617,4.96931,4.96931,0,0,0,.82051-1.68309l.08738-.52478.21515.48643a31.981,31.981,0,0,1,1.24769,3.2514,6.614,6.614,0,0,0,.41729-.86706l.08321-.30562.19566.24917a4.43274,4.43274,0,0,1,.66769,1.07539c.03991.12451.1839.42426.34847.45411.10053.01964.23509-.07223.37831-.25536l.1805-.23107.09543.27732a1.47848,1.47848,0,0,1-.359,1.49377l-.21994-.23015a1.09027,1.09027,0,0,0,.32666-.87943.56281.56281,0,0,1-.45967.13812c-.39781-.073-.57954-.6261-.599-.68889a3.11721,3.11721,0,0,0-.44157-.73436c-.1788.38961-.49664.952-.54164,1.03132l-.23835.41992-.05815-.47931a19.43585,19.43585,0,0,0-1.13525-3.17531,6.08685,6.08685,0,0,1-.75571,1.36756,5.82039,5.82039,0,0,0-.629,1.30353l.04857.50932.00139.01361.00418.045.01052.11012-.00434.00031c-.00046.1027-.0283.1638-.139.17431-.09017.00805-.12884.01238-.161-.14569l-.01268.00123-.01469-.15513a7.858,7.858,0,0,0-.46447-1.47057c-.096,1.04849-.35542,1.65215-.78694,1.8376a.74154.74154,0,0,1-.537.01206,2.82136,2.82136,0,0,0,.44189.8748Z"/><rect class="cls-1" x="68.62657" y="16.88398" width="27.06916" height="0.61944"/><rect class="cls-1" x="48.48385" y="23.96973" width="67.35428" height="0.61929"/><rect class="cls-1" x="48.48401" y="21.37689" width="67.51358" height="0.5503"/><path class="cls-1" d="M115.59932,24.43868H49.04127V21.891h66.55805Zm-66.23959-.31846h65.92113V22.20946H49.35973Z"/><path class="cls-1" d="M95.05881,24.27952h-25.716V21.89085h25.716Zm-25.39737-.31861H94.74019V22.20946H69.66144Z"/><path class="cls-1" d="M58.595,52.78151H53.97715V45.77526H58.595Zm-4.29943-.31861h3.98081V46.09372H54.29561Z"/><path class="cls-1" d="M67.11377,52.70186H62.496V45.69561h4.61773ZM62.8145,52.3834h3.98081V46.01422H62.8145Z"/><path class="cls-1" d="M110.66329,53.02032h-4.61773V46.01407h4.61773Zm-4.29927-.31861h3.98081V46.33253H106.364Z"/><path class="cls-1" d="M102.22421,52.94067H97.60632V45.93442h4.61789Zm-4.29928-.31846h3.98082V46.253H97.92493Z"/><path class="cls-1" d="M58.61,46.09372H53.96973l.00773-.16657a2.43645,2.43645,0,0,1,2.38542-2.34088h0a2.33921,2.33921,0,0,1,2.23138,2.33392Zm-4.29664-.31846h3.94369a1.97691,1.97691,0,0,0-1.89173-1.87054A2.03872,2.03872,0,0,0,54.3134,45.77526Z"/><path class="cls-1" d="M67.12877,46.05382H62.48862l.00773-.16658a2.43615,2.43615,0,0,1,2.38527-2.34072h0A2.33907,2.33907,0,0,1,67.113,45.88028Zm-4.29648-.31846h3.94353A1.97678,1.97678,0,0,0,64.8841,43.865,2.03842,2.03842,0,0,0,62.83229,45.73536Z"/><path class="cls-1" d="M110.67829,46.33253h-4.64016l.00774-.16658a2.43656,2.43656,0,0,1,2.38527-2.34119h0a2.3393,2.3393,0,0,1,2.23138,2.33423Zm-4.29649-.31831h3.94354a1.96815,1.96815,0,0,0-1.89126-1.87115A2.03922,2.03922,0,0,0,106.3818,46.01422Z"/><path class="cls-1" d="M102.23921,46.21313H97.5989l.00773-.16658a2.43662,2.43662,0,0,1,2.38527-2.34119h0a2.33938,2.33938,0,0,1,2.23153,2.33423Zm-4.29664-.31831h3.94369a1.97754,1.97754,0,0,0-1.89188-1.87116A2.03911,2.03911,0,0,0,97.94257,45.89482Z"/><rect class="cls-1" x="97.36767" y="52.66196" width="5.09534" height="0.59717"/><rect class="cls-1" x="105.767" y="52.62205" width="5.09534" height="0.59732"/><path class="cls-1" d="M102.54251,56.68221H97.44717v-2.189h5.09534Zm-4.77673-.31846h4.45827V54.81151H97.76578Z"/><path class="cls-1" d="M110.82244,56.72211H105.7271V54.533h5.09534Zm-4.77673-.3183H110.504V54.85126h-4.45827Z"/><path class="cls-1" d="M58.91349,56.60271H53.81815V54.41356h5.09534Zm-4.77688-.3183h4.45827V54.73186H54.13661Z"/><path class="cls-1" d="M67.35273,56.64246H62.25739V54.45331h5.09534Zm-4.77688-.3183h4.45827V54.77161H62.57585Z"/><rect class="cls-1" x="53.73834" y="52.5823" width="5.09534" height="0.59717"/><rect class="cls-1" x="62.24409" y="52.5424" width="5.09534" height="0.59732"/><path class="cls-1" d="M71.82415,42.29913H69.15692V41.609h2.66723Zm-2.34862-.31846h2.03v-.05321h-2.03Z"/><path class="cls-1" d="M79.52036,42.24592H76.85314V41.5558h2.66722Zm-2.34861-.31846h2.03v-.0532h-2.03Z"/><path class="cls-1" d="M87.376,42.24592H84.70866V41.5558H87.376Zm-2.34877-.31846h2.03016v-.0532H85.02727Z"/><path class="cls-1" d="M95.37726,42.29913H92.73V41.609h2.64727Zm-2.32866-.31846h2.01005v-.05321H93.0486Z"/><path class="cls-1" d="M71.65185,57.21364H69.36959V42.03341h2.28226Zm-1.96365-.31846h1.645V42.35187h-1.645Z"/><path class="cls-1" d="M79.29486,57.16H77.01275V41.98067h2.28211Zm-1.96349-.31845h1.64488V42.29913H77.33137Z"/><path class="cls-1" d="M87.15023,57.16H84.868V41.98067h2.28226Zm-1.96365-.31845h1.645V42.29913h-1.645Z"/><path class="cls-1" d="M95.21811,57.21364H92.93585V42.03341h2.28226Zm-1.96365-.31846h1.645V42.35187h-1.645Z"/><rect class="cls-1" x="77.1054" y="53.49777" width="1.99041" height="0.31861"/><rect class="cls-1" x="84.98752" y="53.49777" width="1.99025" height="0.31861"/><path class="cls-1" d="M89.40094,40.22891H74.79236l7.477-4.486Zm-13.45879-.31845H88.29662l-6.03123-3.79383Z"/><path class="cls-1" d="M71.82415,25.36745H69.15692v-.68981h2.66723ZM69.47553,25.049h2.03v-.0529h-2.03Z"/><path class="cls-1" d="M79.52036,25.31455H76.85314v-.69012h2.66722Zm-2.34861-.31846h2.03v-.0532h-2.03Z"/><path class="cls-1" d="M87.376,25.31455H84.70866v-.69012H87.376Zm-2.34877-.31846h2.03016v-.0532H85.02727Z"/><path class="cls-1" d="M95.37726,25.36745H92.73v-.68981h2.64727ZM93.0486,25.049h2.01005v-.0529H93.0486Z"/><path class="cls-1" d="M71.65185,40.33532H69.31607V25.102h2.33578Zm-2.01732-.31861h1.69886V25.42066H69.63453Z"/><path class="cls-1" d="M77.01229,39.23441V24.99625h2.33547V37.85169Zm.31846-13.91986v13.3612l1.69855-1.00564V25.31455Z"/><path class="cls-1" d="M87.30938,39.2672l-2.33562-1.44413V24.99625h2.33562Zm-2.01716-1.62168,1.6987,1.05034V25.31471h-1.6987Z"/><path class="cls-1" d="M95.21811,40.28227H92.88233V25.049h2.33578Zm-2.01732-.31861h1.69886V25.3676H93.20079Z"/><path class="cls-1" d="M77.38411,41.83451H71.33323v-1.8178h6.05088Zm-5.73226-.31861h5.41364V40.33532H71.65185Z"/><path class="cls-1" d="M85.34558,41.79476H78.9365V39.97681h6.40908Zm-6.09047-.31861h5.772V40.29542h-5.772Z"/><path class="cls-1" d="M93.3072,41.79476H86.81862V39.97681H93.3072Zm-6.17012-.31861h5.85167V40.29542H87.13708Z"/><rect class="cls-1" x="69.46239" y="46.49168" width="2.03016" height="0.31861"/><path class="cls-1" d="M74.47807,57.24117l-3.1453-.02907.04052-11.318a3.16621,3.16621,0,0,1,1.70551-2.29031,3.08566,3.08566,0,0,1,1.23734-.33593l.16193-.00294Zm-2.82576-.34459,2.5073.0232V43.60049a2.87986,2.87986,0,0,0-.93526.2866,2.83885,2.83885,0,0,0-1.5343,2.03016Z"/><path class="cls-1" d="M77.35457,57.19013l-3.12845-.00355V43.26487l.16209.00294a3.097,3.097,0,0,1,1.23734.3347,3.14975,3.14975,0,0,1,1.70411,2.2603Zm-2.80983-.32155,2.49059.00263L77.01291,45.8857A2.82453,2.82453,0,0,0,75.48062,43.886a2.89745,2.89745,0,0,0-.93588-.28567Z"/><path class="cls-1" d="M74.75694,52.56359V44.19782l.16224.00325a1.485,1.485,0,0,1,.67064.20972,1.88906,1.88906,0,0,1,.89737,1.3835l.02166,6.74966Zm.31846-8.01947v7.69745l1.11391-.01253L76.17,45.81424a1.56851,1.56851,0,0,0-.74348-1.13A1.21992,1.21992,0,0,0,75.0754,44.54412Z"/><path class="cls-1" d="M73.9338,52.56359,72.18189,52.544l.02057-6.73064a1.89519,1.89519,0,0,1,.89846-1.40252,1.486,1.486,0,0,1,.67064-.20972l.16224-.00325ZM72.50128,52.229l1.11406.01253V44.54412a1.22573,1.22573,0,0,0-.35125.14012,1.57816,1.57816,0,0,0-.74425,1.149Z"/><path class="cls-1" d="M82.28024,57.20127l-3.14515-.02892.04037-11.318A3.1665,3.1665,0,0,1,80.881,43.564a3.08672,3.08672,0,0,1,1.23733-.33593l.16194-.00294Zm-2.82561-.34444,2.50715.023V43.56075a2.87957,2.87957,0,0,0-.93527.28659,2.83918,2.83918,0,0,0-1.53429,2.03016Z"/><path class="cls-1" d="M82.02844,57.14853V43.22512l.16209.00294a3.09591,3.09591,0,0,1,1.23734.3347,3.149,3.149,0,0,1,1.70411,2.2603L85.174,57.11945Zm.31846-13.58794V56.82713l2.50761-.0232-.03928-10.95767a2.82416,2.82416,0,0,0-1.53229-2A2.89318,2.89318,0,0,0,82.3469,43.56059Z"/><path class="cls-1" d="M82.55926,52.52384V44.15807l.16224.00325a1.48691,1.48691,0,0,1,.67064.20957,1.8911,1.8911,0,0,1,.89753,1.38365l.02165,6.7495Zm.31846-8.01963v7.69761l1.11406-.01268-.01949-6.41465a1.57035,1.57035,0,0,0-.74333-1.13015A1.23033,1.23033,0,0,0,82.87772,44.50421Z"/><path class="cls-1" d="M81.73612,52.52384l-1.75206-.0198.02072-6.73048a1.8964,1.8964,0,0,1,.89831-1.40267,1.48771,1.48771,0,0,1,.67079-.20957l.16224-.00325Zm-1.43268-.3347,1.11422.01268V44.50421a1.23579,1.23579,0,0,0-.3514.14013,1.5792,1.5792,0,0,0-.7441,1.14917Z"/><path class="cls-1" d="M90.201,57.20127l-3.26362-.02892.04222-11.318a3.19277,3.19277,0,0,1,1.77511-2.29139,3.30879,3.30879,0,0,1,1.28436-.33485l.16193-.00279ZM87.257,56.85683l2.62547.023v-13.32a3.10849,3.10849,0,0,0-.98678.28861,2.86826,2.86826,0,0,0-1.59925,2.03Z"/><path class="cls-1" d="M89.95155,57.14729v-13.922l.16194.00279a3.32332,3.32332,0,0,1,1.2842.33346,3.2259,3.2259,0,0,1,1.815,2.2835l.0232,11.2967ZM90.27,43.55982V56.82837l2.647-.00464-.021-10.95489a2.90509,2.90509,0,0,0-1.63854-2.0215A3.12723,3.12723,0,0,0,90.27,43.55982Z"/><path class="cls-1" d="M90.50464,52.52384V44.15822l.16209.0031a1.57962,1.57962,0,0,1,.6926.20818,1.88509,1.88509,0,0,1,.934,1.38427l.02289,6.75027Zm.31831-8.02133v7.69931l1.17376-.01268-.02041-6.41465a1.57344,1.57344,0,0,0-.77535-1.12876A1.31475,1.31475,0,0,0,90.823,44.50251Z"/><path class="cls-1" d="M89.63371,52.52384,87.822,52.504l.02181-6.73048a1.8892,1.8892,0,0,1,.93511-1.40406,1.582,1.582,0,0,1,.69275-.20818l.16209-.0031Zm-1.49222-.3347,1.17392.01268V44.50251a1.32272,1.32272,0,0,0-.37831.14322,1.58116,1.58116,0,0,0-.77628,1.14856Z"/><rect class="cls-1" x="77.1453" y="46.49168" width="2.03016" height="0.31861"/><rect class="cls-1" x="84.98752" y="46.49168" width="2.03016" height="0.31861"/><rect class="cls-1" x="93.02849" y="46.49168" width="2.03031" height="0.31861"/><rect class="cls-1" x="48.5236" y="57.20359" width="67.51358" height="0.5503"/><path class="cls-1" d="M71.49257,46.651a3.24736,3.24736,0,0,1,2.86614-1.3,3.76844,3.76844,0,0,1,2.78652,1.3Z"/><path class="cls-1" d="M79.20216,46.638a3.34358,3.34358,0,0,1,2.93333-1.3,3.9,3.9,0,0,1,2.852,1.3Z"/><path class="cls-1" d="M87.18992,46.638a3.34415,3.34415,0,0,1,2.93394-1.3,3.89976,3.89976,0,0,1,2.85184,1.3Z"/><rect class="cls-1" x="48.35115" y="40.75958" width="21.17744" height="0.31861"/><rect class="cls-1" x="94.92564" y="40.77288" width="21.17759" height="0.31861"/><path class="cls-1" d="M97.53053,73.83l.538-.13c.12875-.03108.31349-.07773.55357-.13869l-.85277-1.147Z"/><path class="cls-1" d="M112.34823,12.26566l.16484-1.42065-1.14509.86831.48142.27461Q112.022,12.08543,112.34823,12.26566Z"/><path class="cls-1" d="M44.33957,61.06678a4.87613,4.87613,0,0,0-.53212-.37505q-.30137.31719-1.05958,1.22531-.43569.52249-1.00731,1.25081a3.51543,3.51543,0,0,0,.40027.4068,1.21029,1.21029,0,0,0,.98894.33027,2.1202,2.1202,0,0,0,1.22534-.81729,1.75083,1.75083,0,0,0,.48887-1.1625A1.1935,1.1935,0,0,0,44.33957,61.06678Z"/><path class="cls-1" d="M71.07835,6.59a.93024.93024,0,0,0,.83376.22919.96317.96317,0,0,0,.55887-.27428,1.09577,1.09577,0,0,0,.26527-.63412,3.26462,3.26462,0,0,0-.02955-.94108,4.06691,4.06691,0,0,0-.19528-.75727,1.83993,1.83993,0,0,0-.28925-.54332A.98317.98317,0,0,0,71.8353,3.388a.96587.96587,0,0,0-.525-.046.99744.99744,0,0,0-.5567.278,1.11552,1.11552,0,0,0-.29263.64,2.89045,2.89045,0,0,0,.0143.90968A2.45063,2.45063,0,0,0,71.07835,6.59Z"/><path class="cls-1" d="M98.98165,6.0221a.77251.77251,0,0,0,.32219-.50256.77493.77493,0,0,0-.0342-.57409.62479.62479,0,0,0-.41614-.30291c-.07961-.02055-.1847-.04045-.31409-.06067l-.36387,1.41877c.08958.02707.15614.04573.19967.05691A.78971.78971,0,0,0,98.98165,6.0221Z"/><path class="cls-1" d="M62.61676,70.72257a.95716.95716,0,0,0-.44814-.27617.996.996,0,0,0-.62138-.0006,1.11147,1.11147,0,0,0-.54765.44037,2.8931,2.8931,0,0,0-.39371.81853,2.44887,2.44887,0,0,0-.09736,1.53819.9301.9301,0,0,0,.64221.57721.96269.96269,0,0,0,.62138.00557,1.09978,1.09978,0,0,0,.52061-.44781,3.2669,3.2669,0,0,0,.39464-.85338,4.03161,4.03161,0,0,0,.16391-.76379,1.8238,1.8238,0,0,0-.01433-.61453A.97992.97992,0,0,0,62.61676,70.72257Z"/><path class="cls-1" d="M69.89531,72.46477a1.85313,1.85313,0,0,0-.29419-.02487l-.27181,1.4965q.16514.04668.28642.069a.6521.6521,0,0,0,.534-.10512.89161.89161,0,0,0,.28923-.57409.78773.78773,0,0,0-.07618-.58281A.66792.66792,0,0,0,69.89531,72.46477Z"/><path class="cls-1" d="M116.65616,14.05512a.94639.94639,0,0,0,.64188-.91089.62228.62228,0,0,0-.2861-.42763q-.1017-.07-.27432-.16544l-.82972,1.206c.074.05627.13.097.16669.12251A.788.788,0,0,0,116.65616,14.05512Z"/><path class="cls-1" d="M79.8366,75.60211l.55418.01181q.19876.00372.571.00621l-.533-1.3267Z"/><path class="cls-1" d="M121.36586,20.40348a1.09634,1.09634,0,0,0,.6643-.17448,3.24638,3.24638,0,0,0,.729-.5946,4.06587,4.06587,0,0,0,.48269-.61453,1.83188,1.83188,0,0,0,.25562-.55918.97874.97874,0,0,0-.01181-.47769.96056.96056,0,0,0-.28177-.44473.99518.99518,0,0,0-.55855-.27305,1.11868,1.11868,0,0,0-.68606.15611,2.88151,2.88151,0,0,0-.71281.56355,2.45392,2.45392,0,0,0-.76191,1.34068.93135.93135,0,0,0,.32467.80083A.96012.96012,0,0,0,121.36586,20.40348Z"/><path class="cls-1" d="M108.81718,70.09747l.50508-.227q.181-.083.51874-.23945l-1.05118-.96971Z"/><path class="cls-1" d="M119.21192,63.66111a4.06022,4.06022,0,0,0-.51128-.5915,1.82545,1.82545,0,0,0-.50008-.35891.99016.99016,0,0,0-.47084-.07961.96306.96306,0,0,0-.49075.19158.99077.99077,0,0,0-.37508.49636,1.11459,1.11459,0,0,0,.02178.70284,2.90316,2.90316,0,0,0,.4161.80856,2.4533,2.4533,0,0,0,1.17059,1.00452.93268.93268,0,0,0,.84842-.1648.96193.96193,0,0,0,.37877-.49387,1.09869,1.09869,0,0,0-.04354-.68545A3.26491,3.26491,0,0,0,119.21192,63.66111Z"/><path class="cls-1" d="M82.00238,0C52.33682,0,28.28844,17.78909,28.28844,39.73264c0,21.94307,24.04838,39.732,53.71394,39.732,29.66415,0,53.71282-17.789,53.71282-39.732C135.7152,17.78909,111.66653,0,82.00238,0Zm41.47827,17.37251a1.99584,1.99584,0,0,1,.7022,1.39234,1.89642,1.89642,0,0,1-.584,1.39138,2.45181,2.45181,0,0,1-.8565.599,1.97019,1.97019,0,0,1-.73519.1555,1.91165,1.91165,0,0,1-.64686-.09643,2.418,2.418,0,0,1-.84032-.54549,1.83422,1.83422,0,0,1-.08025-2.84031,2.0841,2.0841,0,0,1,1.49093-.71685A2.14055,2.14055,0,0,1,123.48065,17.37251Zm-3.96332-2.988c-.01867-.02178-.04481-.0535-.07838-.09486l.13-.1614q.54112.47445.82038.6988.29952.2398.8223.62077l-.12939.1614-.08955-.05379a1.02813,1.02813,0,0,0-.418-.19222.34515.34515,0,0,0-.22082.15614l-.06344.07866-.59151.72742-.66863.83752-.34025.427a1.11382,1.11382,0,0,0-.17044.25066.16745.16745,0,0,0,.00685.12378,1.58082,1.58082,0,0,0,.25751.34025c.01557.01678.03856.04289.07028.07773l-.12936.1614q-.42825-.383-.76815-.65651-.32378-.25934-.87516-.663l.13-.16139q.39095.20989.43416.22327a.21094.21094,0,0,0,.12191.00468.55614.55614,0,0,0,.19967-.17729q.29574-.35826.99455-1.229l.63195-.79959.05226-.0656a.43881.43881,0,0,0,.1306-.265A1.0636,1.0636,0,0,0,119.51733,14.38446Zm-5.90335.13593a2.093,2.093,0,0,0,.5175.19435.27522.27522,0,0,0,.16983-.11069q.04944-.05742.826-1.17528l.47208-.6879a6.11484,6.11484,0,0,0,.38441-.59559.20142.20142,0,0,0,.01058-.15082,1.39045,1.39045,0,0,0-.26808-.30913l-.089-.09267.11755-.17044q.76134.56354.90127.66058.15018.10356.43912.29139c.19219.12535.3334.21862.42234.28021a1.598,1.598,0,0,1,.47393.45654.84378.84378,0,0,1,.11446.49136.97788.97788,0,0,1-.17789.50664,1.14184,1.14184,0,0,1-.34954.32839,1.1595,1.1595,0,0,1-.43852.16143,1.49429,1.49429,0,0,1-.4155-.01462q-.02985.37785-.0684,1.07913a4.37636,4.37636,0,0,0-.01.63288.62924.62924,0,0,0,.06968.2118,2.28485,2.28485,0,0,0,.36448.40833l-.11818.17044q-.37413-.29578-.62011-.46651-.26034-.17961-.65809-.417.16608-.84154.30291-1.97948-.12873-.09516-.26123-.20773l-.65558.96283a.69959.69959,0,0,0-.12191.24072.17.17,0,0,0,.02924.11038,4.84438,4.84438,0,0,0,.35018.37476l-.11818.17044q-.51873-.396-.844-.62077-.32-.22108-.86952-.56352Zm-.37878-4.65407.19716.11134q-.09606.70115-.26684,2.66865-.09514,1.09348-.08458,1.25706a.43511.43511,0,0,0,.041.17789,1.98868,1.98868,0,0,0,.27865.29856l-.102.18037q-.41612-.27055-.78742-.47925-.36577-.20664-.92991-.48858l.102-.18069a1.487,1.487,0,0,0,.39062.1048.12636.12636,0,0,0,.09891-.06655.28723.28723,0,0,0,.02924-.08647q.01863-.125.09327-.75758-.34055-.2015-.56912-.33088-.18845-.10542-.63131-.34585a6.177,6.177,0,0,0-.66554.54737.1152.1152,0,0,0-.00994.10885,1.8168,1.8168,0,0,0,.29791.28178l-.102.18037q-.292-.19968-.57285-.35827-.30228-.17077-.62947-.3197l.1014-.18041a1.0168,1.0168,0,0,0,.362.06564.42336.42336,0,0,0,.16856-.0594q.181-.09984,1.239-.86987Q111.95392,10.8385,113.2352,9.86632Zm-5.797-2.09581q.07557-.13758.27865-.54361.99269.49265,1.95614.92987.81733.36762,1.17992.51625a9.71526,9.71526,0,0,0-.41734,1.10528l-.23636-.10885q.07185-.61761.06532-.70657a.24393.24393,0,0,0-.06408-.15146,2.06313,2.06313,0,0,0-.43912-.23792L109.51509,8.46l-1.09471,2.37382a2.85429,2.85429,0,0,0-.21585.54734.15113.15113,0,0,0,.0392.11261,3.42672,3.42672,0,0,0,.41549.31285l-.08709.18783q-.76226-.3853-.98338-.487-.29946-.13853-.93047-.39527l.08707-.18815a2.70216,2.70216,0,0,0,.53428.111.16254.16254,0,0,0,.11257-.06064,3.93861,3.93861,0,0,0,.265-.5237l1.08288-2.348-.42731-.19716a.81094.81094,0,0,0-.30231-.09579.29709.29709,0,0,0-.17538.07589,4.94372,4.94372,0,0,0-.45717.48266l-.23076-.10637Q107.36269,7.90831,107.43825,7.77051Zm-2.9669,1.76461q.1735-.43105.5803-1.47227l.362-.95289.03111-.07837a.43231.43231,0,0,0,.04417-.29232,1.05149,1.05149,0,0,0-.35827-.27492c-.02427-.01554-.05847-.038-.10324-.0672l.07525-.19343q.65959.29063.99331.42046.35735.14.97155.34585l-.07525.19343-.1014-.02487a1.038,1.038,0,0,0-.45715-.05786.34827.34827,0,0,0-.16359.21585l-.03669.09391-.34584.872-.3875,1.00047-.19592.50973a1.16224,1.16224,0,0,0-.0877.29046.17124.17124,0,0,0,.04353.11631,1.58949,1.58949,0,0,0,.34894.24693c.01929.01181.04913.02955.09018.0535l-.07525.19311q-.52435-.23745-.93111-.39619-.38626-.15072-1.03375-.37008l.07525-.19315q.43665.083.48141.08274a.2098.2098,0,0,0,.11818-.03236A.5633.5633,0,0,0,104.47135,9.53512Zm-3.3942-1.62277.05907-.17789.26063.08614a1.75857,1.75857,0,0,0,.01554.78962.71219.71219,0,0,0,.47273.42511.64848.64848,0,0,0,.50692-.0177.60693.60693,0,0,0,.31221-.37164.63088.63088,0,0,0,.02615-.31566.77441.77441,0,0,0-.13312-.30075,3.39681,3.39681,0,0,0-.4161-.44161,2.22238,2.22238,0,0,1-.58469-.76287.95434.95434,0,0,1-.0006-.64033A1.09528,1.09528,0,0,1,102.226,5.494a1.60021,1.60021,0,0,1,1.14881.023,3.35856,3.35856,0,0,1,.92366.49759q-.15486.4124-.20837.57441c-.04168.12594-.08085.26311-.11878.412l-.2656-.08831a1.35729,1.35729,0,0,0-.0392-.7722.69728.69728,0,0,0-.42607-.33432.63465.63465,0,0,0-.474.00093.4987.4987,0,0,0-.27241.31224.55309.55309,0,0,0,.02239.40273,2.2934,2.2934,0,0,0,.53676.62326,2.08218,2.08218,0,0,1,.57224.74949,1.10717,1.10717,0,0,1-.00994.73424,1.21294,1.21294,0,0,1-.63816.71934,1.68015,1.68015,0,0,1-1.28192-.02487,3.4389,3.4389,0,0,1-.52807-.22235,3.32356,3.32356,0,0,1-.441-.28146Q100.926,8.36733,101.07715,7.91235ZM96.83826,7.5124a.27717.27717,0,0,0,.12191-.16264q.02707-.07142.36947-1.388l.20589-.80924A5.95658,5.95658,0,0,0,97.691,4.4612a.20078.20078,0,0,0-.04165-.14521,1.394,1.394,0,0,0-.35827-.19812l-.1157-.056.05163-.20057q.90874.26637,1.07419.30913c.11754.03048.288.07121.5125.12219q.33591.07653.49326.11726a1.59747,1.59747,0,0,1,.60208.26528.84329.84329,0,0,1,.27741.42141.98243.98243,0,0,1,.00745.53677,1.13413,1.13413,0,0,1-.21458.42919,1.16739,1.16739,0,0,1-.35578.30288,1.48877,1.48877,0,0,1-.395.12939q.1017.36482.30789,1.03684a4.44251,4.44251,0,0,0,.20836.59775.6522.6522,0,0,0,.13869.17445,2.328,2.328,0,0,0,.48329.25783l-.05225.2006q-.45343-.1488-.74329-.22359c-.204-.0529-.45839-.10761-.76131-.16484q-.13433-.84719-.39868-1.9627-.153-.04522-.31722-.1048l-.283,1.13015a.71476.71476,0,0,0-.03172.26808.17174.17174,0,0,0,.06532.09331q.03357.02889.45839.23107l-.05163.2006q-.62413-.19314-1.00636-.29174-.37695-.097-1.01136-.22888l.05222-.20092A2.09388,2.09388,0,0,0,96.83826,7.5124ZM93.02608,6.437l.01678-.09328L93.25,5.25518l.163-.88012.07214-.40741a1.30392,1.30392,0,0,0,.03732-.37132.22844.22844,0,0,0-.09579-.13436,2.34923,2.34923,0,0,0-.45155-.18286l.03793-.20368q.65682.15534,1.435.29948.90216.167,1.86534.31037a8.33889,8.33889,0,0,0-.11694,1.017l-.23324-.04354c-.01121-.06251-.01866-.11009-.02238-.14308a1.34038,1.34038,0,0,0-.12752-.49572.62364.62364,0,0,0-.33463-.12751l-1.05053-.19407q-.10825.46094-.27681,1.34537l.47708.09394a.88293.88293,0,0,0,.47393.01242,1.14745,1.14745,0,0,0,.27433-.45746l.22827.04229q-.10543.39886-.16235.70688-.05414.29392-.10513.73988l-.22827-.04229a1.29535,1.29535,0,0,0-.05411-.539.82213.82213,0,0,0-.41985-.14585L94.09652,5.355l-.28423,1.53724,1.0947.20248a.86244.86244,0,0,0,.24566.0227.45422.45422,0,0,0,.19968-.09394,3.39685,3.39685,0,0,0,.50071-.51065l.24257.04481q-.24352.42169-.54488,1.02314-.932-.20432-1.95553-.39307-.46461-.08585-1.30368-.20961l.03793-.2034a2.03367,2.03367,0,0,0,.54673-.03545Q92.97884,6.69261,93.02608,6.437ZM88.44637,2.51532q.77434.12177,1.01073.14958.31719.03731.94293.07962l-.02363.20556a1.62669,1.62669,0,0,0-.408.07652.12293.12293,0,0,0-.06032.09424.53752.53752,0,0,0,.02179.17445l.51188,2.21553.68418-1.36215.36948-.77128a.27858.27858,0,0,0,.0199-.07089.11807.11807,0,0,0-.06034-.11133q-.01587-.01028-.36136-.16047l.02363-.20589q.44688.08351.69972.11318.23047.02709.67612.04854l-.02363.20556a1.14041,1.14041,0,0,0-.385.08739.30837.30837,0,0,0-.10824.10388q-.0513.07461-.69163,1.2589-.45066.83783-1.12643,2.15272L89.908,6.76975l-.59587-2.33839q-.34614-1.28053-.39932-1.40227a.30977.30977,0,0,0-.07961-.11353,1.69485,1.69485,0,0,0-.41113-.19468Zm-2.8083,3.59945q.44128-.0522.4839-.06592a.20825.20825,0,0,0,.10264-.06624.55271.55271,0,0,0,.06219-.25967q.03641-.46326.11073-1.57832l.05908-1.01757.0056-.08366a.43773.43773,0,0,0-.04477-.29235,1.06659,1.06659,0,0,0-.42483-.15454c-.02739-.00749-.06719-.01835-.11882-.033l.0143-.20684q.71563.07839,1.07356.10232.38253.02565,1.03.03764l-.01369.20681-.10449.00716a1.03306,1.03306,0,0,0-.45282.0821.34905.34905,0,0,0-.09143.2547l-.00682.10045-.0678.93611L87.1862,5.15411l-.033.54517a1.10685,1.10685,0,0,0,.00312.30324.16982.16982,0,0,0,.07649.09764,1.57348,1.57348,0,0,0,.40677.131c.02178.00528.056.013.102.02363l-.01369.2068q-.571-.069-1.00639-.09795-.41331-.02752-1.09719-.042Zm-4.82122-.11009c.05786-.00993.102-.0177.13187-.023a1.154,1.154,0,0,0,.385-.09207.17054.17054,0,0,0,.05723-.0877q.01772-.05689.04882-.83191.0471-1.12191.05939-1.92538a1.22743,1.22743,0,0,0-.02427-.34457.22768.22768,0,0,0-.10324-.11914,1.63687,1.63687,0,0,0-.3819-.10353c-.03172-.00624-.07837-.01618-.13964-.03019l.00312-.20712q.383.03639.71309.04136.33311.00516.7845-.01926.334.4646,2.01651,2.56942l.01182-1.52293a3.35806,3.35806,0,0,0-.03424-.62043.21151.21151,0,0,0-.09515-.09952,2.39184,2.39184,0,0,0-.47209-.09827l.00312-.20713q.45061.03779.78619.0429.32468.00468.8291-.01866l-.00308.20712c-.05847.01029-.1014.01711-.12939.02054a.956.956,0,0,0-.3962.10449.37862.37862,0,0,0-.079.24693q-.03449.39094-.05223,1.6116-.01122.78371.00434,1.79194a2.61909,2.61909,0,0,0-.26184.08834l-1.0406-1.35345L81.84936,3.03314l-.0115,1.3295.00341,1.29374a.5778.5778,0,0,0,.0249.18347.14747.14747,0,0,0,.05535.061,1.795,1.795,0,0,0,.39575.10385q.03917.00656.11754.02427l-.00311.20712q-.48119-.03826-.77205-.04229-.24912-.00372-.84589.018Zm-3.91106-3.527q.39417-.02235,1.035-.09051l.01181.20684a2.711,2.711,0,0,0-.50756.144.15677.15677,0,0,0-.08458.08646,1.36517,1.36517,0,0,0-.00685.37008L77.436,4.62512a3.00357,3.00357,0,0,0,.1048.74825.77725.77725,0,0,0,.326.4046,1.34454,1.34454,0,0,0,1.30928-.0992.82471.82471,0,0,0,.26684-.49883,5.45176,5.45176,0,0,0,.00684-1.02939q-.00979-.16748-.07681-.943a2.59393,2.59393,0,0,0-.07124-.5032.13458.13458,0,0,0-.06251-.06684,1.45829,1.45829,0,0,0-.36852-.074c-.02488-.00405-.06159-.00965-.11073-.01586l-.01182-.20713q.59153-.00282.8372-.0171.29111-.01681.75822-.07465l.01182.20681a1.93511,1.93511,0,0,0-.48454.15426.198.198,0,0,0-.07277.1443q-.01586.15768.04853,1.424.03636.72681.01863.95474a1.5763,1.5763,0,0,1-.12343.51346,1.214,1.214,0,0,1-.28645.37661,1.31414,1.31414,0,0,1-.43477.26591,2.38355,2.38355,0,0,1-.68729.13776,2.2682,2.2682,0,0,1-.99955-.12315,1.06424,1.06424,0,0,1-.53709-.44284,1.99528,1.99528,0,0,1-.19311-.84529l-.09952-1.727a1.51753,1.51753,0,0,0-.05754-.41674.16508.16508,0,0,0-.093-.079,3.83684,3.83684,0,0,0-.48515-.07837l-.01181-.20713Q76.51189,2.50069,76.90579,2.47768ZM69.87913,3.85135a2.1419,2.1419,0,0,1,1.46759-.83,1.99921,1.99921,0,0,1,1.53415.288,1.89749,1.89749,0,0,1,.751,1.31021,2.45211,2.45211,0,0,1-.04477,1.04525,1.97311,1.97311,0,0,1-.32314.67892,1.90822,1.90822,0,0,1-.47021.4553,2.40343,2.40343,0,0,1-.9442.33649,2.00507,2.00507,0,0,1-1.55093-.28674,2.00276,2.00276,0,0,1-.756-1.37584A2.08815,2.08815,0,0,1,69.87913,3.85135Zm-2.68949.0815q.8705-.21182,1.24833-.31722a9.73538,9.73538,0,0,0,.34958,1.12891l-.25346.05907q-.32235-.53133-.38254-.59771a.24442.24442,0,0,0-.144-.08026,2.08377,2.08377,0,0,0-.49231.0821l-.26435.06159.59431,2.54644a2.798,2.798,0,0,0,.16639.56475.14571.14571,0,0,0,.09981.06407,3.29478,3.29478,0,0,0,.52-.00744l.04694.20152q-.8383.16417-1.07572.21954-.32187.07467-.97717.25971l-.04694-.20184a2.70034,2.70034,0,0,0,.48983-.24073A.16177.16177,0,0,0,67.12,7.55841a3.98611,3.98611,0,0,0-.11261-.576l-.58807-2.519-.4581.107a.818.818,0,0,0-.29763.10978.30091.30091,0,0,0-.09175.16795,4.95944,4.95944,0,0,0-.06376.66179l-.248.05787q-.0471-.4115-.072-.56664-.02474-.15536-.11413-.60023Q66.16041,4.17928,67.18964,3.93285Zm-6.09738,1.6915q.37695-.11709.98245-.338l.06159.1978a2.6846,2.6846,0,0,0-.45779.26247.15575.15575,0,0,0-.06143.10417,1.3851,1.3851,0,0,0,.08334.36107l.42607,1.36839a2.9884,2.9884,0,0,0,.28254.70067.7777.7777,0,0,0,.41425.31378,1.34426,1.34426,0,0,0,1.24632-.413.82454.82454,0,0,0,.13837-.54861,5.46468,5.46468,0,0,0-.24241-1.00079q-.05016-.16046-.3026-.89659a2.62369,2.62369,0,0,0-.19079-.47116.13147.13147,0,0,0-.07681-.04914,1.4247,1.4247,0,0,0-.37585.01678c-.02487.0022-.06175.00593-.11088.01121l-.06156-.19779q.57308-.14556.80828-.21926.278-.08628.71778-.25563l.06155.1978a1.93283,1.93283,0,0,0-.43288.26651.19919.19919,0,0,0-.03592.158q.02237.15674.39154,1.37024.21085.69647.24879.9221a1.572,1.572,0,0,1,.00452.52778,1.20689,1.20689,0,0,1-.18691.43508,1.31693,1.31693,0,0,1-.3575.36323,2.395,2.395,0,0,1-.63364.30012,2.26614,2.26614,0,0,1-.99987.12191,1.064,1.064,0,0,1-.62835-.2998,1.99307,1.99307,0,0,1-.39186-.77344l-.51425-1.65169a1.53619,1.53619,0,0,0-.15671-.391.163.163,0,0,0-.10917-.05378,3.73358,3.73358,0,0,0-.49.041L60.0809,5.907Q60.7156,5.7419,61.09226,5.62435ZM58.22332,6.65622q.83037-.33725,1.18894-.49728A9.67147,9.67147,0,0,0,59.924,7.22441l-.24228.0958q-.397-.47865-.46632-.53556a.24131.24131,0,0,0-.1541-.05783,2.05093,2.05093,0,0,0-.47537.15331L58.33328,6.98l.96236,2.43294a2.77857,2.77857,0,0,0,.24773.5346.14608.14608,0,0,0,.10821.04914,3.40107,3.40107,0,0,0,.51345-.084l.07621.19252q-.80566.28551-1.03235.37537-.30744.12127-.92879.40055l-.07621-.19279a2.69409,2.69409,0,0,0,.44939-.3104.16331.16331,0,0,0,.03391-.12347,4.029,4.029,0,0,0-.19624-.55326l-.95213-2.40679-.43756.17324a.81257.81257,0,0,0-.27849.15238.29844.29844,0,0,0-.06592.17974,4.87553,4.87553,0,0,0,.03388.66431l-.237.09391q-.10728-.40072-.15458-.55045-.0471-.15024-.201-.57721Q57.24075,7.051,58.22332,6.65622ZM54.6461,8.18167q.34824-.16142.92226-.46154l.08726.18786-.08819.05659a1.0344,1.0344,0,0,0-.35827.28954.34919.34919,0,0,0,.0423.26744l.04245.09146.38966.85367.45406.97219.23232.49447a1.10883,1.10883,0,0,0,.14882.26436.16887.16887,0,0,0,.114.04913,1.57971,1.57971,0,0,0,.4197-.08025c.02175-.00589.05551-.01554.10108-.02859l.08723.18846q-.53417.21362-.93035.39744-.37623.17445-.98337.48982l-.08723-.18815q.36248-.25752.39339-.29046a.209.209,0,0,0,.05831-.10732.55926.55926,0,0,0-.07012-.2578q-.19055-.42357-.66087-1.438L54.524,9.01014,54.48859,8.934q-.09426-.20294-.1799-.23451a1.0579,1.0579,0,0,0-.44677.06811q-.04174.01028-.12.028l-.08722-.18815Q54.3208,8.33265,54.6461,8.18167ZM51.90547,9.53449q.78417-.43288,1.12129-.6332a9.81,9.81,0,0,0,.633.99707l-.22907.12378q-.45037-.42824-.52575-.47644a.24262.24262,0,0,0-.15951-.03981,2.0492,2.0492,0,0,0-.4539.20836l-.23885.12876,1.24056,2.30074a2.78241,2.78241,0,0,0,.30833.50164.14709.14709,0,0,0,.11306.03576,3.355,3.355,0,0,0,.49979-.14368l.09827.18225q-.76622.37833-.98044.49384-.29082.15677-.87481.50631l-.09827-.18225a2.69512,2.69512,0,0,0,.40973-.36075.16322.16322,0,0,0,.01914-.12659,4.03729,4.03729,0,0,0-.25971-.52587L51.30119,10.2479l-.41394.2233a.81911.81911,0,0,0-.25858.18382.29868.29868,0,0,0-.04433.18594,4.88749,4.88749,0,0,0,.11165.6553l-.22423.12067q-.15324-.38441-.21786-.52779-.06433-.14321-.26728-.54921Q50.977,10.04127,51.90547,9.53449Zm-4.49436,2.92492a1.59839,1.59839,0,0,1,.74281-.87544,3.34084,3.34084,0,0,1,.96827-.40244q.22231.37971.314.52339.10681.16748.24442.35205l-.23588.15054a1.35491,1.35491,0,0,0-.62339-.45686.69781.69781,0,0,0-.52807.11942.63373.63373,0,0,0-.29808.3676.49894.49894,0,0,0,.06981.40864.55262.55262,0,0,0,.32671.23637,2.28593,2.28593,0,0,0,.82178-.023,2.07461,2.07461,0,0,1,.94188.02987,1.10067,1.10067,0,0,1,.56275.47085,1.21061,1.21061,0,0,1,.15518.94821,1.67959,1.67959,0,0,1-.82818.97808,3.42916,3.42916,0,0,1-.50536.26932,3.2863,3.2863,0,0,1-.4962.16392q-.22485-.44087-.48221-.84437l-.10092-.158.23124-.14741a1.76735,1.76735,0,0,0,.62214.4861.71268.71268,0,0,0,.62775-.0986.64853.64853,0,0,0,.30616-.40428.60488.60488,0,0,0-.09127-.47613.62433.62433,0,0,0-.22827-.21958.77345.77345,0,0,0-.31721-.08646,3.36734,3.36734,0,0,0-.60457.04385,2.22187,2.22187,0,0,1-.96038-.028.95559.95559,0,0,1-.49664-.40367A1.09293,1.09293,0,0,1,47.41111,12.45941Zm-4.20669,2.807q.264-.2034.60208-.50256.551.15582,3.17683.75883l-.93765-1.19983a3.26057,3.26057,0,0,0-.41253-.46492.21092.21092,0,0,0-.13636-.01866,2.33324,2.33324,0,0,0-.43027.21645l-.12643-.16423q.376-.2505.6422-.45527.25728-.19829.63784-.52994l.12628.16419c-.039.04417-.06841.07621-.08831.09643a.94346.94346,0,0,0-.24538.32839.3756.3756,0,0,0,.09127.24226q.21669.328.96115,1.2947.47787.62137,1.11709,1.401a2.66968,2.66968,0,0,0-.1499.232l-1.657-.4133L43.893,15.67945l.81761,1.04837.80657,1.01136a.58375.58375,0,0,0,.13388.12812.155.155,0,0,0,.08117.01369,1.83459,1.83459,0,0,0,.37476-.16483q.0345-.01959.107-.05411l.12626.1642q-.40024.26917-.631.4469-.19754.1516-.65122.53988l-.12627-.1642.08894-.10012a1.15156,1.15156,0,0,0,.24414-.31161.16864.16864,0,0,0-.00946-.10389q-.02173-.0555-.47909-.682-.66012-.90876-1.15025-1.545a1.20924,1.20924,0,0,0-.2334-.255.2259.2259,0,0,0-.15486-.02923,1.64836,1.64836,0,0,0-.36356.15645c-.02847.01491-.0712.03577-.128.06312l-.12639-.16419Q42.94258,15.46782,43.20442,15.26644Zm-1.74624,1.55593q.28221-.25938.73736-.719l.14.15238-.06688.08023a1.03232,1.03232,0,0,0-.25282.3844.34864.34864,0,0,0,.12127.24162l.06812.07433.62978.69386.72679.78711.371.4a1.107,1.107,0,0,0,.22174.20649.171.171,0,0,0,.12331.01245,1.60138,1.60138,0,0,0,.37492-.204l.0877-.05787.13994.1527q-.44316.36529-.76459.66026-.30487.28036-.787.76444l-.13993-.15242q.2666-.355.2861-.39556a.21041.21041,0,0,0,.023-.12006.55984.55984,0,0,0-.14493-.22391q-.31-.34571-1.06484-1.16779l-.6951-.74421-.05659-.0619q-.15162-.16467-.24225-.16885a1.05665,1.05665,0,0,0-.4046.20056c-.02427.01494-.05959.03577-.10561.06315L40.644,17.528Q41.19444,17.0648,41.45818,16.82237ZM32.216,40.91893a.95538.95538,0,1,1,.95538-.95538A.95534.95534,0,0,1,32.216,40.91893ZM42.96994,64.35835a2.49032,2.49032,0,0,1-1.05086-.55294c-.033-.02736-.16235-.14369-.38782-.3477q-.33867-.306-.38129-.34148-.15066-.12593-.80143-.6251l.1328-.15923.10451.05847a1.23728,1.23728,0,0,0,.40677.18289.24617.24617,0,0,0,.16264-.07962q.11478-.11569,1.09907-1.29438.72211-.8658.79646-.98958a.21283.21283,0,0,0,.03793-.15426,1.476,1.476,0,0,0-.255-.35827l-.074-.09515.1328-.15863q.48051.44134.807.71405.24912.20808.70035.56227.32889.25662.54361.4354a2.12974,2.12974,0,0,1,.55422.63756,1.45587,1.45587,0,0,1,.148.86331,1.83447,1.83447,0,0,1-.4503.91745,2.29958,2.29958,0,0,1-1.01449.72214A2.17688,2.17688,0,0,1,42.96994,64.35835Zm4.38318,3.42532q-.77582-.55608-1.64083-1.13515-.39281-.26216-1.11429-.70845l.11506-.17228a2.02874,2.02874,0,0,0,.51657.1841q.1124-.00186.25719-.2183l.05286-.079.62046-.91742.49819-.74453.228-.34581a1.288,1.288,0,0,0,.18133-.32595.228.228,0,0,0-.03516-.16171,2.28188,2.28188,0,0,0-.34177-.34645l.11506-.17229q.5416.403,1.19951.84341.76272.51036,1.59074,1.02381a8.19548,8.19548,0,0,0-.51.88758l-.1975-.13248c.01461-.06159.02675-.10885.03671-.14a1.35362,1.35362,0,0,0,.0793-.50568q-.02938-.097-.25719-.25l-.88821-.594q-.28175.38067-.78714,1.12582l.4012.27553a.886.886,0,0,0,.43071.199,1.15492,1.15492,0,0,0,.4326-.31161l.19282.12939q-.25422.32463-.42855.58465-.16652.24912-.39.63817l-.19283-.12936a1.28905,1.28905,0,0,0,.16391-.51625q-.02331-.09612-.32779-.30044l-.45562-.30477-.86984,1.3.92551.61889a.88059.88059,0,0,0,.21677.11879.44567.44567,0,0,0,.22051-.00746,3.43329,3.43329,0,0,0,.66239-.27056l.20464.13681Q47.86842,67.35075,47.35312,67.78367Zm3.35844,1.517a1.07123,1.07123,0,0,0,.31005.13309.60875.60875,0,0,0,.27617-.04229,5.18712,5.18712,0,0,0,.604-.31846l.22018.1219q-.41425.362-.86987.81669-1.02579-.60179-1.71637-.98337-.56634-.31256-1.1905-.622l.10013-.18162a2.864,2.864,0,0,0,.54488.148.19033.19033,0,0,0,.12067-.08831q.05875-.08121.65962-1.16875l.48982-.89254.08675-.15675a2.551,2.551,0,0,0,.233-.48514.15192.15192,0,0,0-.02239-.11942,4.26607,4.26607,0,0,0-.39311-.34957l.10012-.18162q.61208.37322.96223.56663.35779.19782.96783.49948l-.10016.18161a5.15282,5.15282,0,0,0-.60271-.20527c-.06436.00063-.12812.05846-.19124.17231l-.35486.62571-1.12581,2.03763Zm8.32441.22019a.174.174,0,0,0-.06656.04789,3.29738,3.29738,0,0,0-.25066.52371q-.29856.71282-.38718.93051-.363.88539-.52186,1.31052a.29712.29712,0,0,0-.01555.22206,1.12887,1.12887,0,0,0,.3592.27554l.09455.05722-.07837.19156q-.53507-.25284-.96223-.42792-.42219-.17259-.99083-.37256l.0787-.19159.47112.09019a.20994.20994,0,0,0,.14245-.0336.59808.59808,0,0,0,.13063-.22639l.4755-1.13888-.70813-.30228q-.04944-.01959-.73956-.29107-.432,1.0608-.50317,1.2732a.24756.24756,0,0,0-.00127.18971,1.12115,1.12115,0,0,0,.35146.26187c.02238.01366.05722.0348.10384.064l-.07866.19158q-.56306-.264-1.01913-.45094-.46886-.19223-.93363-.34893l.07837-.19159q.38627.07653.4718.08086a.20049.20049,0,0,0,.14089-.03732.62236.62236,0,0,0,.13276-.23136l.42391-1.00576q.32373-.79025.54517-1.35285a.94354.94354,0,0,0,.097-.3626.17463.17463,0,0,0-.05286-.10328,3.79629,3.79629,0,0,0-.41021-.27989l.07869-.19155q.45668.22017.94137.41858.50477.20712,1.01136.38129l-.07837.19159a3.58321,3.58321,0,0,0-.502-.09207.19013.19013,0,0,0-.13372.05286,1.52118,1.52118,0,0,0-.18222.367l-.07032.17977-.27553.66427q.363.16424.78246.33528.3779.15486.66554.25811l.37133-.92178a1.04348,1.04348,0,0,0,.09764-.31971.20162.20162,0,0,0-.07028-.13808,3.74822,3.74822,0,0,0-.40585-.27181l.07869-.19158q.488.23325.90748.40492.39372.16142,1.045.395l-.07837.19159-.44785-.08086A.241.241,0,0,0,59.036,69.5209Zm4.63416,3.10434a2.45359,2.45359,0,0,1-.50725.91372,1.98442,1.98442,0,0,1-.59275.46152,1.91251,1.91251,0,0,1-.62325.19655,2.409,2.409,0,0,1-.99331-.12254,1.83288,1.83288,0,0,1-1.31613-2.516,2.08333,2.08333,0,0,1,1.025-1.29747,2.14058,2.14058,0,0,1,1.68216-.08458,1.99331,1.99331,0,0,1,1.24088.94293A1.89577,1.89577,0,0,1,63.67013,72.62524Zm3.65263-.29483q-.04667.19409-.084.42046l-.27212-.06528a1.36022,1.36022,0,0,0-.10293-.76691.6974.6974,0,0,0-.45218-.298.63832.63832,0,0,0-.47211.04045.49965.49965,0,0,0-.246.33336.55248.55248,0,0,0,.05627.4,2.29632,2.29632,0,0,0,.58654.57657,2.07715,2.07715,0,0,1,.63163.69914,1.10334,1.10334,0,0,1,.0507.73268,1.21291,1.21291,0,0,1-.576.76943,1.6816,1.6816,0,0,1-1.27944.08086,3.4975,3.4975,0,0,1-.54485-.17729,3.27288,3.27288,0,0,1-.46215-.24445q.16142-.46742.27432-.933l.04382-.18225.26655.06468a1.76992,1.76992,0,0,0,.08115.78558.714.714,0,0,0,.50631.38438.6527.6527,0,0,0,.50413-.05972.60572.60572,0,0,0,.27989-.39619.63013.63013,0,0,0,0-.31658.764.764,0,0,0-.158-.28862,3.37394,3.37394,0,0,0-.45033-.40553,2.22331,2.22331,0,0,1-.64625-.7122.95682.95682,0,0,1-.05347-.63752,1.09411,1.09411,0,0,1,.57036-.74081,1.60145,1.60145,0,0,1,1.14633-.07152,3.34494,3.34494,0,0,1,.96159.41922Q67.36317,72.165,67.32276,72.33041Zm4.0103,1.073a1.1809,1.1809,0,0,1-.52342.81417,1.4063,1.4063,0,0,1-1.05738.16544,3.23283,3.23283,0,0,1-.47957-.13557q-.12826.73985-.14926.85522l-.03921.20028a.6517.6517,0,0,0-.01366.32531c.03733.06716.1984.14493.48451.23324.03235.00933.08089.02487.14493.04605l-.03669.204q-.78279-.17354-1.13263-.237-.40494-.07371-1.03875-.15736l.03732-.204a1.97516,1.97516,0,0,0,.56571-.03672.27382.27382,0,0,0,.10108-.17229q.03544-.13245.29047-1.48965l.14865-.83535a5.88313,5.88313,0,0,0,.08831-.59588.19459.19459,0,0,0-.0485-.13993,1.46978,1.46978,0,0,0-.3931-.18785c-.02675-.0087-.06593-.02363-.11694-.04414l.03668-.204q.75762.16887,1.1905.24754l.92834.15426a1.99,1.99,0,0,1,.6366.20649.784.784,0,0,1,.33028.39311A1.05576,1.05576,0,0,1,71.33306,73.40337Zm2.76754-.44473-.10449.0006a1.02475,1.02475,0,0,0-.45718.0529.34843.34843,0,0,0-.10761.24817l-.013.09952-.12783.92923-.13713,1.063-.06844.54113a1.11656,1.11656,0,0,0-.01586.30292.16979.16979,0,0,0,.07.10263,1.60933,1.60933,0,0,0,.3968.15675q.03267.00932.10079.02984l-.02738.20525q-.56445-.10543-.99736-.16232-.411-.05412-1.0919-.11258l.02736-.20527q.44315-.02333.487-.03484a.20534.20534,0,0,0,.10668-.05908.56183.56183,0,0,0,.07866-.255q.06626-.46.21213-1.56743l.12439-1.01072L72.56709,73.2a.43432.43432,0,0,0-.02615-.2942,1.06653,1.06653,0,0,0-.41361-.18162c-.02707-.00872-.06563-.02242-.116-.04044l.02707-.20525q.70908.12407,1.06423.17105.38019.0504,1.025.10388Zm4.02179,1.33042-.25938-.02051q-.14508-.6046-.18222-.68605a.24118.24118,0,0,0-.112-.12006,2.08,2.08,0,0,0-.49387-.07213l-.27057-.02178-.21021,2.6055a2.78551,2.78551,0,0,0-.014.58842.1474.1474,0,0,0,.07557.09143,3.38045,3.38045,0,0,0,.49727.15114l-.01646.20649q-.84856-.09978-1.091-.11878-.32932-.027-1.00949-.051l.01679-.20585a2.66426,2.66426,0,0,0,.53988-.08025.161.161,0,0,0,.08462-.0958,3.99,3.99,0,0,0,.0684-.58217l.20773-2.57752-.46835-.038a.824.824,0,0,0-.31722.01369.29738.29738,0,0,0-.13837.13248,4.85811,4.85811,0,0,0-.2628.61017L74.513,73.998q.08073-.40588.10449-.56166.02336-.15488.074-.60584,1.10184.12038,2.157.199.89286.06438,1.285.07837A9.70146,9.70146,0,0,0,78.12239,74.28906Zm4.769,2.89289q-.49451-.03826-.92038-.04541-.41989-.0065-1.05025.0143l.00341-.2071a1.46139,1.46139,0,0,0,.39342-.09455.1244.1244,0,0,0,.05474-.10512.28823.28823,0,0,0-.01525-.09019q-.0429-.11847-.27989-.70969-.39468-.01494-.65775-.01929c-.14369-.00185-.38346-.00309-.71934-.00249a5.99049,5.99049,0,0,0-.32342.798.11333.11333,0,0,0,.04321.10012,1.78485,1.78485,0,0,0,.39591.10576l-.00344.20713q-.35172-.03641-.67392-.04169-.347-.00558-.70565.01991l.00312-.20713a1.0067,1.0067,0,0,0,.34894-.11506.4222.4222,0,0,0,.11971-.13248q.112-.17449.674-1.35533.35592-.7473,1.01757-2.21243l.22671.00375q.24954.66147,1.03872,2.47179.43756,1.00574.52482,1.14445a.4409.4409,0,0,0,.12127.13684,1.97688,1.97688,0,0,0,.3869.12875Zm3.94154-.19034q-1.18858.02985-1.97668.069-.6456.03267-1.33976.09891l-.01057-.20712a2.81463,2.81463,0,0,0,.54049-.16172A.19.19,0,0,0,84.103,76.652q.00746-.09978-.05535-1.34036l-.05414-1.017-.00932-.1785a2.50541,2.50541,0,0,0-.05784-.53491.15085.15085,0,0,0-.08149-.09019,4.37516,4.37516,0,0,0-.51811-.08958l-.01057-.20713q.71653-.00463,1.11646-.02551.40774-.02049,1.08537-.08582l.01.20712a5.44287,5.44287,0,0,0-.62014.14305c-.0541.03484-.07773.11694-.07152.24758l.028.71838.11754,2.325,1.017-.05163a1.07135,1.07135,0,0,0,.3334-.05038.59711.59711,0,0,0,.21209-.18161,5.03716,5.03716,0,0,0,.34582-.589l.25129-.01245Q86.981,76.3653,86.8329,76.99161Zm3.93845-.43413q-.41048.05132-1.08413.16732l-.02548-.20528c.28174-.09018.43537-.14241.46212-.15674a.206.206,0,0,0,.0877-.08458.56109.56109,0,0,0,.01182-.26621q-.05318-.46182-.1928-1.56866l-.1356-1.00888-.01057-.08334a.43407.43407,0,0,0-.09952-.27742,1.05069,1.05069,0,0,0-.446-.07088c-.02863-.00188-.069-.005-.12254-.01l-.02612-.20525q.71745-.0588,1.07232-.10388.37971-.04854,1.01694-.15983l.02614.20524-.10076.02736a1.02421,1.02421,0,0,0-.42855.16671.34714.34714,0,0,0-.041.26744l.01242.09952.112.93051.13684,1.06235.07089.54052a1.09387,1.09387,0,0,0,.06159.29668.16956.16956,0,0,0,.09328.08149,1.57879,1.57879,0,0,0,.42358.05038c.023.00124.05787.00249.10513.00373l.02551.20524Q91.20366,76.50305,90.77135,76.55748Zm4.51318-3.51862a7.09028,7.09028,0,0,0-.34954-.617.23873.23873,0,0,0-.13933-.0877,2.042,2.042,0,0,0-.49574.05538l-.26745.04725L94.48962,75.01a2.80391,2.80391,0,0,0,.1356.57285.14446.14446,0,0,0,.09579.06968,3.284,3.284,0,0,0,.52.0199l.03609.204q-.84622.11943-1.08538.16172-.32564.05784-.98961.20649l-.03605-.20337a2.68875,2.68875,0,0,0,.50192-.21461.16337.16337,0,0,0,.05787-.11382,4.00893,4.00893,0,0,0-.08149-.58093l-.45219-2.5458-.46275.0821a.80942.80942,0,0,0-.30292.09391.29728.29728,0,0,0-.10076.16235,4.9961,4.9961,0,0,0-.09952.65743l-.25066.04417q-.02521-.4133-.041-.56975-.01681-.15577-.0821-.60457,1.09626-.16328,2.13716-.3539.8798-.16514,1.26262-.25006a9.78365,9.78365,0,0,0,.28862,1.14573Zm4.69852,1.73162q-.40772.09984-1.01137.28053l-.04913-.20091a1.447,1.447,0,0,0,.35578-.19156.12383.12383,0,0,0,.02675-.11569.29082.29082,0,0,0-.03793-.08274q-.07183-.10356-.45094-.61514-.38535.08584-.64067.14866-.209.05226-.696.18038a6.04748,6.04748,0,0,0-.10949.854.11257.11257,0,0,0,.06719.08522,1.78075,1.78075,0,0,0,.40925.00188l.04978.20088q-.34986.05412-.66179.13124-.33777.08307-.67737.19843l-.04974-.20092a1.01829,1.01829,0,0,0,.3085-.19964.42292.42292,0,0,0,.08149-.15862q.06433-.19777.30664-1.48158.15391-.81264.42107-2.39653l.22018-.05474q.40957.57657,1.63211,2.12533.67921.86118.79863.9728a.43773.43773,0,0,0,.15178.10076,1.94889,1.94889,0,0,0,.40677.02675l.04977.20092Q100.39546,74.66878,99.98305,74.77048Zm4.6811-1.39511q-1.142.335-1.8921.57657-.61573.19872-1.26883.441l-.06347-.19716a2.85194,2.85194,0,0,0,.48081-.29607.18805.18805,0,0,0,.018-.14806q-.01863-.09888-.39867-1.28068l-.31474-.96844-.05474-.1704a2.50514,2.50514,0,0,0-.194-.502.15029.15029,0,0,0-.102-.06532,4.09122,4.09122,0,0,0-.5237.046l-.06344-.19652q.6904-.19037,1.07168-.31289.38812-.125,1.0263-.36259l.06344.19715a5.29607,5.29607,0,0,0-.56228.29856c-.04353.04726-.04541.13312-.005.25687l.21209.6873.71278,2.21555.96971-.31225a1.0814,1.0814,0,0,0,.30912-.13435.60949.60949,0,0,0,.158-.23012,5.10238,5.10238,0,0,0,.18222-.65807l.23949-.07713Q104.6452,72.73193,104.66415,73.37537Zm1.99349-.77564q-.38716.14838-1.01385.4211l-.074-.19343c.25254-.1549.38935-.24257.41177-.26311a.2042.2042,0,0,0,.06529-.10264.55369.55369,0,0,0-.05163-.26184q-.1614-.4357-.56039-1.47912l-.372-.94853-.02987-.07837c-.05287-.13933-.10761-.22143-.16295-.2463a1.05065,1.05065,0,0,0-.4503.03733c-.028.005-.06845.01117-.12131.01926l-.074-.19343q.683-.22767,1.01758-.35578.35826-.13715.951-.39683l.074.19343-.092.04977a1.03854,1.03854,0,0,0-.37693.26436.34865.34865,0,0,0,.02363.26932l.03608.09391.32963.87825.38626,1.00015.19719.50881a1.08913,1.08913,0,0,0,.1306.27368.17066.17066,0,0,0,.1101.05723,1.59935,1.59935,0,0,0,.42358-.05166c.02239-.00433.05659-.01181.10324-.02114l.074.19346Q107.06476,72.44392,106.65764,72.59973Zm4.74518-2.03266q-.38159.1745-.94169.46339l-.08646-.18846a1.44322,1.44322,0,0,0,.31473-.25379.124.124,0,0,0,.00433-.11878.27744.27744,0,0,0-.05222-.07465q-.08956-.0886-.55731-.52122-.36294.15673-.60211.26559-.1959.08958-.65122.306a5.98408,5.98408,0,0,0,.051.85959.11492.11492,0,0,0,.0821.07216,1.8152,1.8152,0,0,0,.40244-.07465l.08582.18847q-.33309.11851-.62634.2513-.31537.14459-.62883.32094l-.08583-.18847a1.01123,1.01123,0,0,0,.26556-.25378.417.417,0,0,0,.05163-.1704q.02613-.20622.02614-1.51332.00091-.82755-.03047-2.43447l.20648-.09391q.50942.48978,1.99847,1.78573.82755.72117.96534.80857a.43758.43758,0,0,0,.16793.07092,1.95064,1.95064,0,0,0,.40492-.04914l.08646.18846Q111.79,70.39045,111.40282,70.56707Zm4.75574-2.404-1.58484-.6388-2.3816-.91057.66552,1.15254.65933,1.11337a.56688.56688,0,0,0,.11506.14553.15549.15549,0,0,0,.079.02487,1.80882,1.80882,0,0,0,.39375-.11133c.02487-.00994.0628-.02239.11381-.03857l.10264.17977q-.43479.21182-.68733.35579-.21735.12313-.72026.44533l-.102-.18037c.04477-.03793.07837-.06717.1014-.08707a1.15029,1.15029,0,0,0,.28549-.27493.17316.17316,0,0,0,.005-.10448q-.014-.05786-.38066-.74205-.529-.99177-.92678-1.69057a1.20282,1.20282,0,0,0-.19592-.28486.22674.22674,0,0,0-.14929-.04978,1.63858,1.63858,0,0,0-.3819.10449c-.03048.01057-.07588.02551-.1356.04481l-.10261-.18038q.34892-.16236.63568-.32655.29014-.16422.66676-.41489.52435.23049,3.04342,1.19114l-.76319-1.31865a3.32145,3.32145,0,0,0-.3446-.51749.21.21,0,0,0-.13248-.0373,2.3438,2.3438,0,0,0-.45655.15487l-.1026-.18038q.40676-.19594.69911-.36262.2827-.16047.70533-.43664l.10263.17977c-.04477.03856-.07837.06655-.10076.08334a.957.957,0,0,0-.28862.29171.37361.37361,0,0,0,.05723.25253q.16887.35545.77376,1.41626.38718.682.91309,1.54316A2.53089,2.53089,0,0,0,116.15856,68.16308Zm4.16173-3.51859a1.91065,1.91065,0,0,1-.2183.61637,2.42093,2.42093,0,0,1-.69663.72026,1.83515,1.83515,0,0,1-2.804-.46523,2.08545,2.08545,0,0,1-.41858-1.60163,2.14325,2.14325,0,0,1,.946-1.3945,1.99547,1.99547,0,0,1,1.50211-.423,1.89648,1.89648,0,0,1,1.25393.83968,2.4485,2.4485,0,0,1,.42355.956A1.96734,1.96734,0,0,1,120.32029,64.64449ZM82.10811,71.49073c-25.44441,0-46.07091-14.21-46.07091-31.73943S56.6637,8.01139,82.10811,8.01139c25.444,0,46.07042,14.21049,46.07042,31.73991S107.55207,71.49073,82.10811,71.49073Zm49.57348-30.89026a.95538.95538,0,1,1,.95538-.95538A.95555.95555,0,0,1,131.68159,40.60047Z"/></g></g></svg>