<svg xmlns="http://www.w3.org/2000/svg" viewBox="0 0 24.44 24.45"><defs><style>.cls-1{fill:#4836ee;}</style></defs><title>Recurso 1</title><g id="Capa_2" data-name="Capa 2"><g id="Capa_1-2" data-name="Capa 1"><path class="cls-1" d="M11.46,0H13l.18,0A11.63,11.63,0,0,1,20,2.76a11.87,11.87,0,0,1,4.38,11.07,11.68,11.68,0,0,1-4.51,8,11.89,11.89,0,0,1-9.22,2.54A11.87,11.87,0,0,1,4,21.3a12.06,12.06,0,0,1-3.86-7c-.08-.45-.12-.9-.18-1.35V11.46c.08-.54.14-1.08.24-1.62A12.21,12.21,0,0,1,10.1.19C10.55.11,11,.06,11.46,0m9.17,18.82A10.68,10.68,0,0,0,4,5.38,10.58,10.58,0,0,0,3.8,18.77a8.52,8.52,0,0,1,5.5-7.58,4.59,4.59,0,1,1,5.92-7,4.43,4.43,0,0,1,1.57,3.12,4.52,4.52,0,0,1-1.66,3.91,8.54,8.54,0,0,1,3.89,3,8.29,8.29,0,0,1,1.61,4.66m-8.4,4.11a10.65,10.65,0,0,0,6.53-2.24.59.59,0,0,0,.23-.36,13.19,13.19,0,0,0,.07-1.88,6.87,6.87,0,1,0-13.6,1.87.65.65,0,0,0,.23.37,10.74,10.74,0,0,0,6.54,2.24M9.17,7.63a3.06,3.06,0,1,0,3.06-3A3.07,3.07,0,0,0,9.17,7.63"/></g></g></svg>